<ttFont>
    <TTGlyph name="A" xMin="64" yMin="0" xMax="2112" yMax="1536">
      <contour>
        <pt x="1696" y="352" on="1"/>
        <pt x="480" y="352" on="1"/>
        <pt x="288" y="0" on="1"/>
        <pt x="64" y="0" on="1"/>
        <pt x="960" y="1536" on="1"/>
        <pt x="1216" y="1536" on="1"/>
        <pt x="2112" y="0" on="1"/>
        <pt x="1888" y="0" on="1"/>
      </contour>
      <contour>
        <pt x="1600" y="512" on="1"/>
        <pt x="1088" y="1408" on="1"/>
        <pt x="576" y="512" on="1"/>
      </contour>
    </TTGlyph>
    <TTGlyph name="AE" xMin="0" yMin="0" xMax="2944" yMax="1536">
      <contour>
        <pt x="1472" y="0" on="1"/>
        <pt x="1472" y="352" on="1"/>
        <pt x="582" y="352" on="1"/>
        <pt x="256" y="0" on="1"/>
        <pt x="0" y="0" on="1"/>
        <pt x="1408" y="1536" on="1"/>
        <pt x="2944" y="1536" on="1"/>
        <pt x="2944" y="1376" on="1"/>
        <pt x="1664" y="1376" on="1"/>
        <pt x="1664" y="864" on="1"/>
        <pt x="2880" y="864" on="1"/>
        <pt x="2880" y="704" on="1"/>
        <pt x="1664" y="704" on="1"/>
        <pt x="1664" y="160" on="1"/>
        <pt x="2944" y="160" on="1"/>
        <pt x="2944" y="0" on="1"/>
      </contour>
      <contour>
        <pt x="1472" y="512" on="1"/>
        <pt x="1472" y="1376" on="1"/>
        <pt x="704" y="512" on="1"/>
      </contour>
    </TTGlyph>
    <TTGlyph name="AEacute" xMin="128" yMin="0" xMax="3072" yMax="2266">
      <component glyphName="acute" x="2112" y="410" flags="0x1004"/>
      <component glyphName="AE" x="128" y="0" flags="0x1004"/>
    </TTGlyph>
    <TTGlyph name="Aacute" xMin="128" yMin="0" xMax="2176" yMax="2304">
      <component glyphName="A" x="64" y="0" flags="0x1004"/>
      <component glyphName="acute" x="672" y="448" flags="0x1004"/>
    </TTGlyph>
    <TTGlyph name="Acircumflex" xMin="128" yMin="0" xMax="2176" yMax="2304">
      <component glyphName="A" x="64" y="0" flags="0x1004"/>
      <component glyphName="circumflex" x="608" y="448" flags="0x1004"/>
    </TTGlyph>
    <TTGlyph name="Adieresis" xMin="128" yMin="0" xMax="2176" yMax="1984">
      <component glyphName="A" x="64" y="0" flags="0x1004"/>
      <component glyphName="dieresis" x="608" y="448" flags="0x1004"/>
    </TTGlyph>
    <TTGlyph name="Agrave" xMin="128" yMin="0" xMax="2176" yMax="2304">
      <component glyphName="A" x="64" y="0" flags="0x1004"/>
      <component glyphName="grave" x="672" y="448" flags="0x1004"/>
    </TTGlyph>
    <TTGlyph name="Amacron" xMin="128" yMin="0" xMax="2176" yMax="1850">
      <component glyphName="macron" x="640" y="346" flags="0x1004"/>
      <component glyphName="A" x="64" y="0" flags="0x1004"/>
    </TTGlyph>
    <TTGlyph name="Aogonek" xMin="128" yMin="-555" xMax="2176" yMax="1536">
      <component glyphName="ogonek" x="1570" y="-43" flags="0x1004"/>
      <component glyphName="A" x="64" y="0" flags="0x1004"/>
    </TTGlyph>
    <TTGlyph name="Aring" xMin="128" yMin="0" xMax="2176" yMax="2368">
      <component glyphName="A" x="64" y="0" flags="0x1004"/>
      <component glyphName="ring" x="512" y="448" flags="0x1004"/>
    </TTGlyph>
    <TTGlyph name="Aringacute" xMin="128" yMin="0" xMax="2176" yMax="3066">
      <component glyphName="acute" x="960" y="1210" flags="0x1004"/>
      <component glyphName="A" x="64" y="0" flags="0x1004"/>
      <component glyphName="ring" x="512" y="448" flags="0x1004"/>
    </TTGlyph>
    <TTGlyph name="Atilde" xMin="128" yMin="0" xMax="2176" yMax="2049">
      <component glyphName="A" x="64" y="0" flags="0x1004"/>
      <component glyphName="tilde" x="576" y="448" flags="0x1004"/>
    </TTGlyph>
    <TTGlyph name="B" xMin="192" yMin="0" xMax="1984" yMax="1536">
      <contour>
        <pt x="192" y="0" on="1"/>
        <pt x="192" y="1536" on="1"/>
        <pt x="1473" y="1536" on="1"/>
        <pt x="1617" y="1536" on="0"/>
        <pt x="1793" y="1489" on="0"/>
        <pt x="1888" y="1398" on="0"/>
        <pt x="1920" y="1262" on="0"/>
        <pt x="1920" y="1174" on="1"/>
        <pt x="1920" y="1110" on="0"/>
        <pt x="1898" y="1012" on="0"/>
        <pt x="1862" y="940" on="0"/>
        <pt x="1816" y="891" on="0"/>
        <pt x="1792" y="875" on="1"/>
        <pt x="1736" y="837" on="0"/>
        <pt x="1664" y="832" on="1"/>
        <pt x="1754" y="827" on="0"/>
        <pt x="1824" y="788" on="1"/>
        <pt x="1854" y="771" on="0"/>
        <pt x="1911" y="720" on="0"/>
        <pt x="1956" y="645" on="0"/>
        <pt x="1984" y="544" on="0"/>
        <pt x="1984" y="478" on="1"/>
        <pt x="1984" y="398" on="0"/>
        <pt x="1969" y="265" on="0"/>
        <pt x="1923" y="159" on="0"/>
        <pt x="1837" y="79" on="0"/>
        <pt x="1694" y="26" on="0"/>
        <pt x="1487" y="0" on="0"/>
        <pt x="1343" y="0" on="1"/>
      </contour>
      <contour>
        <pt x="1279" y="160" on="1"/>
        <pt x="1391" y="160" on="0"/>
        <pt x="1555" y="167" on="0"/>
        <pt x="1669" y="190" on="0"/>
        <pt x="1739" y="233" on="0"/>
        <pt x="1778" y="304" on="0"/>
        <pt x="1792" y="406" on="0"/>
        <pt x="1792" y="478" on="1"/>
        <pt x="1792" y="534" on="0"/>
        <pt x="1778" y="617" on="0"/>
        <pt x="1739" y="674" on="0"/>
        <pt x="1669" y="709" on="0"/>
        <pt x="1555" y="729" on="0"/>
        <pt x="1391" y="736" on="0"/>
        <pt x="1279" y="736" on="1"/>
        <pt x="384" y="736" on="1"/>
        <pt x="384" y="160" on="1"/>
      </contour>
      <contour>
        <pt x="1279" y="896" on="1"/>
        <pt x="1377" y="896" on="0"/>
        <pt x="1519" y="904" on="0"/>
        <pt x="1619" y="926" on="0"/>
        <pt x="1681" y="965" on="0"/>
        <pt x="1716" y="1027" on="0"/>
        <pt x="1728" y="1114" on="0"/>
        <pt x="1728" y="1174" on="1"/>
        <pt x="1728" y="1238" on="0"/>
        <pt x="1700" y="1318" on="0"/>
        <pt x="1628" y="1361" on="0"/>
        <pt x="1505" y="1376" on="0"/>
        <pt x="1409" y="1376" on="1"/>
        <pt x="384" y="1376" on="1"/>
        <pt x="384" y="896" on="1"/>
      </contour>
    </TTGlyph>
    <TTGlyph name="C" xMin="128" yMin="-32" xMax="1983" yMax="1568">
      <contour>
        <pt x="1791" y="1056" on="1"/>
        <pt x="1791" y="1176" on="0"/>
        <pt x="1739" y="1316" on="0"/>
        <pt x="1619" y="1388" on="0"/>
        <pt x="1424" y="1408" on="0"/>
        <pt x="1280" y="1408" on="1"/>
        <pt x="831" y="1408" on="1"/>
        <pt x="703" y="1408" on="0"/>
        <pt x="528" y="1393" on="0"/>
        <pt x="414" y="1347" on="0"/>
        <pt x="352" y="1261" on="0"/>
        <pt x="324" y="1119" on="0"/>
        <pt x="320" y="912" on="0"/>
        <pt x="320" y="768" on="1"/>
        <pt x="320" y="624" on="0"/>
        <pt x="325" y="417" on="0"/>
        <pt x="353" y="275" on="0"/>
        <pt x="414" y="189" on="0"/>
        <pt x="528" y="143" on="0"/>
        <pt x="703" y="128" on="0"/>
        <pt x="831" y="128" on="1"/>
        <pt x="1280" y="128" on="1"/>
        <pt x="1392" y="128" on="0"/>
        <pt x="1554" y="140" on="0"/>
        <pt x="1668" y="172" on="0"/>
        <pt x="1738" y="228" on="0"/>
        <pt x="1777" y="313" on="0"/>
        <pt x="1791" y="432" on="0"/>
        <pt x="1791" y="512" on="1"/>
        <pt x="1983" y="512" on="1"/>
        <pt x="1983" y="416" on="0"/>
        <pt x="1959" y="261" on="0"/>
        <pt x="1898" y="140" on="0"/>
        <pt x="1796" y="52" on="0"/>
        <pt x="1640" y="-5" on="0"/>
        <pt x="1424" y="-32" on="0"/>
        <pt x="1280" y="-32" on="1"/>
        <pt x="831" y="-32" on="1"/>
        <pt x="655" y="-32" on="0"/>
        <pt x="414" y="11" on="0"/>
        <pt x="258" y="98" on="0"/>
        <pt x="173" y="230" on="0"/>
        <pt x="134" y="408" on="0"/>
        <pt x="128" y="632" on="0"/>
        <pt x="128" y="768" on="1"/>
        <pt x="128" y="904" on="0"/>
        <pt x="134" y="1128" on="0"/>
        <pt x="173" y="1306" on="0"/>
        <pt x="258" y="1438" on="0"/>
        <pt x="414" y="1525" on="0"/>
        <pt x="655" y="1568" on="0"/>
        <pt x="831" y="1568" on="1"/>
        <pt x="1280" y="1568" on="1"/>
        <pt x="1424" y="1568" on="0"/>
        <pt x="1640" y="1541" on="0"/>
        <pt x="1796" y="1486" on="0"/>
        <pt x="1898" y="1402" on="0"/>
        <pt x="1959" y="1288" on="0"/>
        <pt x="1983" y="1144" on="0"/>
        <pt x="1983" y="1056" on="1"/>
      </contour>
    </TTGlyph>
    <TTGlyph name="Ccaron" xMin="129" yMin="-32" xMax="1984" yMax="2266">
      <component glyphName="caron" x="512" y="410" flags="0x1004"/>
      <component glyphName="C" x="1" y="0" flags="0x1004"/>
    </TTGlyph>
    <TTGlyph name="Ccedilla" xMin="128" yMin="-544" xMax="1983" yMax="1568">
      <contour>
        <pt x="959" y="-384" on="1"/>
        <pt x="1007" y="-384" on="0"/>
        <pt x="1079" y="-381" on="0"/>
        <pt x="1127" y="-363" on="0"/>
        <pt x="1151" y="-324" on="0"/>
        <pt x="1151" y="-288" on="1"/>
        <pt x="1151" y="-276" on="0"/>
        <pt x="1145" y="-253" on="0"/>
        <pt x="1109" y="-235" on="0"/>
        <pt x="1031" y="-224" on="0"/>
        <pt x="959" y="-224" on="1"/>
        <pt x="959" y="-32" on="1"/>
        <pt x="831" y="-32" on="1"/>
        <pt x="655" y="-32" on="0"/>
        <pt x="414" y="11" on="0"/>
        <pt x="258" y="98" on="0"/>
        <pt x="173" y="230" on="0"/>
        <pt x="134" y="408" on="0"/>
        <pt x="128" y="632" on="0"/>
        <pt x="128" y="768" on="1"/>
        <pt x="128" y="904" on="0"/>
        <pt x="134" y="1128" on="0"/>
        <pt x="173" y="1306" on="0"/>
        <pt x="258" y="1438" on="0"/>
        <pt x="414" y="1525" on="0"/>
        <pt x="655" y="1568" on="0"/>
        <pt x="831" y="1568" on="1"/>
        <pt x="1280" y="1568" on="1"/>
        <pt x="1424" y="1568" on="0"/>
        <pt x="1640" y="1541" on="0"/>
        <pt x="1796" y="1486" on="0"/>
        <pt x="1898" y="1402" on="0"/>
        <pt x="1959" y="1288" on="0"/>
        <pt x="1983" y="1144" on="0"/>
        <pt x="1983" y="1056" on="1"/>
        <pt x="1791" y="1056" on="1"/>
        <pt x="1791" y="1176" on="0"/>
        <pt x="1739" y="1316" on="0"/>
        <pt x="1619" y="1388" on="0"/>
        <pt x="1424" y="1408" on="0"/>
        <pt x="1280" y="1408" on="1"/>
        <pt x="831" y="1408" on="1"/>
        <pt x="703" y="1408" on="0"/>
        <pt x="528" y="1393" on="0"/>
        <pt x="414" y="1347" on="0"/>
        <pt x="352" y="1261" on="0"/>
        <pt x="324" y="1119" on="0"/>
        <pt x="320" y="912" on="0"/>
        <pt x="320" y="768" on="1"/>
        <pt x="320" y="624" on="0"/>
        <pt x="325" y="417" on="0"/>
        <pt x="353" y="275" on="0"/>
        <pt x="414" y="189" on="0"/>
        <pt x="528" y="143" on="0"/>
        <pt x="703" y="128" on="0"/>
        <pt x="831" y="128" on="1"/>
        <pt x="1280" y="128" on="1"/>
        <pt x="1392" y="128" on="0"/>
        <pt x="1554" y="140" on="0"/>
        <pt x="1668" y="172" on="0"/>
        <pt x="1738" y="228" on="0"/>
        <pt x="1777" y="313" on="0"/>
        <pt x="1791" y="432" on="0"/>
        <pt x="1791" y="512" on="1"/>
        <pt x="1983" y="512" on="1"/>
        <pt x="1983" y="416" on="0"/>
        <pt x="1959" y="261" on="0"/>
        <pt x="1898" y="140" on="0"/>
        <pt x="1796" y="52" on="0"/>
        <pt x="1640" y="-5" on="0"/>
        <pt x="1424" y="-32" on="0"/>
        <pt x="1280" y="-32" on="1"/>
        <pt x="1087" y="-32" on="1"/>
        <pt x="1087" y="-128" on="1"/>
        <pt x="1135" y="-128" on="0"/>
        <pt x="1227" y="-142" on="0"/>
        <pt x="1299" y="-178" on="0"/>
        <pt x="1343" y="-240" on="0"/>
        <pt x="1343" y="-288" on="1"/>
        <pt x="1343" y="-372" on="0"/>
        <pt x="1277" y="-473" on="0"/>
        <pt x="1169" y="-527" on="0"/>
        <pt x="1031" y="-544" on="0"/>
        <pt x="959" y="-544" on="1"/>
      </contour>
    </TTGlyph>
    <TTGlyph name="Ccircumflex" xMin="128" yMin="-32" xMax="1983" yMax="2266">
      <component glyphName="circumflex" x="511" y="410" flags="0x1004"/>
      <component glyphName="C" x="0" y="0" flags="0x1004"/>
    </TTGlyph>
    <TTGlyph name="Cdotaccent" xMin="128" yMin="-32" xMax="1983" yMax="1882">
      <component glyphName="dotaccent" x="831" y="346" flags="0x1004"/>
      <component glyphName="C" x="0" y="0" flags="0x1004"/>
    </TTGlyph>
    <TTGlyph name="D" xMin="192" yMin="0" xMax="2048" yMax="1536">
      <contour>
        <pt x="1343" y="160" on="1"/>
        <pt x="1470" y="160" on="0"/>
        <pt x="1646" y="174" on="0"/>
        <pt x="1760" y="217" on="0"/>
        <pt x="1822" y="299" on="0"/>
        <pt x="1851" y="434" on="0"/>
        <pt x="1856" y="631" on="0"/>
        <pt x="1856" y="768" on="1"/>
        <pt x="1856" y="905" on="0"/>
        <pt x="1851" y="1102" on="0"/>
        <pt x="1822" y="1237" on="0"/>
        <pt x="1760" y="1319" on="0"/>
        <pt x="1646" y="1362" on="0"/>
        <pt x="1471" y="1376" on="0"/>
        <pt x="1343" y="1376" on="1"/>
        <pt x="384" y="1376" on="1"/>
        <pt x="384" y="160" on="1"/>
      </contour>
      <contour>
        <pt x="192" y="0" on="1"/>
        <pt x="192" y="1536" on="1"/>
        <pt x="1343" y="1536" on="1"/>
        <pt x="1519" y="1536" on="0"/>
        <pt x="1760" y="1495" on="0"/>
        <pt x="1917" y="1411" on="0"/>
        <pt x="2002" y="1285" on="0"/>
        <pt x="2041" y="1114" on="0"/>
        <pt x="2048" y="899" on="0"/>
        <pt x="2048" y="768" on="1"/>
        <pt x="2048" y="637" on="0"/>
        <pt x="2041" y="422" on="0"/>
        <pt x="2002" y="251" on="0"/>
        <pt x="1917" y="125" on="0"/>
        <pt x="1760" y="41" on="0"/>
        <pt x="1519" y="0" on="0"/>
        <pt x="1343" y="0" on="1"/>
      </contour>
    </TTGlyph>
    <TTGlyph name="Dcroat" xMin="0" yMin="0" xMax="1984" yMax="1536">
      <component glyphName="Eth" x="0" y="0" flags="0x1204"/>
    </TTGlyph>
    <TTGlyph name="Delta" xMin="128" yMin="-1" xMax="1536" yMax="1536">
      <contour>
        <pt x="128" y="-1" on="1"/>
        <pt x="704" y="1536" on="1"/>
        <pt x="960" y="1536" on="1"/>
        <pt x="1536" y="-1" on="1"/>
      </contour>
      <contour>
        <pt x="1280" y="159" on="1"/>
        <pt x="832" y="1408" on="1"/>
        <pt x="384" y="159" on="1"/>
      </contour>
    </TTGlyph>
    <TTGlyph name="E" xMin="192" yMin="0" xMax="1728" yMax="1536">
      <contour>
        <pt x="192" y="0" on="1"/>
        <pt x="192" y="1536" on="1"/>
        <pt x="1728" y="1536" on="1"/>
        <pt x="1728" y="1376" on="1"/>
        <pt x="384" y="1376" on="1"/>
        <pt x="384" y="864" on="1"/>
        <pt x="1664" y="864" on="1"/>
        <pt x="1664" y="704" on="1"/>
        <pt x="384" y="704" on="1"/>
        <pt x="384" y="160" on="1"/>
        <pt x="1728" y="160" on="1"/>
        <pt x="1728" y="0" on="1"/>
      </contour>
    </TTGlyph>
    <TTGlyph name="Eacute" xMin="192" yMin="0" xMax="1728" yMax="2304">
      <component glyphName="E" x="0" y="0" flags="0x1204"/>
      <component glyphName="acute" x="480" y="448" flags="0x1004"/>
    </TTGlyph>
    <TTGlyph name="Ecaron" xMin="192" yMin="0" xMax="1728" yMax="2266">
      <component glyphName="caron" x="416" y="410" flags="0x1004"/>
      <component glyphName="E" x="0" y="0" flags="0x1004"/>
    </TTGlyph>
    <TTGlyph name="Ecircumflex" xMin="192" yMin="0" xMax="1728" yMax="2304">
      <component glyphName="E" x="0" y="0" flags="0x1204"/>
      <component glyphName="circumflex" x="416" y="448" flags="0x1004"/>
    </TTGlyph>
    <TTGlyph name="Edieresis" xMin="192" yMin="0" xMax="1728" yMax="1984">
      <component glyphName="E" x="0" y="0" flags="0x1204"/>
      <component glyphName="dieresis" x="416" y="448" flags="0x1004"/>
    </TTGlyph>
    <TTGlyph name="Edotaccent" xMin="192" yMin="0" xMax="1728" yMax="1882">
      <component glyphName="dotaccent" x="736" y="346" flags="0x1004"/>
      <component glyphName="E" x="0" y="0" flags="0x1004"/>
    </TTGlyph>
    <TTGlyph name="Egrave" xMin="192" yMin="0" xMax="1728" yMax="2304">
      <component glyphName="E" x="0" y="0" flags="0x1204"/>
      <component glyphName="grave" x="480" y="448" flags="0x1004"/>
    </TTGlyph>
    <TTGlyph name="Emacron" xMin="192" yMin="0" xMax="1728" yMax="1850">
      <component glyphName="macron" x="448" y="346" flags="0x1004"/>
      <component glyphName="E" x="0" y="0" flags="0x1004"/>
    </TTGlyph>
    <TTGlyph name="Eogonek" xMin="192" yMin="-555" xMax="1728" yMax="1536">
      <component glyphName="ogonek" x="1202" y="-43" flags="0x1004"/>
      <component glyphName="E" x="0" y="0" flags="0x1004"/>
    </TTGlyph>
    <TTGlyph name="Eth" xMin="0" yMin="0" xMax="1984" yMax="1536">
      <contour>
        <pt x="0" y="704" on="1"/>
        <pt x="128" y="704" on="1"/>
        <pt x="128" y="0" on="1"/>
        <pt x="1279" y="0" on="1"/>
        <pt x="1455" y="0" on="0"/>
        <pt x="1696" y="41" on="0"/>
        <pt x="1853" y="125" on="0"/>
        <pt x="1938" y="251" on="0"/>
        <pt x="1977" y="422" on="0"/>
        <pt x="1984" y="637" on="0"/>
        <pt x="1984" y="768" on="1"/>
        <pt x="1984" y="899" on="0"/>
        <pt x="1977" y="1114" on="0"/>
        <pt x="1938" y="1285" on="0"/>
        <pt x="1853" y="1411" on="0"/>
        <pt x="1696" y="1495" on="0"/>
        <pt x="1455" y="1536" on="0"/>
        <pt x="1279" y="1536" on="1"/>
        <pt x="128" y="1536" on="1"/>
        <pt x="128" y="864" on="1"/>
        <pt x="0" y="864" on="1"/>
      </contour>
      <contour>
        <pt x="320" y="160" on="1"/>
        <pt x="320" y="704" on="1"/>
        <pt x="768" y="704" on="1"/>
        <pt x="768" y="864" on="1"/>
        <pt x="320" y="864" on="1"/>
        <pt x="320" y="1376" on="1"/>
        <pt x="1279" y="1376" on="1"/>
        <pt x="1407" y="1376" on="0"/>
        <pt x="1582" y="1362" on="0"/>
        <pt x="1696" y="1319" on="0"/>
        <pt x="1758" y="1237" on="0"/>
        <pt x="1787" y="1102" on="0"/>
        <pt x="1792" y="905" on="0"/>
        <pt x="1792" y="768" on="1"/>
        <pt x="1792" y="631" on="0"/>
        <pt x="1787" y="434" on="0"/>
        <pt x="1758" y="299" on="0"/>
        <pt x="1696" y="217" on="0"/>
        <pt x="1582" y="174" on="0"/>
        <pt x="1406" y="160" on="0"/>
        <pt x="1279" y="160" on="1"/>
      </contour>
    </TTGlyph>
    <TTGlyph name="Euro" xMin="129" yMin="0" xMax="1913" yMax="1569">
      <contour>
        <pt x="525" y="14" on="1"/>
        <pt x="536" y="13" on="0"/>
        <pt x="581" y="10" on="0"/>
        <pt x="639" y="8" on="0"/>
        <pt x="702" y="5" on="0"/>
        <pt x="760" y="2" on="0"/>
        <pt x="805" y="0" on="0"/>
        <pt x="816" y="0" on="1"/>
        <pt x="961" y="0" on="1"/>
        <pt x="1133" y="0" on="1"/>
        <pt x="1152" y="0" on="0"/>
        <pt x="1212" y="1" on="0"/>
        <pt x="1280" y="2" on="0"/>
        <pt x="1351" y="4" on="0"/>
        <pt x="1411" y="5" on="0"/>
        <pt x="1453" y="6" on="0"/>
        <pt x="1459" y="6" on="1"/>
        <pt x="1565" y="12" on="0"/>
        <pt x="1720" y="60" on="0"/>
        <pt x="1826" y="154" on="0"/>
        <pt x="1887" y="302" on="0"/>
        <pt x="1899" y="408" on="1"/>
        <pt x="1904" y="457" on="0"/>
        <pt x="1910" y="546" on="0"/>
        <pt x="1913" y="631" on="0"/>
        <pt x="1913" y="718" on="0"/>
        <pt x="1913" y="766" on="1"/>
        <pt x="1913" y="837" on="0"/>
        <pt x="1913" y="1001" on="0"/>
        <pt x="1898" y="1167" on="0"/>
        <pt x="1859" y="1322" on="0"/>
        <pt x="1781" y="1448" on="0"/>
        <pt x="1655" y="1534" on="0"/>
        <pt x="1561" y="1546" on="1"/>
        <pt x="1544" y="1548" on="0"/>
        <pt x="1460" y="1555" on="0"/>
        <pt x="1365" y="1563" on="0"/>
        <pt x="1281" y="1568" on="0"/>
        <pt x="1264" y="1569" on="1"/>
        <pt x="1207" y="1569" on="1"/>
        <pt x="1133" y="1569" on="1"/>
        <pt x="1121" y="1568" on="0"/>
        <pt x="1048" y="1567" on="0"/>
        <pt x="950" y="1566" on="0"/>
        <pt x="839" y="1564" on="0"/>
        <pt x="741" y="1563" on="0"/>
        <pt x="668" y="1561" on="0"/>
        <pt x="656" y="1561" on="1"/>
        <pt x="575" y="1560" on="0"/>
        <pt x="419" y="1534" on="0"/>
        <pt x="287" y="1468" on="0"/>
        <pt x="189" y="1357" on="0"/>
        <pt x="166" y="1272" on="1"/>
        <pt x="151" y="1216" on="0"/>
        <pt x="135" y="1101" on="0"/>
        <pt x="129" y="985" on="0"/>
        <pt x="129" y="869" on="0"/>
        <pt x="129" y="811" on="1"/>
        <pt x="129" y="731" on="0"/>
        <pt x="130" y="556" on="0"/>
        <pt x="148" y="385" on="0"/>
        <pt x="193" y="227" on="0"/>
        <pt x="281" y="103" on="0"/>
        <pt x="421" y="23" on="0"/>
      </contour>
      <contour>
        <pt x="318" y="844" on="1"/>
        <pt x="318" y="1008" on="1"/>
        <pt x="318" y="1015" on="0"/>
        <pt x="323" y="1067" on="0"/>
        <pt x="329" y="1129" on="0"/>
        <pt x="336" y="1187" on="0"/>
        <pt x="338" y="1202" on="1"/>
        <pt x="346" y="1257" on="0"/>
        <pt x="398" y="1328" on="0"/>
        <pt x="474" y="1372" on="0"/>
        <pt x="567" y="1393" on="0"/>
        <pt x="664" y="1401" on="0"/>
        <pt x="760" y="1401" on="0"/>
        <pt x="801" y="1403" on="1"/>
        <pt x="808" y="1403" on="0"/>
        <pt x="861" y="1405" on="0"/>
        <pt x="922" y="1407" on="0"/>
        <pt x="974" y="1409" on="0"/>
        <pt x="981" y="1409" on="1"/>
        <pt x="1037" y="1409" on="1"/>
        <pt x="1147" y="1409" on="0"/>
        <pt x="1354" y="1401" on="0"/>
        <pt x="1471" y="1395" on="1"/>
        <pt x="1541" y="1393" on="0"/>
        <pt x="1636" y="1339" on="0"/>
        <pt x="1695" y="1251" on="0"/>
        <pt x="1721" y="1135" on="0"/>
        <pt x="1721" y="1071" on="1"/>
        <pt x="1721" y="504" on="1"/>
        <pt x="1721" y="425" on="0"/>
        <pt x="1699" y="307" on="0"/>
        <pt x="1641" y="226" on="0"/>
        <pt x="1539" y="180" on="0"/>
        <pt x="1459" y="172" on="1"/>
        <pt x="1447" y="171" on="0"/>
        <pt x="1377" y="167" on="0"/>
        <pt x="1298" y="163" on="0"/>
        <pt x="1225" y="160" on="0"/>
        <pt x="1209" y="160" on="1"/>
        <pt x="1207" y="159" on="0"/>
        <pt x="1169" y="158" on="0"/>
        <pt x="1118" y="158" on="0"/>
        <pt x="1066" y="158" on="0"/>
        <pt x="1051" y="158" on="1"/>
        <pt x="1034" y="158" on="0"/>
        <pt x="976" y="158" on="0"/>
        <pt x="919" y="158" on="0"/>
        <pt x="875" y="159" on="0"/>
        <pt x="871" y="160" on="1"/>
        <pt x="834" y="160" on="0"/>
        <pt x="746" y="162" on="0"/>
        <pt x="653" y="166" on="0"/>
        <pt x="563" y="174" on="0"/>
        <pt x="525" y="180" on="1"/>
        <pt x="474" y="188" on="0"/>
        <pt x="404" y="238" on="0"/>
        <pt x="359" y="310" on="0"/>
        <pt x="336" y="397" on="0"/>
        <pt x="332" y="442" on="1"/>
        <pt x="330" y="456" on="0"/>
        <pt x="326" y="520" on="0"/>
        <pt x="321" y="590" on="0"/>
        <pt x="318" y="652" on="0"/>
        <pt x="318" y="664" on="1"/>
      </contour>
      <contour>
        <pt x="1008" y="1440" on="1"/>
        <pt x="1011" y="1440" on="0"/>
        <pt x="1011" y="1434" on="0"/>
        <pt x="1008" y="1434" on="1"/>
        <pt x="1006" y="1434" on="0"/>
        <pt x="1006" y="1440" on="0"/>
      </contour>
    </TTGlyph>
    <TTGlyph name="F" xMin="192" yMin="0" xMax="1664" yMax="1536">
      <contour>
        <pt x="192" y="0" on="1"/>
        <pt x="192" y="1536" on="1"/>
        <pt x="1664" y="1536" on="1"/>
        <pt x="1664" y="1376" on="1"/>
        <pt x="384" y="1376" on="1"/>
        <pt x="384" y="864" on="1"/>
        <pt x="1600" y="864" on="1"/>
        <pt x="1600" y="704" on="1"/>
        <pt x="384" y="704" on="1"/>
        <pt x="384" y="0" on="1"/>
      </contour>
    </TTGlyph>
    <TTGlyph name="G" xMin="128" yMin="-32" xMax="2049" yMax="1568">
      <contour>
        <pt x="1857" y="1056" on="1"/>
        <pt x="1857" y="1176" on="0"/>
        <pt x="1805" y="1316" on="0"/>
        <pt x="1685" y="1388" on="0"/>
        <pt x="1489" y="1408" on="0"/>
        <pt x="1345" y="1408" on="1"/>
        <pt x="831" y="1408" on="1"/>
        <pt x="703" y="1408" on="0"/>
        <pt x="528" y="1393" on="0"/>
        <pt x="414" y="1347" on="0"/>
        <pt x="352" y="1261" on="0"/>
        <pt x="324" y="1119" on="0"/>
        <pt x="320" y="912" on="0"/>
        <pt x="320" y="768" on="1"/>
        <pt x="320" y="624" on="0"/>
        <pt x="325" y="417" on="0"/>
        <pt x="353" y="275" on="0"/>
        <pt x="414" y="189" on="0"/>
        <pt x="528" y="143" on="0"/>
        <pt x="703" y="128" on="0"/>
        <pt x="831" y="128" on="1"/>
        <pt x="1346" y="128" on="1"/>
        <pt x="1458" y="128" on="0"/>
        <pt x="1620" y="140" on="0"/>
        <pt x="1734" y="172" on="0"/>
        <pt x="1804" y="228" on="0"/>
        <pt x="1843" y="313" on="0"/>
        <pt x="1857" y="432" on="0"/>
        <pt x="1857" y="512" on="1"/>
        <pt x="1857" y="608" on="1"/>
        <pt x="1087" y="608" on="1"/>
        <pt x="1087" y="768" on="1"/>
        <pt x="2049" y="768" on="1"/>
        <pt x="2049" y="512" on="1"/>
        <pt x="2049" y="416" on="0"/>
        <pt x="2025" y="261" on="0"/>
        <pt x="1964" y="140" on="0"/>
        <pt x="1862" y="52" on="0"/>
        <pt x="1706" y="-5" on="0"/>
        <pt x="1490" y="-32" on="0"/>
        <pt x="1346" y="-32" on="1"/>
        <pt x="831" y="-32" on="1"/>
        <pt x="655" y="-32" on="0"/>
        <pt x="414" y="11" on="0"/>
        <pt x="258" y="98" on="0"/>
        <pt x="173" y="230" on="0"/>
        <pt x="134" y="408" on="0"/>
        <pt x="128" y="632" on="0"/>
        <pt x="128" y="768" on="1"/>
        <pt x="128" y="904" on="0"/>
        <pt x="134" y="1128" on="0"/>
        <pt x="173" y="1306" on="0"/>
        <pt x="258" y="1438" on="0"/>
        <pt x="414" y="1525" on="0"/>
        <pt x="655" y="1568" on="0"/>
        <pt x="831" y="1568" on="1"/>
        <pt x="1345" y="1568" on="1"/>
        <pt x="1489" y="1568" on="0"/>
        <pt x="1705" y="1541" on="0"/>
        <pt x="1861" y="1486" on="0"/>
        <pt x="1964" y="1402" on="0"/>
        <pt x="2025" y="1288" on="0"/>
        <pt x="2049" y="1144" on="0"/>
        <pt x="2049" y="1056" on="1"/>
      </contour>
    </TTGlyph>
    <TTGlyph name="Gbreve" xMin="128" yMin="-32" xMax="2049" yMax="2010">
      <component glyphName="breve" x="448" y="410" flags="0x1004"/>
      <component glyphName="G" x="0" y="0" flags="0x1004"/>
    </TTGlyph>
    <TTGlyph name="Gcaron" xMin="129" yMin="-32" xMax="2050" yMax="2266">
      <component glyphName="caron" x="545" y="410" flags="0x1004"/>
      <component glyphName="G" x="1" y="0" flags="0x1004"/>
    </TTGlyph>
    <TTGlyph name="Gcircumflex" xMin="128" yMin="-32" xMax="2049" yMax="2266">
      <component glyphName="circumflex" x="544" y="410" flags="0x1004"/>
      <component glyphName="G" x="0" y="0" flags="0x1004"/>
    </TTGlyph>
    <TTGlyph name="Gcommaaccent" xMin="128" yMin="-536" xMax="2049" yMax="1568">
      <component glyphName="comma" x="897" y="-280" flags="0x1004"/>
      <component glyphName="G" x="0" y="0" flags="0x1004"/>
    </TTGlyph>
    <TTGlyph name="Gdotaccent" xMin="128" yMin="-32" xMax="2049" yMax="1882">
      <component glyphName="dotaccent" x="864" y="346" flags="0x1004"/>
      <component glyphName="G" x="0" y="0" flags="0x1004"/>
    </TTGlyph>
    <TTGlyph name="H" xMin="192" yMin="0" xMax="1984" yMax="1536">
      <contour>
        <pt x="1792" y="1536" on="1"/>
        <pt x="1984" y="1536" on="1"/>
        <pt x="1984" y="0" on="1"/>
        <pt x="1792" y="0" on="1"/>
        <pt x="1792" y="704" on="1"/>
        <pt x="384" y="704" on="1"/>
        <pt x="384" y="0" on="1"/>
        <pt x="192" y="0" on="1"/>
        <pt x="192" y="1536" on="1"/>
        <pt x="384" y="1536" on="1"/>
        <pt x="384" y="864" on="1"/>
        <pt x="1792" y="864" on="1"/>
      </contour>
    </TTGlyph>
    <TTGlyph name="Hcircumflex" xMin="129" yMin="0" xMax="1921" yMax="2266">
      <component glyphName="circumflex" x="480" y="410" flags="0x1004"/>
      <component glyphName="H" x="-63" y="0" flags="0x1004"/>
    </TTGlyph>
    <TTGlyph name="I" xMin="192" yMin="0" xMax="384" yMax="1536">
      <component glyphName="l" x="0" y="0" flags="0x1204"/>
    </TTGlyph>
    <TTGlyph name="IJ" xMin="129" yMin="0" xMax="1984" yMax="1536">
      <component glyphName="J" x="448" y="0" flags="0x1004"/>
      <component glyphName="l" x="-63" y="0" flags="0x1004"/>
    </TTGlyph>
    <TTGlyph name="Iacute" xMin="-125" yMin="0" xMax="579" yMax="2304">
      <component glyphName="l" x="-63" y="0" flags="0x1004"/>
      <component glyphName="acute" x="-253" y="448" flags="0x1004"/>
    </TTGlyph>
    <TTGlyph name="Ibreve" xMin="-159" yMin="0" xMax="609" yMax="2010">
      <component glyphName="breve" x="-415" y="410" flags="0x1004"/>
      <component glyphName="l" x="-63" y="0" flags="0x1004"/>
    </TTGlyph>
    <TTGlyph name="Icircumflex" xMin="-189" yMin="0" xMax="643" yMax="2304">
      <component glyphName="l" x="-63" y="0" flags="0x1004"/>
      <component glyphName="circumflex" x="-317" y="448" flags="0x1004"/>
    </TTGlyph>
    <TTGlyph name="Idieresis" xMin="-253" yMin="0" xMax="707" yMax="1984">
      <component glyphName="l" x="-63" y="0" flags="0x1004"/>
      <component glyphName="dieresis" x="-317" y="448" flags="0x1004"/>
    </TTGlyph>
    <TTGlyph name="Idotaccent" xMin="128" yMin="0" xMax="321" yMax="1882">
      <component glyphName="dotaccent" x="0" y="346" flags="0x1204"/>
      <component glyphName="l" x="-63" y="0" flags="0x1004"/>
    </TTGlyph>
    <TTGlyph name="Igrave" xMin="-125" yMin="0" xMax="579" yMax="2304">
      <component glyphName="l" x="-63" y="0" flags="0x1004"/>
      <component glyphName="grave" x="-253" y="448" flags="0x1004"/>
    </TTGlyph>
    <TTGlyph name="Imacron" xMin="-158" yMin="0" xMax="610" yMax="1850">
      <component glyphName="macron" x="-286" y="346" flags="0x1004"/>
      <component glyphName="l" x="-63" y="0" flags="0x1004"/>
    </TTGlyph>
    <TTGlyph name="Iogonek" xMin="-94" yMin="-555" xMax="321" yMax="1536">
      <component glyphName="ogonek" x="-222" y="-43" flags="0x1004"/>
      <component glyphName="l" x="-63" y="0" flags="0x1004"/>
    </TTGlyph>
    <TTGlyph name="Itilde" xMin="-222" yMin="0" xMax="674" yMax="1947">
      <component glyphName="tilde" x="-350" y="346" flags="0x1004"/>
      <component glyphName="l" x="-63" y="0" flags="0x1004"/>
    </TTGlyph>
    <TTGlyph name="J" xMin="128" yMin="0" xMax="1536" yMax="1536">
      <contour>
        <pt x="576" y="0" on="1"/>
        <pt x="432" y="0" on="0"/>
        <pt x="256" y="52" on="0"/>
        <pt x="160" y="172" on="0"/>
        <pt x="128" y="368" on="0"/>
        <pt x="128" y="512" on="1"/>
        <pt x="128" y="576" on="1"/>
        <pt x="320" y="576" on="1"/>
        <pt x="320" y="512" on="1"/>
        <pt x="320" y="392" on="0"/>
        <pt x="346" y="251" on="0"/>
        <pt x="406" y="177" on="0"/>
        <pt x="504" y="156" on="0"/>
        <pt x="576" y="156" on="1"/>
        <pt x="1024" y="156" on="1"/>
        <pt x="1120" y="156" on="0"/>
        <pt x="1244" y="191" on="0"/>
        <pt x="1316" y="263" on="0"/>
        <pt x="1344" y="373" on="0"/>
        <pt x="1344" y="448" on="1"/>
        <pt x="1344" y="1536" on="1"/>
        <pt x="1536" y="1536" on="1"/>
        <pt x="1536" y="448" on="1"/>
        <pt x="1536" y="328" on="0"/>
        <pt x="1484" y="158" on="0"/>
        <pt x="1364" y="50" on="0"/>
        <pt x="1168" y="0" on="0"/>
        <pt x="1024" y="0" on="1"/>
      </contour>
    </TTGlyph>
    <TTGlyph name="Jcircumflex" xMin="128" yMin="0" xMax="1856" yMax="2266">
      <component glyphName="circumflex" x="896" y="410" flags="0x1004"/>
      <component glyphName="J" x="0" y="0" flags="0x1004"/>
    </TTGlyph>
    <TTGlyph name="K" xMin="192" yMin="0" xMax="1952" yMax="1536">
      <contour>
        <pt x="1632" y="1536" on="1"/>
        <pt x="1920" y="1536" on="1"/>
        <pt x="832" y="784" on="1"/>
        <pt x="1952" y="0" on="1"/>
        <pt x="1664" y="0" on="1"/>
        <pt x="640" y="704" on="1"/>
        <pt x="384" y="704" on="1"/>
        <pt x="384" y="0" on="1"/>
        <pt x="192" y="0" on="1"/>
        <pt x="192" y="1536" on="1"/>
        <pt x="384" y="1536" on="1"/>
        <pt x="384" y="864" on="1"/>
        <pt x="640" y="864" on="1"/>
      </contour>
    </TTGlyph>
    <TTGlyph name="Kcommaaccent" xMin="129" yMin="-504" xMax="1889" yMax="1536">
      <component glyphName="comma" x="816" y="-248" flags="0x1004"/>
      <component glyphName="K" x="-63" y="0" flags="0x1004"/>
    </TTGlyph>
    <TTGlyph name="L" xMin="192" yMin="0" xMax="1600" yMax="1536">
      <contour>
        <pt x="192" y="0" on="1"/>
        <pt x="192" y="1536" on="1"/>
        <pt x="384" y="1536" on="1"/>
        <pt x="384" y="160" on="1"/>
        <pt x="1600" y="160" on="1"/>
        <pt x="1600" y="0" on="1"/>
      </contour>
    </TTGlyph>
    <TTGlyph name="Lacute" xMin="192" yMin="0" xMax="1600" yMax="2266">
      <component glyphName="acute" x="704" y="410" flags="0x1004"/>
      <component glyphName="L" x="0" y="0" flags="0x1004"/>
    </TTGlyph>
    <TTGlyph name="Lcaron" xMin="192" yMin="0" xMax="1600" yMax="1568">
      <component glyphName="comma" x="703" y="1440" flags="0x1004"/>
      <component glyphName="L" x="0" y="0" flags="0x1004"/>
    </TTGlyph>
    <TTGlyph name="Lcommaaccent" xMin="192" yMin="-504" xMax="1600" yMax="1536">
      <component glyphName="comma" x="704" y="-248" flags="0x1004"/>
      <component glyphName="L" x="0" y="0" flags="0x1004"/>
    </TTGlyph>
    <TTGlyph name="Ldot" xMin="192" yMin="0" xMax="1600" yMax="1536">
      <component glyphName="periodcentered" x="672" y="-15" flags="0x1004"/>
      <component glyphName="L" x="0" y="0" flags="0x1004"/>
    </TTGlyph>
    <TTGlyph name="Lslash" xMin="64" yMin="0" xMax="1600" yMax="1536">
      <contour>
        <pt x="64" y="768" on="1"/>
        <pt x="768" y="928" on="1"/>
        <pt x="768" y="1088" on="1"/>
        <pt x="64" y="928" on="1"/>
      </contour>
      <contour>
        <pt x="1600" y="0" on="1"/>
        <pt x="1600" y="160" on="1"/>
        <pt x="384" y="160" on="1"/>
        <pt x="384" y="1536" on="1"/>
        <pt x="192" y="1536" on="1"/>
        <pt x="192" y="0" on="1"/>
      </contour>
    </TTGlyph>
    <TTGlyph name="M" xMin="192" yMin="0" xMax="2608" yMax="1536">
      <contour>
        <pt x="384" y="1408" on="1"/>
        <pt x="384" y="0" on="1"/>
        <pt x="192" y="0" on="1"/>
        <pt x="192" y="1536" on="1"/>
        <pt x="512" y="1536" on="1"/>
        <pt x="1407" y="192" on="1"/>
        <pt x="2302" y="1536" on="1"/>
        <pt x="2608" y="1536" on="1"/>
        <pt x="2608" y="0" on="1"/>
        <pt x="2416" y="0" on="1"/>
        <pt x="2416" y="1387" on="1"/>
        <pt x="1504" y="0" on="1"/>
        <pt x="1310" y="0" on="1"/>
      </contour>
    </TTGlyph>
    <TTGlyph name="N" xMin="192" yMin="0" xMax="2129" yMax="1536">
      <contour>
        <pt x="384" y="0" on="1"/>
        <pt x="192" y="0" on="1"/>
        <pt x="192" y="1536" on="1"/>
        <pt x="529" y="1536" on="1"/>
        <pt x="1937" y="192" on="1"/>
        <pt x="1937" y="1536" on="1"/>
        <pt x="2129" y="1536" on="1"/>
        <pt x="2129" y="0" on="1"/>
        <pt x="1873" y="0" on="1"/>
        <pt x="384" y="1376" on="1"/>
      </contour>
    </TTGlyph>
    <TTGlyph name="Nacute" xMin="129" yMin="0" xMax="2066" yMax="2266">
      <component glyphName="acute" x="904" y="410" flags="0x1004"/>
      <component glyphName="N" x="-63" y="0" flags="0x1004"/>
    </TTGlyph>
    <TTGlyph name="Ncaron" xMin="129" yMin="0" xMax="2066" yMax="2266">
      <component glyphName="caron" x="552" y="410" flags="0x1004"/>
      <component glyphName="N" x="-63" y="0" flags="0x1004"/>
    </TTGlyph>
    <TTGlyph name="Ncommaaccent" xMin="129" yMin="-505" xMax="2066" yMax="1536">
      <component glyphName="comma" x="904" y="-249" flags="0x1004"/>
      <component glyphName="N" x="-63" y="0" flags="0x1004"/>
    </TTGlyph>
    <TTGlyph name="Ntilde" xMin="129" yMin="0" xMax="2066" yMax="2049">
      <component glyphName="N" x="-63" y="0" flags="0x1004"/>
      <component glyphName="tilde" x="520" y="448" flags="0x1004"/>
    </TTGlyph>
    <TTGlyph name="O" xMin="128" yMin="-32" xMax="2112" yMax="1568">
      <contour>
        <pt x="1409" y="1568" on="1"/>
        <pt x="1585" y="1568" on="0"/>
        <pt x="1826" y="1525" on="0"/>
        <pt x="1982" y="1438" on="0"/>
        <pt x="2066" y="1306" on="0"/>
        <pt x="2105" y="1128" on="0"/>
        <pt x="2112" y="904" on="0"/>
        <pt x="2112" y="768" on="1"/>
        <pt x="2112" y="632" on="0"/>
        <pt x="2105" y="408" on="0"/>
        <pt x="2066" y="230" on="0"/>
        <pt x="1982" y="98" on="0"/>
        <pt x="1826" y="11" on="0"/>
        <pt x="1585" y="-32" on="0"/>
        <pt x="1409" y="-32" on="1"/>
        <pt x="831" y="-32" on="1"/>
        <pt x="655" y="-32" on="0"/>
        <pt x="414" y="11" on="0"/>
        <pt x="258" y="98" on="0"/>
        <pt x="173" y="230" on="0"/>
        <pt x="134" y="408" on="0"/>
        <pt x="128" y="632" on="0"/>
        <pt x="128" y="768" on="1"/>
        <pt x="128" y="904" on="0"/>
        <pt x="134" y="1128" on="0"/>
        <pt x="173" y="1306" on="0"/>
        <pt x="258" y="1438" on="0"/>
        <pt x="414" y="1525" on="0"/>
        <pt x="655" y="1568" on="0"/>
        <pt x="831" y="1568" on="1"/>
      </contour>
      <contour>
        <pt x="1409" y="128" on="1"/>
        <pt x="1536" y="128" on="0"/>
        <pt x="1711" y="143" on="0"/>
        <pt x="1825" y="189" on="0"/>
        <pt x="1887" y="275" on="0"/>
        <pt x="1915" y="417" on="0"/>
        <pt x="1920" y="624" on="0"/>
        <pt x="1920" y="768" on="1"/>
        <pt x="1920" y="912" on="0"/>
        <pt x="1915" y="1119" on="0"/>
        <pt x="1887" y="1261" on="0"/>
        <pt x="1825" y="1347" on="0"/>
        <pt x="1712" y="1393" on="0"/>
        <pt x="1537" y="1408" on="0"/>
        <pt x="1409" y="1408" on="1"/>
        <pt x="831" y="1408" on="1"/>
        <pt x="703" y="1408" on="0"/>
        <pt x="528" y="1393" on="0"/>
        <pt x="414" y="1347" on="0"/>
        <pt x="352" y="1261" on="0"/>
        <pt x="324" y="1119" on="0"/>
        <pt x="320" y="912" on="0"/>
        <pt x="320" y="768" on="1"/>
        <pt x="320" y="624" on="0"/>
        <pt x="325" y="417" on="0"/>
        <pt x="353" y="275" on="0"/>
        <pt x="414" y="189" on="0"/>
        <pt x="528" y="143" on="0"/>
        <pt x="703" y="128" on="0"/>
        <pt x="831" y="128" on="1"/>
      </contour>
    </TTGlyph>
    <TTGlyph name="OE" xMin="128" yMin="-32" xMax="3456" yMax="1564">
      <contour>
        <pt x="1920" y="0" on="1"/>
        <pt x="1920" y="64" on="1"/>
        <pt x="1842" y="16" on="0"/>
        <pt x="1594" y="-32" on="0"/>
        <pt x="1409" y="-32" on="1"/>
        <pt x="831" y="-32" on="1"/>
        <pt x="655" y="-32" on="0"/>
        <pt x="414" y="11" on="0"/>
        <pt x="258" y="98" on="0"/>
        <pt x="173" y="230" on="0"/>
        <pt x="134" y="408" on="0"/>
        <pt x="128" y="632" on="0"/>
        <pt x="128" y="768" on="1"/>
        <pt x="128" y="904" on="0"/>
        <pt x="134" y="1128" on="0"/>
        <pt x="173" y="1306" on="0"/>
        <pt x="258" y="1438" on="0"/>
        <pt x="414" y="1525" on="0"/>
        <pt x="655" y="1568" on="0"/>
        <pt x="831" y="1564" on="1"/>
        <pt x="1409" y="1564" on="1"/>
        <pt x="1594" y="1568" on="0"/>
        <pt x="1842" y="1520" on="0"/>
        <pt x="1920" y="1472" on="1"/>
        <pt x="1920" y="1536" on="1"/>
        <pt x="3456" y="1536" on="1"/>
        <pt x="3456" y="1376" on="1"/>
        <pt x="2112" y="1376" on="1"/>
        <pt x="2112" y="864" on="1"/>
        <pt x="3392" y="864" on="1"/>
        <pt x="3392" y="704" on="1"/>
        <pt x="2112" y="704" on="1"/>
        <pt x="2112" y="160" on="1"/>
        <pt x="3456" y="160" on="1"/>
        <pt x="3456" y="0" on="1"/>
      </contour>
      <contour>
        <pt x="1409" y="128" on="1"/>
        <pt x="1536" y="128" on="0"/>
        <pt x="1711" y="143" on="0"/>
        <pt x="1825" y="189" on="0"/>
        <pt x="1887" y="275" on="0"/>
        <pt x="1915" y="417" on="0"/>
        <pt x="1920" y="624" on="0"/>
        <pt x="1920" y="768" on="1"/>
        <pt x="1920" y="912" on="0"/>
        <pt x="1915" y="1119" on="0"/>
        <pt x="1887" y="1261" on="0"/>
        <pt x="1825" y="1347" on="0"/>
        <pt x="1712" y="1393" on="0"/>
        <pt x="1537" y="1404" on="0"/>
        <pt x="1409" y="1404" on="1"/>
        <pt x="831" y="1404" on="1"/>
        <pt x="703" y="1408" on="0"/>
        <pt x="528" y="1393" on="0"/>
        <pt x="414" y="1347" on="0"/>
        <pt x="352" y="1261" on="0"/>
        <pt x="324" y="1119" on="0"/>
        <pt x="320" y="912" on="0"/>
        <pt x="320" y="768" on="1"/>
        <pt x="320" y="624" on="0"/>
        <pt x="325" y="417" on="0"/>
        <pt x="353" y="275" on="0"/>
        <pt x="414" y="189" on="0"/>
        <pt x="528" y="143" on="0"/>
        <pt x="703" y="128" on="0"/>
        <pt x="831" y="128" on="1"/>
      </contour>
    </TTGlyph>
    <TTGlyph name="Oacute" xMin="128" yMin="-32" xMax="2112" yMax="2304">
      <component glyphName="O" x="0" y="0" flags="0x1204"/>
      <component glyphName="acute" x="639" y="448" flags="0x1004"/>
    </TTGlyph>
    <TTGlyph name="Obreve" xMin="129" yMin="-32" xMax="2113" yMax="2010">
      <component glyphName="breve" x="481" y="410" flags="0x1004"/>
      <component glyphName="O" x="1" y="0" flags="0x1004"/>
    </TTGlyph>
    <TTGlyph name="Ocircumflex" xMin="128" yMin="-32" xMax="2112" yMax="2304">
      <component glyphName="O" x="0" y="0" flags="0x1204"/>
      <component glyphName="circumflex" x="575" y="448" flags="0x1004"/>
    </TTGlyph>
    <TTGlyph name="Odieresis" xMin="128" yMin="-32" xMax="2112" yMax="1984">
      <component glyphName="O" x="0" y="0" flags="0x1204"/>
      <component glyphName="dieresis" x="575" y="448" flags="0x1004"/>
    </TTGlyph>
    <TTGlyph name="Ograve" xMin="128" yMin="-32" xMax="2112" yMax="2304">
      <component glyphName="O" x="0" y="0" flags="0x1204"/>
      <component glyphName="grave" x="639" y="448" flags="0x1004"/>
    </TTGlyph>
    <TTGlyph name="Ohungarumlaut" xMin="129" yMin="-32" xMax="2113" yMax="2266">
      <component glyphName="hungarumlaut" x="652" y="410" flags="0x1004"/>
      <component glyphName="O" x="1" y="0" flags="0x1004"/>
    </TTGlyph>
    <TTGlyph name="Omacron" xMin="129" yMin="-32" xMax="2113" yMax="1850">
      <component glyphName="macron" x="609" y="346" flags="0x1004"/>
      <component glyphName="O" x="1" y="0" flags="0x1004"/>
    </TTGlyph>
    <TTGlyph name="Omega" xMin="128" yMin="0" xMax="1344" yMax="1342">
      <contour>
        <pt x="192" y="0" on="1"/>
        <pt x="576" y="0" on="1"/>
        <pt x="576" y="224" on="1"/>
        <pt x="528" y="224" on="0"/>
        <pt x="436" y="249" on="0"/>
        <pt x="364" y="340" on="0"/>
        <pt x="320" y="518" on="0"/>
        <pt x="320" y="671" on="1"/>
        <pt x="320" y="799" on="0"/>
        <pt x="337" y="974" on="0"/>
        <pt x="376" y="1088" on="0"/>
        <pt x="440" y="1150" on="0"/>
        <pt x="532" y="1178" on="0"/>
        <pt x="656" y="1183" on="0"/>
        <pt x="736" y="1183" on="1"/>
        <pt x="816" y="1183" on="0"/>
        <pt x="940" y="1178" on="0"/>
        <pt x="1032" y="1150" on="0"/>
        <pt x="1096" y="1088" on="0"/>
        <pt x="1135" y="974" on="0"/>
        <pt x="1152" y="799" on="0"/>
        <pt x="1152" y="671" on="1"/>
        <pt x="1152" y="518" on="0"/>
        <pt x="1108" y="340" on="0"/>
        <pt x="1036" y="249" on="0"/>
        <pt x="944" y="224" on="0"/>
        <pt x="896" y="224" on="1"/>
        <pt x="896" y="0" on="1"/>
        <pt x="1280" y="0" on="1"/>
        <pt x="1280" y="160" on="1"/>
        <pt x="1088" y="160" on="1"/>
        <pt x="1149" y="182" on="0"/>
        <pt x="1244" y="263" on="0"/>
        <pt x="1310" y="387" on="0"/>
        <pt x="1344" y="558" on="0"/>
        <pt x="1344" y="671" on="1"/>
        <pt x="1344" y="801" on="0"/>
        <pt x="1319" y="1002" on="0"/>
        <pt x="1263" y="1151" on="0"/>
        <pt x="1171" y="1252" on="0"/>
        <pt x="1036" y="1315" on="0"/>
        <pt x="854" y="1342" on="0"/>
        <pt x="736" y="1342" on="1"/>
        <pt x="618" y="1342" on="0"/>
        <pt x="436" y="1315" on="0"/>
        <pt x="301" y="1252" on="0"/>
        <pt x="209" y="1151" on="0"/>
        <pt x="153" y="1002" on="0"/>
        <pt x="128" y="801" on="0"/>
        <pt x="128" y="671" on="1"/>
        <pt x="128" y="558" on="0"/>
        <pt x="162" y="387" on="0"/>
        <pt x="228" y="263" on="0"/>
        <pt x="323" y="182" on="0"/>
        <pt x="384" y="160" on="1"/>
        <pt x="192" y="160" on="1"/>
      </contour>
    </TTGlyph>
    <TTGlyph name="Oslash" xMin="129" yMin="-256" xMax="2113" yMax="1792">
      <contour>
        <pt x="1410" y="1568" on="1"/>
        <pt x="1414" y="1568" on="1"/>
        <pt x="1504" y="1792" on="1"/>
        <pt x="1664" y="1728" on="1"/>
        <pt x="1596" y="1561" on="1"/>
        <pt x="1656" y="1555" on="0"/>
        <pt x="1706" y="1546" on="1"/>
        <pt x="1827" y="1525" on="0"/>
        <pt x="1983" y="1438" on="0"/>
        <pt x="2067" y="1306" on="0"/>
        <pt x="2106" y="1128" on="0"/>
        <pt x="2113" y="904" on="0"/>
        <pt x="2113" y="768" on="1"/>
        <pt x="2113" y="632" on="0"/>
        <pt x="2106" y="408" on="0"/>
        <pt x="2067" y="230" on="0"/>
        <pt x="1983" y="98" on="0"/>
        <pt x="1827" y="11" on="0"/>
        <pt x="1586" y="-32" on="0"/>
        <pt x="1410" y="-32" on="1"/>
        <pt x="954" y="-32" on="1"/>
        <pt x="864" y="-256" on="1"/>
        <pt x="704" y="-192" on="1"/>
        <pt x="769" y="-31" on="1"/>
        <pt x="634" y="-28" on="0"/>
        <pt x="535" y="-10" on="1"/>
        <pt x="415" y="11" on="0"/>
        <pt x="259" y="98" on="0"/>
        <pt x="174" y="230" on="0"/>
        <pt x="135" y="408" on="0"/>
        <pt x="129" y="632" on="0"/>
        <pt x="129" y="768" on="1"/>
        <pt x="129" y="904" on="0"/>
        <pt x="135" y="1128" on="0"/>
        <pt x="174" y="1306" on="0"/>
        <pt x="259" y="1438" on="0"/>
        <pt x="415" y="1525" on="0"/>
        <pt x="656" y="1568" on="0"/>
        <pt x="832" y="1568" on="1"/>
      </contour>
      <contour>
        <pt x="616" y="1400" on="1"/>
        <pt x="529" y="1393" on="0"/>
        <pt x="415" y="1347" on="0"/>
        <pt x="353" y="1261" on="0"/>
        <pt x="325" y="1119" on="0"/>
        <pt x="321" y="912" on="0"/>
        <pt x="321" y="768" on="1"/>
        <pt x="321" y="624" on="0"/>
        <pt x="326" y="417" on="0"/>
        <pt x="354" y="275" on="0"/>
        <pt x="415" y="189" on="0"/>
        <pt x="529" y="143" on="0"/>
        <pt x="704" y="128" on="0"/>
        <pt x="832" y="128" on="1"/>
        <pt x="833" y="128" on="1"/>
        <pt x="1349" y="1408" on="1"/>
        <pt x="832" y="1408" on="1"/>
        <pt x="704" y="1408" on="0"/>
      </contour>
      <contour>
        <pt x="1410" y="128" on="1"/>
        <pt x="1537" y="128" on="0"/>
        <pt x="1712" y="143" on="0"/>
        <pt x="1826" y="189" on="0"/>
        <pt x="1888" y="275" on="0"/>
        <pt x="1916" y="417" on="0"/>
        <pt x="1921" y="624" on="0"/>
        <pt x="1921" y="768" on="1"/>
        <pt x="1921" y="912" on="0"/>
        <pt x="1916" y="1119" on="0"/>
        <pt x="1888" y="1261" on="0"/>
        <pt x="1826" y="1347" on="0"/>
        <pt x="1713" y="1393" on="0"/>
        <pt x="1625" y="1400" on="1"/>
        <pt x="1584" y="1404" on="0"/>
        <pt x="1534" y="1406" on="1"/>
        <pt x="1019" y="128" on="1"/>
      </contour>
    </TTGlyph>
    <TTGlyph name="Oslashacute" xMin="129" yMin="-256" xMax="2113" yMax="2490">
      <component glyphName="acute" x="929" y="634" flags="0x1004"/>
      <component glyphName="Oslash" x="0" y="0" flags="0x1004"/>
    </TTGlyph>
    <TTGlyph name="Otilde" xMin="128" yMin="-32" xMax="2112" yMax="2049">
      <component glyphName="O" x="0" y="0" flags="0x1204"/>
      <component glyphName="tilde" x="543" y="448" flags="0x1004"/>
    </TTGlyph>
    <TTGlyph name="P" xMin="192" yMin="0" xMax="1920" yMax="1536">
      <contour>
        <pt x="192" y="1536" on="1"/>
        <pt x="1346" y="1536" on="1"/>
        <pt x="1489" y="1536" on="0"/>
        <pt x="1686" y="1511" on="0"/>
        <pt x="1814" y="1461" on="0"/>
        <pt x="1883" y="1387" on="0"/>
        <pt x="1915" y="1287" on="0"/>
        <pt x="1920" y="1163" on="0"/>
        <pt x="1920" y="1088" on="1"/>
        <pt x="1920" y="1010" on="0"/>
        <pt x="1913" y="878" on="0"/>
        <pt x="1874" y="771" on="0"/>
        <pt x="1789" y="690" on="0"/>
        <pt x="1632" y="636" on="0"/>
        <pt x="1391" y="608" on="0"/>
        <pt x="1215" y="608" on="1"/>
        <pt x="384" y="608" on="1"/>
        <pt x="384" y="0" on="1"/>
        <pt x="192" y="0" on="1"/>
      </contour>
      <contour>
        <pt x="384" y="768" on="1"/>
        <pt x="1215" y="768" on="1"/>
        <pt x="1343" y="768" on="0"/>
        <pt x="1518" y="777" on="0"/>
        <pt x="1632" y="801" on="0"/>
        <pt x="1694" y="845" on="0"/>
        <pt x="1723" y="917" on="0"/>
        <pt x="1728" y="1018" on="0"/>
        <pt x="1728" y="1088" on="1"/>
        <pt x="1728" y="1153" on="0"/>
        <pt x="1723" y="1247" on="0"/>
        <pt x="1694" y="1311" on="0"/>
        <pt x="1632" y="1349" on="0"/>
        <pt x="1518" y="1370" on="0"/>
        <pt x="1343" y="1376" on="0"/>
        <pt x="1215" y="1376" on="1"/>
        <pt x="384" y="1376" on="1"/>
      </contour>
    </TTGlyph>
    <TTGlyph name="Q" xMin="129" yMin="-32" xMax="2224" yMax="1568">
      <contour>
        <pt x="832" y="1568" on="1"/>
        <pt x="656" y="1568" on="0"/>
        <pt x="415" y="1525" on="0"/>
        <pt x="259" y="1438" on="0"/>
        <pt x="174" y="1306" on="0"/>
        <pt x="135" y="1128" on="0"/>
        <pt x="129" y="904" on="0"/>
        <pt x="129" y="768" on="1"/>
        <pt x="129" y="632" on="0"/>
        <pt x="135" y="408" on="0"/>
        <pt x="174" y="230" on="0"/>
        <pt x="259" y="98" on="0"/>
        <pt x="415" y="11" on="0"/>
        <pt x="656" y="-32" on="0"/>
        <pt x="832" y="-32" on="1"/>
        <pt x="1410" y="-32" on="1"/>
        <pt x="1586" y="-32" on="0"/>
        <pt x="1827" y="11" on="0"/>
        <pt x="1983" y="98" on="0"/>
        <pt x="2025" y="164" on="1"/>
        <pt x="2027" y="167" on="0"/>
        <pt x="2028" y="170" on="1"/>
        <pt x="2144" y="96" on="1"/>
        <pt x="2224" y="224" on="1"/>
        <pt x="2085" y="313" on="1"/>
        <pt x="2086" y="316" on="0"/>
        <pt x="2086" y="319" on="1"/>
        <pt x="2106" y="408" on="0"/>
        <pt x="2113" y="632" on="0"/>
        <pt x="2113" y="768" on="1"/>
        <pt x="2113" y="904" on="0"/>
        <pt x="2106" y="1128" on="0"/>
        <pt x="2067" y="1306" on="0"/>
        <pt x="1983" y="1438" on="0"/>
        <pt x="1827" y="1525" on="0"/>
        <pt x="1586" y="1568" on="0"/>
        <pt x="1410" y="1568" on="1"/>
      </contour>
      <contour>
        <pt x="832" y="128" on="1"/>
        <pt x="704" y="128" on="0"/>
        <pt x="529" y="143" on="0"/>
        <pt x="415" y="189" on="0"/>
        <pt x="354" y="275" on="0"/>
        <pt x="326" y="417" on="0"/>
        <pt x="321" y="624" on="0"/>
        <pt x="321" y="768" on="1"/>
        <pt x="321" y="912" on="0"/>
        <pt x="325" y="1119" on="0"/>
        <pt x="353" y="1261" on="0"/>
        <pt x="415" y="1347" on="0"/>
        <pt x="529" y="1393" on="0"/>
        <pt x="704" y="1408" on="0"/>
        <pt x="832" y="1408" on="1"/>
        <pt x="1410" y="1408" on="1"/>
        <pt x="1538" y="1408" on="0"/>
        <pt x="1713" y="1393" on="0"/>
        <pt x="1826" y="1347" on="0"/>
        <pt x="1888" y="1261" on="0"/>
        <pt x="1916" y="1119" on="0"/>
        <pt x="1921" y="912" on="0"/>
        <pt x="1921" y="768" on="1"/>
        <pt x="1921" y="624" on="0"/>
        <pt x="1918" y="520" on="1"/>
        <pt x="1917" y="468" on="0"/>
        <pt x="1913" y="424" on="1"/>
        <pt x="1328" y="800" on="1"/>
        <pt x="1247" y="671" on="1"/>
        <pt x="1877" y="267" on="1"/>
        <pt x="1868" y="247" on="0"/>
        <pt x="1857" y="232" on="1"/>
        <pt x="1826" y="189" on="0"/>
        <pt x="1712" y="143" on="0"/>
        <pt x="1537" y="128" on="0"/>
        <pt x="1410" y="128" on="1"/>
      </contour>
    </TTGlyph>
    <TTGlyph name="R" xMin="192" yMin="0" xMax="1984" yMax="1536">
      <contour>
        <pt x="1952" y="0" on="1"/>
        <pt x="1760" y="0" on="1"/>
        <pt x="1760" y="288" on="1"/>
        <pt x="1760" y="358" on="0"/>
        <pt x="1755" y="459" on="0"/>
        <pt x="1726" y="531" on="0"/>
        <pt x="1664" y="575" on="0"/>
        <pt x="1550" y="599" on="0"/>
        <pt x="1375" y="608" on="0"/>
        <pt x="1247" y="608" on="1"/>
        <pt x="384" y="608" on="1"/>
        <pt x="384" y="0" on="1"/>
        <pt x="192" y="0" on="1"/>
        <pt x="192" y="1536" on="1"/>
        <pt x="1279" y="1536" on="1"/>
        <pt x="1455" y="1536" on="0"/>
        <pt x="1696" y="1511" on="0"/>
        <pt x="1853" y="1461" on="0"/>
        <pt x="1938" y="1387" on="0"/>
        <pt x="1977" y="1287" on="0"/>
        <pt x="1984" y="1163" on="0"/>
        <pt x="1984" y="1088" on="1"/>
        <pt x="1984" y="992" on="0"/>
        <pt x="1957" y="847" on="0"/>
        <pt x="1893" y="745" on="0"/>
        <pt x="1787" y="684" on="0"/>
        <pt x="1707" y="672" on="1"/>
        <pt x="1787" y="660" on="0"/>
        <pt x="1883" y="600" on="0"/>
        <pt x="1935" y="504" on="0"/>
        <pt x="1952" y="372" on="0"/>
        <pt x="1952" y="288" on="1"/>
      </contour>
      <contour>
        <pt x="384" y="768" on="1"/>
        <pt x="1279" y="768" on="1"/>
        <pt x="1407" y="768" on="0"/>
        <pt x="1582" y="777" on="0"/>
        <pt x="1696" y="801" on="0"/>
        <pt x="1758" y="845" on="0"/>
        <pt x="1787" y="917" on="0"/>
        <pt x="1792" y="1018" on="0"/>
        <pt x="1792" y="1088" on="1"/>
        <pt x="1792" y="1153" on="0"/>
        <pt x="1787" y="1247" on="0"/>
        <pt x="1758" y="1311" on="0"/>
        <pt x="1696" y="1349" on="0"/>
        <pt x="1582" y="1370" on="0"/>
        <pt x="1407" y="1376" on="0"/>
        <pt x="1279" y="1376" on="1"/>
        <pt x="384" y="1376" on="1"/>
      </contour>
    </TTGlyph>
    <TTGlyph name="Racute" xMin="192" yMin="0" xMax="1984" yMax="2266">
      <component glyphName="acute" x="544" y="410" flags="0x1004"/>
      <component glyphName="R" x="0" y="0" flags="0x1004"/>
    </TTGlyph>
    <TTGlyph name="Rcaron" xMin="192" yMin="0" xMax="1984" yMax="2266">
      <component glyphName="caron" x="192" y="410" flags="0x1004"/>
      <component glyphName="R" x="0" y="0" flags="0x1004"/>
    </TTGlyph>
    <TTGlyph name="Rcommaaccent" xMin="192" yMin="-505" xMax="1984" yMax="1536">
      <component glyphName="comma" x="880" y="-249" flags="0x1004"/>
      <component glyphName="R" x="0" y="0" flags="0x1004"/>
    </TTGlyph>
    <TTGlyph name="S" xMin="128" yMin="-36" xMax="1856" yMax="1568">
      <contour>
        <pt x="1160" y="864" on="1"/>
        <pt x="1318" y="864" on="0"/>
        <pt x="1544" y="838" on="0"/>
        <pt x="1699" y="787" on="0"/>
        <pt x="1791" y="711" on="0"/>
        <pt x="1841" y="614" on="0"/>
        <pt x="1856" y="494" on="0"/>
        <pt x="1856" y="424" on="1"/>
        <pt x="1856" y="354" on="0"/>
        <pt x="1831" y="231" on="0"/>
        <pt x="1767" y="129" on="0"/>
        <pt x="1657" y="49" on="0"/>
        <pt x="1487" y="-7" on="0"/>
        <pt x="1248" y="-36" on="0"/>
        <pt x="1088" y="-36" on="1"/>
        <pt x="832" y="-36" on="1"/>
        <pt x="688" y="-36" on="0"/>
        <pt x="472" y="-14" on="0"/>
        <pt x="316" y="31" on="0"/>
        <pt x="214" y="100" on="0"/>
        <pt x="153" y="193" on="0"/>
        <pt x="129" y="312" on="0"/>
        <pt x="129" y="384" on="1"/>
        <pt x="321" y="384" on="1"/>
        <pt x="321" y="294" on="0"/>
        <pt x="373" y="192" on="0"/>
        <pt x="493" y="141" on="0"/>
        <pt x="688" y="128" on="0"/>
        <pt x="832" y="128" on="1"/>
        <pt x="1088" y="128" on="1"/>
        <pt x="1256" y="128" on="0"/>
        <pt x="1478" y="160" on="0"/>
        <pt x="1610" y="230" on="0"/>
        <pt x="1664" y="343" on="0"/>
        <pt x="1664" y="424" on="1"/>
        <pt x="1664" y="505" on="0"/>
        <pt x="1627" y="613" on="0"/>
        <pt x="1518" y="677" on="0"/>
        <pt x="1320" y="704" on="0"/>
        <pt x="1160" y="704" on="1"/>
        <pt x="896" y="704" on="1"/>
        <pt x="720" y="704" on="0"/>
        <pt x="469" y="730" on="0"/>
        <pt x="299" y="779" on="0"/>
        <pt x="197" y="852" on="0"/>
        <pt x="144" y="946" on="0"/>
        <pt x="128" y="1061" on="0"/>
        <pt x="128" y="1128" on="1"/>
        <pt x="128" y="1198" on="0"/>
        <pt x="153" y="1318" on="0"/>
        <pt x="221" y="1415" on="0"/>
        <pt x="339" y="1491" on="0"/>
        <pt x="524" y="1542" on="0"/>
        <pt x="784" y="1568" on="0"/>
        <pt x="960" y="1568" on="1"/>
        <pt x="1152" y="1568" on="1"/>
        <pt x="1296" y="1568" on="0"/>
        <pt x="1512" y="1547" on="0"/>
        <pt x="1668" y="1502" on="0"/>
        <pt x="1771" y="1435" on="0"/>
        <pt x="1832" y="1342" on="0"/>
        <pt x="1856" y="1224" on="0"/>
        <pt x="1856" y="1152" on="1"/>
        <pt x="1664" y="1152" on="1"/>
        <pt x="1664" y="1242" on="0"/>
        <pt x="1612" y="1344" on="0"/>
        <pt x="1492" y="1395" on="0"/>
        <pt x="1296" y="1408" on="0"/>
        <pt x="1152" y="1408" on="1"/>
        <pt x="960" y="1408" on="1"/>
        <pt x="768" y="1408" on="0"/>
        <pt x="520" y="1381" on="0"/>
        <pt x="376" y="1317" on="0"/>
        <pt x="320" y="1209" on="0"/>
        <pt x="320" y="1128" on="1"/>
        <pt x="320" y="1078" on="0"/>
        <pt x="334" y="1000" on="0"/>
        <pt x="377" y="941" on="0"/>
        <pt x="455" y="901" on="0"/>
        <pt x="583" y="875" on="0"/>
        <pt x="768" y="864" on="0"/>
        <pt x="896" y="864" on="1"/>
      </contour>
    </TTGlyph>
    <TTGlyph name="Sacute" xMin="128" yMin="-36" xMax="1856" yMax="2266">
      <component glyphName="acute" x="864" y="410" flags="0x1004"/>
      <component glyphName="S" x="0" y="0" flags="0x1004"/>
    </TTGlyph>
    <TTGlyph name="Scaron" xMin="128" yMin="-36" xMax="1856" yMax="2304">
      <component glyphName="S" x="0" y="0" flags="0x1204"/>
      <component glyphName="caron" x="448" y="448" flags="0x1004"/>
    </TTGlyph>
    <TTGlyph name="Scedilla" xMin="128" yMin="-622" xMax="1856" yMax="1568">
      <component glyphName="cedilla" x="768" y="-78" flags="0x1004"/>
      <component glyphName="S" x="0" y="0" flags="0x1004"/>
    </TTGlyph>
    <TTGlyph name="Scircumflex" xMin="128" yMin="-36" xMax="1856" yMax="2266">
      <component glyphName="circumflex" x="512" y="410" flags="0x1004"/>
      <component glyphName="S" x="0" y="0" flags="0x1004"/>
    </TTGlyph>
    <TTGlyph name="T" xMin="128" yMin="0" xMax="1856" yMax="1536">
      <contour>
        <pt x="1856" y="1536" on="1"/>
        <pt x="1856" y="1376" on="1"/>
        <pt x="1088" y="1376" on="1"/>
        <pt x="1088" y="0" on="1"/>
        <pt x="896" y="0" on="1"/>
        <pt x="896" y="1376" on="1"/>
        <pt x="128" y="1376" on="1"/>
        <pt x="128" y="1536" on="1"/>
      </contour>
    </TTGlyph>
    <TTGlyph name="Tbar" xMin="128" yMin="0" xMax="1856" yMax="1536">
      <component glyphName="T" x="0" y="0" flags="0x1204"/>
      <component glyphName="hyphen" x="477" y="0" flags="0x1004"/>
    </TTGlyph>
    <TTGlyph name="Tcaron" xMin="128" yMin="0" xMax="1856" yMax="2266">
      <component glyphName="caron" x="448" y="410" flags="0x1004"/>
      <component glyphName="T" x="0" y="0" flags="0x1004"/>
    </TTGlyph>
    <TTGlyph name="Tcommaaccent" xMin="128" yMin="-587" xMax="1856" yMax="1536">
      <component glyphName="cedilla" x="800" y="-43" flags="0x1004"/>
      <component glyphName="T" x="0" y="0" flags="0x1004"/>
    </TTGlyph>
    <TTGlyph name="Thorn" xMin="128" yMin="0" xMax="1856" yMax="1536">
      <contour>
        <pt x="128" y="0" on="1"/>
        <pt x="320" y="0" on="1"/>
        <pt x="320" y="416" on="1"/>
        <pt x="1151" y="416" on="1"/>
        <pt x="1327" y="416" on="0"/>
        <pt x="1568" y="444" on="0"/>
        <pt x="1725" y="498" on="0"/>
        <pt x="1810" y="579" on="0"/>
        <pt x="1849" y="686" on="0"/>
        <pt x="1856" y="818" on="0"/>
        <pt x="1856" y="896" on="1"/>
        <pt x="1856" y="971" on="0"/>
        <pt x="1851" y="1095" on="0"/>
        <pt x="1819" y="1195" on="0"/>
        <pt x="1750" y="1269" on="0"/>
        <pt x="1622" y="1319" on="0"/>
        <pt x="1425" y="1344" on="0"/>
        <pt x="1282" y="1344" on="1"/>
        <pt x="320" y="1344" on="1"/>
        <pt x="320" y="1536" on="1"/>
        <pt x="128" y="1536" on="1"/>
      </contour>
      <contour>
        <pt x="320" y="1184" on="1"/>
        <pt x="1151" y="1184" on="1"/>
        <pt x="1279" y="1184" on="0"/>
        <pt x="1454" y="1178" on="0"/>
        <pt x="1568" y="1157" on="0"/>
        <pt x="1630" y="1119" on="0"/>
        <pt x="1659" y="1055" on="0"/>
        <pt x="1664" y="961" on="0"/>
        <pt x="1664" y="896" on="1"/>
        <pt x="1664" y="826" on="0"/>
        <pt x="1659" y="725" on="0"/>
        <pt x="1630" y="653" on="0"/>
        <pt x="1568" y="609" on="0"/>
        <pt x="1454" y="585" on="0"/>
        <pt x="1279" y="576" on="0"/>
        <pt x="1151" y="576" on="1"/>
        <pt x="320" y="576" on="1"/>
      </contour>
    </TTGlyph>
    <TTGlyph name="U" xMin="129" yMin="-32" xMax="1985" yMax="1536">
      <contour>
        <pt x="1985" y="1536" on="1"/>
        <pt x="1985" y="768" on="1"/>
        <pt x="1985" y="632" on="0"/>
        <pt x="1978" y="408" on="0"/>
        <pt x="1939" y="230" on="0"/>
        <pt x="1855" y="98" on="0"/>
        <pt x="1699" y="11" on="0"/>
        <pt x="1458" y="-32" on="0"/>
        <pt x="1282" y="-32" on="1"/>
        <pt x="832" y="-32" on="1"/>
        <pt x="656" y="-32" on="0"/>
        <pt x="415" y="11" on="0"/>
        <pt x="259" y="98" on="0"/>
        <pt x="174" y="230" on="0"/>
        <pt x="135" y="408" on="0"/>
        <pt x="129" y="632" on="0"/>
        <pt x="129" y="768" on="1"/>
        <pt x="129" y="1536" on="1"/>
        <pt x="321" y="1536" on="1"/>
        <pt x="321" y="768" on="1"/>
        <pt x="321" y="624" on="0"/>
        <pt x="326" y="417" on="0"/>
        <pt x="354" y="275" on="0"/>
        <pt x="415" y="189" on="0"/>
        <pt x="529" y="143" on="0"/>
        <pt x="704" y="128" on="0"/>
        <pt x="832" y="128" on="1"/>
        <pt x="1282" y="128" on="1"/>
        <pt x="1409" y="128" on="0"/>
        <pt x="1585" y="143" on="0"/>
        <pt x="1698" y="189" on="0"/>
        <pt x="1760" y="275" on="0"/>
        <pt x="1789" y="417" on="0"/>
        <pt x="1793" y="624" on="0"/>
        <pt x="1793" y="768" on="1"/>
        <pt x="1792" y="1536" on="1"/>
      </contour>
    </TTGlyph>
    <TTGlyph name="Uacute" xMin="129" yMin="-32" xMax="1985" yMax="2304">
      <component glyphName="U" x="0" y="0" flags="0x1204"/>
      <component glyphName="acute" x="576" y="448" flags="0x1004"/>
    </TTGlyph>
    <TTGlyph name="Ubreve" xMin="129" yMin="-32" xMax="1985" yMax="2010">
      <component glyphName="breve" x="417" y="410" flags="0x1004"/>
      <component glyphName="U" x="0" y="0" flags="0x1004"/>
    </TTGlyph>
    <TTGlyph name="Ucircumflex" xMin="129" yMin="-32" xMax="1985" yMax="2304">
      <component glyphName="U" x="0" y="0" flags="0x1204"/>
      <component glyphName="circumflex" x="512" y="448" flags="0x1004"/>
    </TTGlyph>
    <TTGlyph name="Udieresis" xMin="129" yMin="-32" xMax="1985" yMax="1984">
      <component glyphName="U" x="0" y="0" flags="0x1204"/>
      <component glyphName="dieresis" x="512" y="448" flags="0x1004"/>
    </TTGlyph>
    <TTGlyph name="Ugrave" xMin="129" yMin="-32" xMax="1985" yMax="2304">
      <component glyphName="U" x="0" y="0" flags="0x1204"/>
      <component glyphName="grave" x="576" y="448" flags="0x1004"/>
    </TTGlyph>
    <TTGlyph name="Uhungarumlaut" xMin="129" yMin="-32" xMax="1985" yMax="2266">
      <component glyphName="hungarumlaut" x="588" y="410" flags="0x1004"/>
      <component glyphName="U" x="0" y="0" flags="0x1004"/>
    </TTGlyph>
    <TTGlyph name="Umacron" xMin="129" yMin="-32" xMax="1985" yMax="1850">
      <component glyphName="macron" x="545" y="346" flags="0x1004"/>
      <component glyphName="U" x="0" y="0" flags="0x1004"/>
    </TTGlyph>
    <TTGlyph name="Uogonek" xMin="129" yMin="-587" xMax="1985" yMax="1536">
      <component glyphName="ogonek" x="609" y="-75" flags="0x1004"/>
      <component glyphName="U" x="0" y="0" flags="0x1004"/>
    </TTGlyph>
    <TTGlyph name="Uring" xMin="129" yMin="-32" xMax="1985" yMax="2330">
      <component glyphName="ring" x="417" y="410" flags="0x1004"/>
      <component glyphName="U" x="0" y="0" flags="0x1004"/>
    </TTGlyph>
    <TTGlyph name="Utilde" xMin="129" yMin="-32" xMax="1985" yMax="1947">
      <component glyphName="tilde" x="481" y="346" flags="0x1004"/>
      <component glyphName="U" x="0" y="0" flags="0x1004"/>
    </TTGlyph>
    <TTGlyph name="V" xMin="64" yMin="0" xMax="1984" yMax="1536">
      <contour>
        <pt x="1760" y="1536" on="1"/>
        <pt x="1984" y="1536" on="1"/>
        <pt x="1152" y="0" on="1"/>
        <pt x="896" y="0" on="1"/>
        <pt x="64" y="1536" on="1"/>
        <pt x="288" y="1536" on="1"/>
        <pt x="1024" y="128" on="1"/>
      </contour>
    </TTGlyph>
    <TTGlyph name="W" xMin="64" yMin="0" xMax="3264" yMax="1536">
      <contour>
        <pt x="1584" y="1536" on="1"/>
        <pt x="1808" y="1536" on="1"/>
        <pt x="2432" y="160" on="1"/>
        <pt x="3040" y="1536" on="1"/>
        <pt x="3264" y="1536" on="1"/>
        <pt x="2560" y="0" on="1"/>
        <pt x="2304" y="0" on="1"/>
        <pt x="1696" y="1344" on="1"/>
        <pt x="1088" y="0" on="1"/>
        <pt x="832" y="0" on="1"/>
        <pt x="64" y="1536" on="1"/>
        <pt x="288" y="1536" on="1"/>
        <pt x="960" y="160" on="1"/>
      </contour>
    </TTGlyph>
    <TTGlyph name="Wcircumflex" xMin="128" yMin="0" xMax="3328" yMax="2266">
      <component glyphName="circumflex" x="1184" y="410" flags="0x1004"/>
      <component glyphName="W" x="64" y="0" flags="0x1004"/>
    </TTGlyph>
    <TTGlyph name="X" xMin="64" yMin="0" xMax="2112" yMax="1536">
      <contour>
        <pt x="1209" y="810" on="1"/>
        <pt x="2112" y="0" on="1"/>
        <pt x="1840" y="0" on="1"/>
        <pt x="1075" y="686" on="1"/>
        <pt x="336" y="0" on="1"/>
        <pt x="64" y="0" on="1"/>
        <pt x="937" y="810" on="1"/>
        <pt x="128" y="1536" on="1"/>
        <pt x="400" y="1536" on="1"/>
        <pt x="1070" y="934" on="1"/>
        <pt x="1719" y="1536" on="1"/>
        <pt x="1991" y="1536" on="1"/>
      </contour>
    </TTGlyph>
    <TTGlyph name="Y" xMin="128" yMin="0" xMax="2048" yMax="1536">
      <contour>
        <pt x="128" y="1536" on="1"/>
        <pt x="384" y="1536" on="1"/>
        <pt x="1088" y="784" on="1"/>
        <pt x="1792" y="1536" on="1"/>
        <pt x="2048" y="1536" on="1"/>
        <pt x="1184" y="640" on="1"/>
        <pt x="1184" y="0" on="1"/>
        <pt x="992" y="0" on="1"/>
        <pt x="992" y="640" on="1"/>
      </contour>
    </TTGlyph>
    <TTGlyph name="Yacute" xMin="128" yMin="0" xMax="2048" yMax="2304">
      <component glyphName="Y" x="0" y="0" flags="0x1004"/>
      <component glyphName="acute" x="620" y="448" flags="0x1004"/>
    </TTGlyph>
    <TTGlyph name="Ycircumflex" xMin="128" yMin="0" xMax="2048" yMax="2266">
      <component glyphName="circumflex" x="544" y="410" flags="0x1004"/>
      <component glyphName="Y" x="0" y="0" flags="0x1004"/>
    </TTGlyph>
    <TTGlyph name="Ydieresis" xMin="128" yMin="0" xMax="2048" yMax="1984">
      <component glyphName="Y" x="0" y="0" flags="0x1204"/>
      <component glyphName="dieresis" x="556" y="448" flags="0x1004"/>
    </TTGlyph>
    <TTGlyph name="Z" xMin="128" yMin="0" xMax="1920" yMax="1536">
      <contour>
        <pt x="128" y="0" on="1"/>
        <pt x="128" y="160" on="1"/>
        <pt x="1614" y="1376" on="1"/>
        <pt x="192" y="1376" on="1"/>
        <pt x="192" y="1536" on="1"/>
        <pt x="1888" y="1536" on="1"/>
        <pt x="1888" y="1376" on="1"/>
        <pt x="394" y="160" on="1"/>
        <pt x="1920" y="160" on="1"/>
        <pt x="1920" y="0" on="1"/>
      </contour>
    </TTGlyph>
    <TTGlyph name="Zacute" xMin="128" yMin="0" xMax="1920" yMax="2266">
      <component glyphName="acute" x="848" y="410" flags="0x1004"/>
      <component glyphName="Z" x="0" y="0" flags="0x1004"/>
    </TTGlyph>
    <TTGlyph name="Zcaron" xMin="128" yMin="0" xMax="1920" yMax="2304">
      <component glyphName="Z" x="0" y="0" flags="0x1204"/>
      <component glyphName="caron" x="479" y="448" flags="0x1004"/>
    </TTGlyph>
    <TTGlyph name="Zdotaccent" xMin="128" yMin="0" xMax="1920" yMax="1882">
      <component glyphName="dotaccent" x="816" y="346" flags="0x1004"/>
      <component glyphName="Z" x="0" y="0" flags="0x1004"/>
    </TTGlyph>
    <TTGlyph name="a" xMin="123" yMin="-24" xMax="1467" yMax="1184">
      <contour>
        <pt x="1275" y="158" on="1"/>
        <pt x="1272" y="146" on="0"/>
        <pt x="1230" y="98" on="1"/>
        <pt x="1200" y="62" on="0"/>
        <pt x="1100" y="7" on="0"/>
        <pt x="933" y="-24" on="0"/>
        <pt x="797" y="-24" on="1"/>
        <pt x="616" y="-24" on="0"/>
        <pt x="360" y="13" on="0"/>
        <pt x="198" y="90" on="0"/>
        <pt x="123" y="210" on="0"/>
        <pt x="123" y="293" on="1"/>
        <pt x="123" y="380" on="0"/>
        <pt x="164" y="501" on="0"/>
        <pt x="243" y="583" on="0"/>
        <pt x="355" y="629" on="0"/>
        <pt x="498" y="653" on="0"/>
        <pt x="668" y="659" on="0"/>
        <pt x="764" y="659" on="1"/>
        <pt x="901" y="659" on="0"/>
        <pt x="1085" y="636" on="0"/>
        <pt x="1202" y="601" on="0"/>
        <pt x="1262" y="561" on="0"/>
        <pt x="1275" y="544" on="1"/>
        <pt x="1275" y="656" on="0"/>
        <pt x="1256" y="814" on="0"/>
        <pt x="1213" y="920" on="0"/>
        <pt x="1145" y="983" on="0"/>
        <pt x="1046" y="1015" on="0"/>
        <pt x="914" y="1024" on="0"/>
        <pt x="829" y="1024" on="1"/>
        <pt x="697" y="1024" on="0"/>
        <pt x="523" y="1011" on="0"/>
        <pt x="421" y="973" on="0"/>
        <pt x="379" y="906" on="0"/>
        <pt x="379" y="852" on="1"/>
        <pt x="187" y="852" on="1"/>
        <pt x="187" y="943" on="0"/>
        <pt x="252" y="1069" on="0"/>
        <pt x="403" y="1148" on="0"/>
        <pt x="649" y="1184" on="0"/>
        <pt x="829" y="1184" on="1"/>
        <pt x="1005" y="1184" on="0"/>
        <pt x="1249" y="1126" on="0"/>
        <pt x="1400" y="980" on="0"/>
        <pt x="1467" y="733" on="0"/>
        <pt x="1467" y="544" on="1"/>
        <pt x="1467" y="0" on="1"/>
        <pt x="1275" y="0" on="1"/>
      </contour>
      <contour>
        <pt x="829" y="128" on="1"/>
        <pt x="956" y="128" on="0"/>
        <pt x="1127" y="152" on="0"/>
        <pt x="1231" y="200" on="0"/>
        <pt x="1275" y="272" on="0"/>
        <pt x="1275" y="320" on="1"/>
        <pt x="1275" y="368" on="0"/>
        <pt x="1224" y="435" on="0"/>
        <pt x="1105" y="477" on="0"/>
        <pt x="909" y="496" on="0"/>
        <pt x="765" y="496" on="1"/>
        <pt x="621" y="496" on="0"/>
        <pt x="444" y="486" on="0"/>
        <pt x="348" y="450" on="0"/>
        <pt x="315" y="380" on="0"/>
        <pt x="315" y="320" on="1"/>
        <pt x="315" y="260" on="0"/>
        <pt x="350" y="185" on="0"/>
        <pt x="458" y="143" on="0"/>
        <pt x="661" y="128" on="0"/>
      </contour>
    </TTGlyph>
    <TTGlyph name="aacute" xMin="128" yMin="-24" xMax="1472" yMax="1856">
      <component glyphName="a" x="5" y="0" flags="0x1004"/>
      <component glyphName="acute" x="320" y="0" flags="0x1004"/>
    </TTGlyph>
    <TTGlyph name="acircumflex" xMin="128" yMin="-24" xMax="1472" yMax="1856">
      <component glyphName="a" x="5" y="0" flags="0x1004"/>
      <component glyphName="circumflex" x="256" y="0" flags="0x1004"/>
    </TTGlyph>
    <TTGlyph name="acute" xMin="128" yMin="1280" xMax="832" yMax="1856">
      <contour>
        <pt x="832" y="1664" on="1"/>
        <pt x="704" y="1856" on="1"/>
        <pt x="128" y="1376" on="1"/>
        <pt x="192" y="1280" on="1"/>
      </contour>
    </TTGlyph>
    <TTGlyph name="adieresis" xMin="128" yMin="-24" xMax="1472" yMax="1536">
      <component glyphName="a" x="5" y="0" flags="0x1004"/>
      <component glyphName="dieresis" x="256" y="0" flags="0x1004"/>
    </TTGlyph>
    <TTGlyph name="ae" xMin="128" yMin="-36" xMax="2624" yMax="1120">
      <contour>
        <pt x="1984" y="-32" on="1"/>
        <pt x="1869" y="-32" on="0"/>
        <pt x="1682" y="-14" on="0"/>
        <pt x="1533" y="28" on="0"/>
        <pt x="1421" y="95" on="0"/>
        <pt x="1382" y="145" on="1"/>
        <pt x="1354" y="108" on="0"/>
        <pt x="1309" y="78" on="1"/>
        <pt x="1277" y="57" on="0"/>
        <pt x="1187" y="16" on="0"/>
        <pt x="1064" y="-16" on="0"/>
        <pt x="904" y="-36" on="0"/>
        <pt x="802" y="-36" on="1"/>
        <pt x="621" y="-36" on="0"/>
        <pt x="365" y="2" on="0"/>
        <pt x="203" y="83" on="0"/>
        <pt x="128" y="207" on="0"/>
        <pt x="128" y="293" on="1"/>
        <pt x="128" y="380" on="0"/>
        <pt x="169" y="501" on="0"/>
        <pt x="248" y="583" on="0"/>
        <pt x="360" y="629" on="0"/>
        <pt x="503" y="653" on="0"/>
        <pt x="673" y="659" on="0"/>
        <pt x="769" y="659" on="1"/>
        <pt x="853" y="659" on="0"/>
        <pt x="986" y="649" on="0"/>
        <pt x="1090" y="633" on="0"/>
        <pt x="1166" y="612" on="0"/>
        <pt x="1193" y="601" on="1"/>
        <pt x="1256" y="575" on="0"/>
        <pt x="1280" y="544" on="1"/>
        <pt x="1280" y="640" on="0"/>
        <pt x="1261" y="776" on="0"/>
        <pt x="1218" y="869" on="0"/>
        <pt x="1150" y="923" on="0"/>
        <pt x="1051" y="952" on="0"/>
        <pt x="919" y="960" on="0"/>
        <pt x="834" y="960" on="1"/>
        <pt x="702" y="960" on="0"/>
        <pt x="528" y="945" on="0"/>
        <pt x="426" y="903" on="0"/>
        <pt x="384" y="828" on="0"/>
        <pt x="384" y="768" on="1"/>
        <pt x="192" y="768" on="1"/>
        <pt x="192" y="864" on="0"/>
        <pt x="257" y="998" on="0"/>
        <pt x="408" y="1082" on="0"/>
        <pt x="654" y="1120" on="0"/>
        <pt x="834" y="1120" on="1"/>
        <pt x="939" y="1120" on="0"/>
        <pt x="1108" y="1104" on="0"/>
        <pt x="1242" y="1056" on="0"/>
        <pt x="1344" y="968" on="0"/>
        <pt x="1382" y="896" on="1"/>
        <pt x="1416" y="968" on="0"/>
        <pt x="1526" y="1056" on="0"/>
        <pt x="1678" y="1104" on="0"/>
        <pt x="1869" y="1120" on="0"/>
        <pt x="1984" y="1120" on="1"/>
        <pt x="2121" y="1120" on="0"/>
        <pt x="2322" y="1083" on="0"/>
        <pt x="2465" y="1015" on="0"/>
        <pt x="2554" y="917" on="0"/>
        <pt x="2605" y="797" on="0"/>
        <pt x="2624" y="655" on="0"/>
        <pt x="2624" y="576" on="1"/>
        <pt x="2608" y="512" on="1"/>
        <pt x="1472" y="512" on="1"/>
        <pt x="1472" y="486" on="1"/>
        <pt x="1474" y="363" on="0"/>
        <pt x="1529" y="220" on="0"/>
        <pt x="1650" y="148" on="0"/>
        <pt x="1843" y="128" on="0"/>
        <pt x="1984" y="128" on="1"/>
        <pt x="2116" y="128" on="0"/>
        <pt x="2289" y="143" on="0"/>
        <pt x="2391" y="185" on="0"/>
        <pt x="2432" y="260" on="0"/>
        <pt x="2432" y="320" on="1"/>
        <pt x="2624" y="320" on="1"/>
        <pt x="2624" y="224" on="0"/>
        <pt x="2559" y="90" on="0"/>
        <pt x="2409" y="6" on="0"/>
        <pt x="2164" y="-32" on="0"/>
      </contour>
      <contour>
        <pt x="834" y="128" on="1"/>
        <pt x="961" y="128" on="0"/>
        <pt x="1132" y="152" on="0"/>
        <pt x="1236" y="200" on="0"/>
        <pt x="1280" y="272" on="0"/>
        <pt x="1280" y="320" on="1"/>
        <pt x="1280" y="368" on="0"/>
        <pt x="1229" y="435" on="0"/>
        <pt x="1110" y="477" on="0"/>
        <pt x="914" y="496" on="0"/>
        <pt x="770" y="496" on="1"/>
        <pt x="626" y="496" on="0"/>
        <pt x="449" y="486" on="0"/>
        <pt x="353" y="450" on="0"/>
        <pt x="320" y="380" on="0"/>
        <pt x="320" y="320" on="1"/>
        <pt x="320" y="260" on="0"/>
        <pt x="355" y="185" on="0"/>
        <pt x="463" y="143" on="0"/>
        <pt x="666" y="128" on="0"/>
      </contour>
      <contour>
        <pt x="1984" y="960" on="1"/>
        <pt x="1840" y="960" on="0"/>
        <pt x="1644" y="941" on="0"/>
        <pt x="1524" y="875" on="0"/>
        <pt x="1472" y="748" on="0"/>
        <pt x="1472" y="640" on="1"/>
        <pt x="2432" y="640" on="1"/>
        <pt x="2432" y="736" on="0"/>
        <pt x="2382" y="860" on="0"/>
        <pt x="2274" y="932" on="0"/>
        <pt x="2104" y="960" on="0"/>
      </contour>
    </TTGlyph>
    <TTGlyph name="aeacute" xMin="128" yMin="-24" xMax="3072" yMax="1819">
      <component glyphName="acute" x="1441" y="-37" flags="0x1004"/>
      <component glyphName="a" x="5" y="0" flags="0x1004"/>
      <component glyphName="e" x="1632" y="0" flags="0x1004"/>
    </TTGlyph>
    <TTGlyph name="agrave" xMin="128" yMin="-24" xMax="1472" yMax="1856">
      <component glyphName="a" x="5" y="0" flags="0x1004"/>
      <component glyphName="grave" x="320" y="0" flags="0x1004"/>
    </TTGlyph>
    <TTGlyph name="amacron" xMin="128" yMin="-24" xMax="1472" yMax="1404">
      <component glyphName="macron" x="322" y="-100" flags="0x1004"/>
      <component glyphName="a" x="5" y="0" flags="0x1004"/>
    </TTGlyph>
    <TTGlyph name="ampersand" xMin="128" yMin="0" xMax="2304" yMax="1569">
      <contour>
        <pt x="1760" y="768" on="1"/>
        <pt x="1952" y="768" on="1"/>
        <pt x="1952" y="704" on="1"/>
        <pt x="1952" y="550" on="0"/>
        <pt x="1931" y="326" on="0"/>
        <pt x="1867" y="170" on="0"/>
        <pt x="1749" y="73" on="0"/>
        <pt x="1557" y="19" on="0"/>
        <pt x="1280" y="0" on="0"/>
        <pt x="1088" y="0" on="1"/>
        <pt x="912" y="0" on="0"/>
        <pt x="633" y="5" on="0"/>
        <pt x="420" y="33" on="0"/>
        <pt x="268" y="95" on="0"/>
        <pt x="172" y="209" on="0"/>
        <pt x="128" y="384" on="0"/>
        <pt x="128" y="512" on="1"/>
        <pt x="128" y="608" on="0"/>
        <pt x="171" y="749" on="0"/>
        <pt x="239" y="849" on="0"/>
        <pt x="321" y="911" on="0"/>
        <pt x="399" y="947" on="0"/>
        <pt x="464" y="960" on="0"/>
        <pt x="480" y="960" on="1"/>
        <pt x="444" y="984" on="0"/>
        <pt x="385" y="1034" on="0"/>
        <pt x="343" y="1094" on="0"/>
        <pt x="320" y="1168" on="0"/>
        <pt x="320" y="1216" on="1"/>
        <pt x="320" y="1312" on="0"/>
        <pt x="383" y="1439" on="0"/>
        <pt x="490" y="1517" on="0"/>
        <pt x="631" y="1555" on="0"/>
        <pt x="787" y="1569" on="0"/>
        <pt x="949" y="1568" on="0"/>
        <pt x="1024" y="1568" on="1"/>
        <pt x="1184" y="1568" on="0"/>
        <pt x="1423" y="1559" on="0"/>
        <pt x="1593" y="1529" on="0"/>
        <pt x="1703" y="1471" on="0"/>
        <pt x="1767" y="1371" on="0"/>
        <pt x="1792" y="1224" on="0"/>
        <pt x="1792" y="1120" on="1"/>
        <pt x="1600" y="1120" on="1"/>
        <pt x="1600" y="1192" on="0"/>
        <pt x="1586" y="1291" on="0"/>
        <pt x="1543" y="1355" on="0"/>
        <pt x="1465" y="1389" on="0"/>
        <pt x="1337" y="1405" on="0"/>
        <pt x="1152" y="1408" on="0"/>
        <pt x="1024" y="1408" on="1"/>
        <pt x="880" y="1408" on="0"/>
        <pt x="684" y="1402" on="0"/>
        <pt x="564" y="1366" on="0"/>
        <pt x="512" y="1288" on="0"/>
        <pt x="512" y="1216" on="1"/>
        <pt x="512" y="1190" on="0"/>
        <pt x="528" y="1141" on="0"/>
        <pt x="565" y="1093" on="0"/>
        <pt x="626" y="1047" on="0"/>
        <pt x="672" y="1024" on="1"/>
        <pt x="2304" y="192" on="1"/>
        <pt x="2240" y="32" on="1"/>
        <pt x="640" y="833" on="1"/>
        <pt x="568" y="833" on="0"/>
        <pt x="450" y="797" on="0"/>
        <pt x="366" y="720" on="0"/>
        <pt x="320" y="598" on="0"/>
        <pt x="320" y="512" on="1"/>
        <pt x="320" y="432" on="0"/>
        <pt x="345" y="322" on="0"/>
        <pt x="409" y="251" on="0"/>
        <pt x="519" y="213" on="0"/>
        <pt x="690" y="195" on="0"/>
        <pt x="928" y="192" on="0"/>
        <pt x="1088" y="192" on="1"/>
        <pt x="1216" y="192" on="0"/>
        <pt x="1415" y="195" on="0"/>
        <pt x="1564" y="212" on="0"/>
        <pt x="1667" y="250" on="0"/>
        <pt x="1731" y="321" on="0"/>
        <pt x="1760" y="431" on="0"/>
        <pt x="1760" y="512" on="1"/>
      </contour>
    </TTGlyph>
    <TTGlyph name="aogonek" xMin="128" yMin="-572" xMax="1472" yMax="1184">
      <component glyphName="ogonek" x="901" y="-60" flags="0x1004"/>
      <component glyphName="a" x="5" y="0" flags="0x1004"/>
    </TTGlyph>
    <TTGlyph name="approxequal" xMin="128" yMin="447" xMax="1024" yMax="1088">
      <contour>
        <pt x="384" y="543" on="1"/>
        <pt x="368" y="543" on="0"/>
        <pt x="344" y="536" on="0"/>
        <pt x="328" y="516" on="0"/>
        <pt x="320" y="478" on="0"/>
        <pt x="320" y="447" on="1"/>
        <pt x="128" y="447" on="1"/>
        <pt x="128" y="523" on="0"/>
        <pt x="181" y="623" on="0"/>
        <pt x="259" y="680" on="0"/>
        <pt x="348" y="703" on="0"/>
        <pt x="384" y="703" on="1"/>
        <pt x="456" y="703" on="0"/>
        <pt x="560" y="673" on="0"/>
        <pt x="646" y="637" on="0"/>
        <pt x="723" y="607" on="0"/>
        <pt x="768" y="607" on="1"/>
        <pt x="784" y="607" on="0"/>
        <pt x="808" y="614" on="0"/>
        <pt x="824" y="635" on="0"/>
        <pt x="832" y="673" on="0"/>
        <pt x="832" y="703" on="1"/>
        <pt x="1024" y="703" on="1"/>
        <pt x="1024" y="629" on="0"/>
        <pt x="971" y="531" on="0"/>
        <pt x="893" y="472" on="0"/>
        <pt x="804" y="447" on="0"/>
        <pt x="768" y="447" on="1"/>
        <pt x="696" y="447" on="0"/>
        <pt x="592" y="477" on="0"/>
        <pt x="506" y="513" on="0"/>
        <pt x="429" y="543" on="0"/>
      </contour>
      <contour>
        <pt x="384" y="928" on="1"/>
        <pt x="368" y="928" on="0"/>
        <pt x="344" y="921" on="0"/>
        <pt x="328" y="901" on="0"/>
        <pt x="320" y="863" on="0"/>
        <pt x="320" y="832" on="1"/>
        <pt x="128" y="832" on="1"/>
        <pt x="128" y="908" on="0"/>
        <pt x="181" y="1008" on="0"/>
        <pt x="259" y="1065" on="0"/>
        <pt x="348" y="1088" on="0"/>
        <pt x="384" y="1088" on="1"/>
        <pt x="456" y="1088" on="0"/>
        <pt x="560" y="1058" on="0"/>
        <pt x="646" y="1022" on="0"/>
        <pt x="723" y="992" on="0"/>
        <pt x="768" y="992" on="1"/>
        <pt x="784" y="992" on="0"/>
        <pt x="808" y="999" on="0"/>
        <pt x="824" y="1020" on="0"/>
        <pt x="832" y="1058" on="0"/>
        <pt x="832" y="1088" on="1"/>
        <pt x="1024" y="1088" on="1"/>
        <pt x="1024" y="1014" on="0"/>
        <pt x="971" y="916" on="0"/>
        <pt x="893" y="857" on="0"/>
        <pt x="804" y="832" on="0"/>
        <pt x="768" y="832" on="1"/>
        <pt x="696" y="832" on="0"/>
        <pt x="592" y="862" on="0"/>
        <pt x="506" y="898" on="0"/>
        <pt x="429" y="928" on="0"/>
      </contour>
    </TTGlyph>
    <TTGlyph name="aring" xMin="128" yMin="-24" xMax="1472" yMax="1920">
      <component glyphName="a" x="5" y="0" flags="0x1004"/>
      <component glyphName="ring" x="160" y="0" flags="0x1004"/>
    </TTGlyph>
    <TTGlyph name="aringacute" xMin="128" yMin="-24" xMax="1472" yMax="2618">
      <component glyphName="acute" x="608" y="762" flags="0x1004"/>
      <component glyphName="a" x="5" y="0" flags="0x1004"/>
      <component glyphName="ring" x="160" y="0" flags="0x1004"/>
    </TTGlyph>
    <TTGlyph name="asciicircum" xMin="64" yMin="896" xMax="1024" yMax="1536">
      <contour>
        <pt x="544" y="1408" on="1"/>
        <pt x="192" y="896" on="1"/>
        <pt x="64" y="992" on="1"/>
        <pt x="448" y="1536" on="1"/>
        <pt x="640" y="1536" on="1"/>
        <pt x="1024" y="992" on="1"/>
        <pt x="896" y="896" on="1"/>
      </contour>
    </TTGlyph>
    <TTGlyph name="asciitilde" xMin="128" yMin="832" xMax="1024" yMax="1088">
      <contour>
        <pt x="384" y="928" on="1"/>
        <pt x="429" y="928" on="0"/>
        <pt x="506" y="898" on="0"/>
        <pt x="592" y="862" on="0"/>
        <pt x="696" y="832" on="0"/>
        <pt x="768" y="832" on="1"/>
        <pt x="804" y="832" on="0"/>
        <pt x="893" y="857" on="0"/>
        <pt x="971" y="916" on="0"/>
        <pt x="1024" y="1014" on="0"/>
        <pt x="1024" y="1088" on="1"/>
        <pt x="832" y="1088" on="1"/>
        <pt x="832" y="1058" on="0"/>
        <pt x="824" y="1020" on="0"/>
        <pt x="808" y="999" on="0"/>
        <pt x="784" y="992" on="0"/>
        <pt x="768" y="992" on="1"/>
        <pt x="723" y="992" on="0"/>
        <pt x="646" y="1022" on="0"/>
        <pt x="560" y="1058" on="0"/>
        <pt x="456" y="1088" on="0"/>
        <pt x="384" y="1088" on="1"/>
        <pt x="348" y="1088" on="0"/>
        <pt x="259" y="1065" on="0"/>
        <pt x="181" y="1008" on="0"/>
        <pt x="128" y="908" on="0"/>
        <pt x="128" y="832" on="1"/>
        <pt x="320" y="832" on="1"/>
        <pt x="320" y="863" on="0"/>
        <pt x="328" y="901" on="0"/>
        <pt x="344" y="921" on="0"/>
        <pt x="368" y="928" on="0"/>
      </contour>
    </TTGlyph>
    <TTGlyph name="asterisk" xMin="128" yMin="384" xMax="1287" yMax="1536">
      <contour>
        <pt x="420" y="384" on="1"/>
        <pt x="264" y="495" on="1"/>
        <pt x="628" y="896" on="1"/>
        <pt x="128" y="1072" on="1"/>
        <pt x="228" y="1250" on="1"/>
        <pt x="660" y="992" on="1"/>
        <pt x="612" y="1536" on="1"/>
        <pt x="804" y="1536" on="1"/>
        <pt x="756" y="992" on="1"/>
        <pt x="1187" y="1250" on="1"/>
        <pt x="1287" y="1072" on="1"/>
        <pt x="788" y="896" on="1"/>
        <pt x="1152" y="495" on="1"/>
        <pt x="996" y="384" on="1"/>
        <pt x="708" y="834" on="1"/>
      </contour>
    </TTGlyph>
    <TTGlyph name="at" xMin="128" yMin="-224" xMax="2112" yMax="1376">
      <contour>
        <pt x="1117" y="288" on="1"/>
        <pt x="1224" y="288" on="0"/>
        <pt x="1372" y="303" on="0"/>
        <pt x="1463" y="360" on="0"/>
        <pt x="1504" y="474" on="0"/>
        <pt x="1504" y="573" on="1"/>
        <pt x="1504" y="674" on="0"/>
        <pt x="1463" y="790" on="0"/>
        <pt x="1372" y="849" on="0"/>
        <pt x="1224" y="864" on="0"/>
        <pt x="1117" y="864" on="1"/>
        <pt x="1022" y="864" on="0"/>
        <pt x="886" y="857" on="0"/>
        <pt x="795" y="836" on="0"/>
        <pt x="741" y="796" on="0"/>
        <pt x="712" y="732" on="0"/>
        <pt x="704" y="640" on="0"/>
        <pt x="704" y="576" on="1"/>
        <pt x="704" y="512" on="0"/>
        <pt x="712" y="420" on="0"/>
        <pt x="741" y="356" on="0"/>
        <pt x="795" y="316" on="0"/>
        <pt x="886" y="295" on="0"/>
        <pt x="1022" y="288" on="0"/>
      </contour>
      <contour>
        <pt x="2112" y="480" on="1"/>
        <pt x="2112" y="384" on="0"/>
        <pt x="2088" y="250" on="0"/>
        <pt x="2018" y="166" on="0"/>
        <pt x="1893" y="128" on="0"/>
        <pt x="1791" y="128" on="1"/>
        <pt x="1718" y="128" on="0"/>
        <pt x="1630" y="167" on="0"/>
        <pt x="1582" y="224" on="0"/>
        <pt x="1567" y="291" on="0"/>
        <pt x="1567" y="320" on="1"/>
        <pt x="1542" y="266" on="0"/>
        <pt x="1486" y="224" on="1"/>
        <pt x="1462" y="206" on="0"/>
        <pt x="1395" y="171" on="0"/>
        <pt x="1304" y="144" on="0"/>
        <pt x="1189" y="128" on="0"/>
        <pt x="1117" y="128" on="1"/>
        <pt x="990" y="128" on="0"/>
        <pt x="801" y="147" on="0"/>
        <pt x="667" y="189" on="0"/>
        <pt x="581" y="257" on="0"/>
        <pt x="531" y="357" on="0"/>
        <pt x="512" y="490" on="0"/>
        <pt x="512" y="576" on="1"/>
        <pt x="512" y="662" on="0"/>
        <pt x="531" y="795" on="0"/>
        <pt x="581" y="895" on="0"/>
        <pt x="667" y="963" on="0"/>
        <pt x="801" y="1005" on="0"/>
        <pt x="990" y="1024" on="0"/>
        <pt x="1117" y="1024" on="1"/>
        <pt x="1179" y="1024" on="0"/>
        <pt x="1278" y="1010" on="0"/>
        <pt x="1356" y="988" on="0"/>
        <pt x="1414" y="959" on="0"/>
        <pt x="1435" y="944" on="1"/>
        <pt x="1483" y="909" on="0"/>
        <pt x="1504" y="864" on="1"/>
        <pt x="1504" y="992" on="1"/>
        <pt x="1696" y="992" on="1"/>
        <pt x="1696" y="480" on="1"/>
        <pt x="1696" y="418" on="0"/>
        <pt x="1702" y="343" on="0"/>
        <pt x="1721" y="302" on="0"/>
        <pt x="1759" y="288" on="0"/>
        <pt x="1791" y="288" on="1"/>
        <pt x="1833" y="288" on="0"/>
        <pt x="1884" y="302" on="0"/>
        <pt x="1911" y="343" on="0"/>
        <pt x="1920" y="418" on="0"/>
        <pt x="1920" y="480" on="1"/>
        <pt x="1920" y="768" on="1"/>
        <pt x="1920" y="864" on="0"/>
        <pt x="1895" y="1005" on="0"/>
        <pt x="1831" y="1105" on="0"/>
        <pt x="1720" y="1167" on="0"/>
        <pt x="1550" y="1203" on="0"/>
        <pt x="1312" y="1216" on="0"/>
        <pt x="1152" y="1216" on="1"/>
        <pt x="976" y="1216" on="0"/>
        <pt x="716" y="1206" on="0"/>
        <pt x="531" y="1165" on="0"/>
        <pt x="413" y="1083" on="0"/>
        <pt x="346" y="941" on="0"/>
        <pt x="321" y="728" on="0"/>
        <pt x="321" y="576" on="1"/>
        <pt x="321" y="432" on="0"/>
        <pt x="347" y="225" on="0"/>
        <pt x="414" y="83" on="0"/>
        <pt x="532" y="-3" on="0"/>
        <pt x="716" y="-49" on="0"/>
        <pt x="976" y="-64" on="0"/>
        <pt x="1791" y="-64" on="1"/>
        <pt x="1791" y="-224" on="1"/>
        <pt x="1152" y="-224" on="1"/>
        <pt x="928" y="-224" on="0"/>
        <pt x="602" y="-181" on="0"/>
        <pt x="375" y="-94" on="0"/>
        <pt x="233" y="38" on="0"/>
        <pt x="155" y="216" on="0"/>
        <pt x="128" y="440" on="0"/>
        <pt x="128" y="576" on="1"/>
        <pt x="128" y="736" on="0"/>
        <pt x="155" y="979" on="0"/>
        <pt x="233" y="1157" on="0"/>
        <pt x="375" y="1275" on="0"/>
        <pt x="602" y="1346" on="0"/>
        <pt x="928" y="1376" on="0"/>
        <pt x="1152" y="1376" on="1"/>
        <pt x="1344" y="1376" on="0"/>
        <pt x="1636" y="1348" on="0"/>
        <pt x="1849" y="1288" on="0"/>
        <pt x="1991" y="1192" on="0"/>
        <pt x="2076" y="1057" on="0"/>
      </contour>
    </TTGlyph>
    <TTGlyph name="atilde" xMin="128" yMin="-24" xMax="1472" yMax="1601">
      <component glyphName="a" x="5" y="0" flags="0x1004"/>
      <component glyphName="tilde" x="224" y="0" flags="0x1004"/>
    </TTGlyph>
    <TTGlyph name="b" xMin="128" yMin="-22" xMax="1536" yMax="1536">
      <contour>
        <pt x="832" y="-22" on="1"/>
        <pt x="694" y="-22" on="0"/>
        <pt x="511" y="15" on="0"/>
        <pt x="395" y="58" on="0"/>
        <pt x="335" y="151" on="0"/>
        <pt x="320" y="177" on="1"/>
        <pt x="320" y="0" on="1"/>
        <pt x="128" y="0" on="1"/>
        <pt x="128" y="1536" on="1"/>
        <pt x="320" y="1536" on="1"/>
        <pt x="320" y="1043" on="1"/>
        <pt x="333" y="1064" on="0"/>
        <pt x="394" y="1113" on="0"/>
        <pt x="511" y="1156" on="0"/>
        <pt x="695" y="1184" on="0"/>
        <pt x="832" y="1184" on="1"/>
        <pt x="1024" y="1184" on="0"/>
        <pt x="1292" y="1126" on="0"/>
        <pt x="1460" y="986" on="0"/>
        <pt x="1536" y="751" on="0"/>
        <pt x="1536" y="574" on="1"/>
        <pt x="1536" y="400" on="0"/>
        <pt x="1460" y="170" on="0"/>
        <pt x="1292" y="34" on="0"/>
        <pt x="1024" y="-22" on="0"/>
      </contour>
      <contour>
        <pt x="832" y="128" on="1"/>
        <pt x="944" y="128" on="0"/>
        <pt x="1107" y="142" on="0"/>
        <pt x="1221" y="178" on="0"/>
        <pt x="1292" y="242" on="0"/>
        <pt x="1331" y="341" on="0"/>
        <pt x="1344" y="480" on="0"/>
        <pt x="1344" y="574" on="1"/>
        <pt x="1344" y="668" on="0"/>
        <pt x="1331" y="808" on="0"/>
        <pt x="1292" y="907" on="0"/>
        <pt x="1221" y="972" on="0"/>
        <pt x="1107" y="1009" on="0"/>
        <pt x="944" y="1023" on="0"/>
        <pt x="832" y="1023" on="1"/>
        <pt x="736" y="1023" on="0"/>
        <pt x="586" y="1014" on="0"/>
        <pt x="472" y="982" on="0"/>
        <pt x="393" y="922" on="0"/>
        <pt x="343" y="822" on="0"/>
        <pt x="320" y="674" on="0"/>
        <pt x="320" y="571" on="1"/>
        <pt x="320" y="469" on="0"/>
        <pt x="343" y="324" on="0"/>
        <pt x="393" y="226" on="0"/>
        <pt x="472" y="167" on="0"/>
        <pt x="586" y="137" on="0"/>
        <pt x="736" y="128" on="0"/>
      </contour>
    </TTGlyph>
    <TTGlyph name="backslash" xMin="64" yMin="0" xMax="960" yMax="1536">
      <contour>
        <pt x="960" y="0" on="1"/>
        <pt x="768" y="0" on="1"/>
        <pt x="64" y="1536" on="1"/>
        <pt x="256" y="1536" on="1"/>
      </contour>
    </TTGlyph>
    <TTGlyph name="bar" xMin="128" yMin="-128" xMax="320" yMax="1600">
      <contour>
        <pt x="128" y="-128" on="1"/>
        <pt x="320" y="-128" on="1"/>
        <pt x="320" y="1600" on="1"/>
        <pt x="128" y="1600" on="1"/>
      </contour>
    </TTGlyph>
    <TTGlyph name="braceleft" xMin="128" yMin="-64" xMax="832" yMax="1600">
      <contour>
        <pt x="320" y="536" on="1"/>
        <pt x="320" y="470" on="0"/>
        <pt x="325" y="331" on="0"/>
        <pt x="353" y="197" on="0"/>
        <pt x="415" y="78" on="0"/>
        <pt x="529" y="-12" on="0"/>
        <pt x="704" y="-64" on="0"/>
        <pt x="832" y="-64" on="1"/>
        <pt x="832" y="96" on="1"/>
        <pt x="751" y="96" on="0"/>
        <pt x="641" y="123" on="0"/>
        <pt x="570" y="174" on="0"/>
        <pt x="532" y="250" on="0"/>
        <pt x="515" y="348" on="0"/>
        <pt x="512" y="467" on="0"/>
        <pt x="512" y="536" on="1"/>
        <pt x="512" y="565" on="0"/>
        <pt x="508" y="627" on="0"/>
        <pt x="484" y="687" on="0"/>
        <pt x="432" y="744" on="0"/>
        <pt x="384" y="768" on="1"/>
        <pt x="432" y="792" on="0"/>
        <pt x="484" y="849" on="0"/>
        <pt x="508" y="909" on="0"/>
        <pt x="512" y="971" on="0"/>
        <pt x="512" y="1000" on="1"/>
        <pt x="512" y="1069" on="0"/>
        <pt x="514" y="1188" on="0"/>
        <pt x="532" y="1286" on="0"/>
        <pt x="570" y="1362" on="0"/>
        <pt x="641" y="1413" on="0"/>
        <pt x="751" y="1440" on="0"/>
        <pt x="832" y="1440" on="1"/>
        <pt x="832" y="1600" on="1"/>
        <pt x="704" y="1600" on="0"/>
        <pt x="529" y="1548" on="0"/>
        <pt x="415" y="1458" on="0"/>
        <pt x="353" y="1339" on="0"/>
        <pt x="325" y="1205" on="0"/>
        <pt x="320" y="1065" on="0"/>
        <pt x="320" y="1000" on="1"/>
        <pt x="320" y="964" on="0"/>
        <pt x="314" y="907" on="0"/>
        <pt x="278" y="868" on="0"/>
        <pt x="200" y="848" on="0"/>
        <pt x="128" y="848" on="1"/>
        <pt x="128" y="688" on="1"/>
        <pt x="200" y="688" on="0"/>
        <pt x="278" y="669" on="0"/>
        <pt x="314" y="631" on="0"/>
        <pt x="320" y="574" on="0"/>
      </contour>
    </TTGlyph>
    <TTGlyph name="braceright" xMin="128" yMin="-64" xMax="832" yMax="1600">
      <contour>
        <pt x="640" y="536" on="1"/>
        <pt x="640" y="574" on="0"/>
        <pt x="646" y="631" on="0"/>
        <pt x="682" y="669" on="0"/>
        <pt x="760" y="688" on="0"/>
        <pt x="832" y="688" on="1"/>
        <pt x="832" y="848" on="1"/>
        <pt x="760" y="848" on="0"/>
        <pt x="682" y="868" on="0"/>
        <pt x="646" y="907" on="0"/>
        <pt x="640" y="964" on="0"/>
        <pt x="640" y="1000" on="1"/>
        <pt x="640" y="1065" on="0"/>
        <pt x="634" y="1205" on="0"/>
        <pt x="607" y="1339" on="0"/>
        <pt x="545" y="1458" on="0"/>
        <pt x="431" y="1548" on="0"/>
        <pt x="256" y="1600" on="0"/>
        <pt x="128" y="1600" on="1"/>
        <pt x="128" y="1440" on="1"/>
        <pt x="208" y="1440" on="0"/>
        <pt x="319" y="1413" on="0"/>
        <pt x="390" y="1362" on="0"/>
        <pt x="428" y="1286" on="0"/>
        <pt x="445" y="1188" on="0"/>
        <pt x="448" y="1069" on="0"/>
        <pt x="448" y="1000" on="1"/>
        <pt x="448" y="971" on="0"/>
        <pt x="452" y="909" on="0"/>
        <pt x="476" y="849" on="0"/>
        <pt x="528" y="792" on="0"/>
        <pt x="576" y="768" on="1"/>
        <pt x="528" y="744" on="0"/>
        <pt x="476" y="687" on="0"/>
        <pt x="452" y="627" on="0"/>
        <pt x="448" y="565" on="0"/>
        <pt x="448" y="536" on="1"/>
        <pt x="448" y="467" on="0"/>
        <pt x="445" y="348" on="0"/>
        <pt x="428" y="250" on="0"/>
        <pt x="390" y="174" on="0"/>
        <pt x="319" y="123" on="0"/>
        <pt x="208" y="96" on="0"/>
        <pt x="128" y="96" on="1"/>
        <pt x="128" y="-64" on="1"/>
        <pt x="256" y="-64" on="0"/>
        <pt x="431" y="-12" on="0"/>
        <pt x="545" y="78" on="0"/>
        <pt x="607" y="197" on="0"/>
        <pt x="635" y="331" on="0"/>
        <pt x="640" y="471" on="0"/>
      </contour>
    </TTGlyph>
    <TTGlyph name="bracketleft" xMin="128" yMin="0" xMax="704" yMax="1536">
      <contour>
        <pt x="128" y="1536" on="1"/>
        <pt x="704" y="1536" on="1"/>
        <pt x="704" y="1376" on="1"/>
        <pt x="320" y="1376" on="1"/>
        <pt x="320" y="160" on="1"/>
        <pt x="704" y="160" on="1"/>
        <pt x="704" y="0" on="1"/>
        <pt x="128" y="0" on="1"/>
      </contour>
    </TTGlyph>
    <TTGlyph name="bracketright" xMin="128" yMin="0" xMax="704" yMax="1536">
      <contour>
        <pt x="704" y="0" on="1"/>
        <pt x="128" y="0" on="1"/>
        <pt x="128" y="160" on="1"/>
        <pt x="512" y="160" on="1"/>
        <pt x="512" y="1376" on="1"/>
        <pt x="128" y="1376" on="1"/>
        <pt x="128" y="1536" on="1"/>
        <pt x="704" y="1536" on="1"/>
      </contour>
    </TTGlyph>
    <TTGlyph name="breve" xMin="256" yMin="1280" xMax="1024" yMax="1600">
      <contour>
        <pt x="256" y="1600" on="1"/>
        <pt x="256" y="1432" on="0"/>
        <pt x="448" y="1280" on="0"/>
        <pt x="640" y="1280" on="1"/>
        <pt x="832" y="1280" on="0"/>
        <pt x="1024" y="1432" on="0"/>
        <pt x="1024" y="1600" on="1"/>
        <pt x="864" y="1600" on="1"/>
        <pt x="864" y="1528" on="0"/>
        <pt x="830" y="1450" on="0"/>
        <pt x="770" y="1414" on="0"/>
        <pt x="688" y="1408" on="0"/>
        <pt x="640" y="1408" on="1"/>
        <pt x="592" y="1408" on="0"/>
        <pt x="510" y="1414" on="0"/>
        <pt x="450" y="1450" on="0"/>
        <pt x="416" y="1528" on="0"/>
        <pt x="416" y="1600" on="1"/>
      </contour>
    </TTGlyph>
    <TTGlyph name="brokenbar" xMin="128" yMin="-128" xMax="320" yMax="1600">
      <contour>
        <pt x="128" y="896" on="1"/>
        <pt x="320" y="896" on="1"/>
        <pt x="320" y="1600" on="1"/>
        <pt x="128" y="1600" on="1"/>
      </contour>
      <contour>
        <pt x="128" y="-128" on="1"/>
        <pt x="320" y="-128" on="1"/>
        <pt x="320" y="576" on="1"/>
        <pt x="128" y="576" on="1"/>
      </contour>
    </TTGlyph>
    <TTGlyph name="bullet" xMin="384" yMin="256" xMax="896" yMax="768">
      <contour>
        <pt x="640" y="256" on="1"/>
        <pt x="694" y="256" on="0"/>
        <pt x="787" y="282" on="0"/>
        <pt x="856" y="342" on="0"/>
        <pt x="896" y="440" on="0"/>
        <pt x="896" y="512" on="1"/>
        <pt x="896" y="584" on="0"/>
        <pt x="856" y="682" on="0"/>
        <pt x="787" y="742" on="0"/>
        <pt x="694" y="768" on="0"/>
        <pt x="640" y="768" on="1"/>
        <pt x="586" y="768" on="0"/>
        <pt x="492" y="742" on="0"/>
        <pt x="423" y="682" on="0"/>
        <pt x="384" y="584" on="0"/>
        <pt x="384" y="512" on="1"/>
        <pt x="384" y="440" on="0"/>
        <pt x="423" y="342" on="0"/>
        <pt x="492" y="282" on="0"/>
        <pt x="586" y="256" on="0"/>
      </contour>
    </TTGlyph>
    <TTGlyph name="c" xMin="96" yMin="-22" xMax="1441" yMax="1185">
      <contour>
        <pt x="96" y="574" on="1"/>
        <pt x="96" y="694" on="0"/>
        <pt x="120" y="878" on="0"/>
        <pt x="181" y="1014" on="0"/>
        <pt x="284" y="1105" on="0"/>
        <pt x="441" y="1161" on="0"/>
        <pt x="657" y="1185" on="0"/>
        <pt x="801" y="1185" on="1"/>
        <pt x="993" y="1185" on="0"/>
        <pt x="1241" y="1138" on="0"/>
        <pt x="1385" y="1041" on="0"/>
        <pt x="1441" y="892" on="0"/>
        <pt x="1441" y="789" on="1"/>
        <pt x="1249" y="789" on="1"/>
        <pt x="1249" y="826" on="0"/>
        <pt x="1245" y="890" on="0"/>
        <pt x="1220" y="942" on="0"/>
        <pt x="1166" y="983" on="0"/>
        <pt x="1066" y="1011" on="0"/>
        <pt x="913" y="1025" on="0"/>
        <pt x="801" y="1025" on="1"/>
        <pt x="673" y="1025" on="0"/>
        <pt x="498" y="1007" on="0"/>
        <pt x="384" y="966" on="0"/>
        <pt x="322" y="897" on="0"/>
        <pt x="294" y="797" on="0"/>
        <pt x="289" y="662" on="0"/>
        <pt x="289" y="574" on="1"/>
        <pt x="289" y="488" on="0"/>
        <pt x="294" y="355" on="0"/>
        <pt x="322" y="256" on="0"/>
        <pt x="384" y="188" on="0"/>
        <pt x="498" y="146" on="0"/>
        <pt x="673" y="128" on="0"/>
        <pt x="801" y="128" on="1"/>
        <pt x="913" y="128" on="0"/>
        <pt x="1066" y="144" on="0"/>
        <pt x="1166" y="174" on="0"/>
        <pt x="1220" y="218" on="0"/>
        <pt x="1245" y="275" on="0"/>
        <pt x="1249" y="344" on="0"/>
        <pt x="1249" y="384" on="1"/>
        <pt x="1441" y="384" on="1"/>
        <pt x="1441" y="279" on="0"/>
        <pt x="1385" y="125" on="0"/>
        <pt x="1241" y="26" on="0"/>
        <pt x="993" y="-22" on="0"/>
        <pt x="801" y="-22" on="1"/>
        <pt x="657" y="-22" on="0"/>
        <pt x="441" y="2" on="0"/>
        <pt x="284" y="57" on="0"/>
        <pt x="181" y="147" on="0"/>
        <pt x="120" y="279" on="0"/>
        <pt x="96" y="458" on="0"/>
      </contour>
    </TTGlyph>
    <TTGlyph name="caron" xMin="128" yMin="1280" xMax="960" yMax="1856">
      <contour>
        <pt x="544" y="1408" on="1"/>
        <pt x="256" y="1856" on="1"/>
        <pt x="128" y="1760" on="1"/>
        <pt x="448" y="1280" on="1"/>
        <pt x="640" y="1280" on="1"/>
        <pt x="960" y="1760" on="1"/>
        <pt x="832" y="1856" on="1"/>
      </contour>
    </TTGlyph>
    <TTGlyph name="ccaron" xMin="128" yMin="-22" xMax="1473" yMax="1820">
      <component glyphName="caron" x="289" y="-36" flags="0x1004"/>
      <component glyphName="c" x="32" y="0" flags="0x1004"/>
    </TTGlyph>
    <TTGlyph name="ccedilla" xMin="128" yMin="-544" xMax="1473" yMax="1120">
      <contour>
        <pt x="704" y="-544" on="1"/>
        <pt x="776" y="-544" on="0"/>
        <pt x="914" y="-527" on="0"/>
        <pt x="1022" y="-473" on="0"/>
        <pt x="1088" y="-372" on="0"/>
        <pt x="1088" y="-288" on="1"/>
        <pt x="1088" y="-240" on="0"/>
        <pt x="1044" y="-178" on="0"/>
        <pt x="972" y="-142" on="0"/>
        <pt x="880" y="-128" on="0"/>
        <pt x="832" y="-128" on="1"/>
        <pt x="832" y="-32" on="1"/>
        <pt x="833" y="-32" on="1"/>
        <pt x="1025" y="-32" on="0"/>
        <pt x="1273" y="17" on="0"/>
        <pt x="1417" y="119" on="0"/>
        <pt x="1473" y="276" on="0"/>
        <pt x="1473" y="384" on="1"/>
        <pt x="1281" y="384" on="1"/>
        <pt x="1281" y="344" on="0"/>
        <pt x="1277" y="275" on="0"/>
        <pt x="1252" y="218" on="0"/>
        <pt x="1198" y="174" on="0"/>
        <pt x="1098" y="144" on="0"/>
        <pt x="945" y="128" on="0"/>
        <pt x="833" y="128" on="1"/>
        <pt x="705" y="128" on="0"/>
        <pt x="530" y="145" on="0"/>
        <pt x="416" y="184" on="0"/>
        <pt x="354" y="248" on="0"/>
        <pt x="326" y="340" on="0"/>
        <pt x="321" y="464" on="0"/>
        <pt x="321" y="544" on="1"/>
        <pt x="321" y="624" on="0"/>
        <pt x="326" y="748" on="0"/>
        <pt x="354" y="840" on="0"/>
        <pt x="416" y="904" on="0"/>
        <pt x="530" y="943" on="0"/>
        <pt x="705" y="960" on="0"/>
        <pt x="833" y="960" on="1"/>
        <pt x="945" y="960" on="0"/>
        <pt x="1098" y="944" on="0"/>
        <pt x="1198" y="914" on="0"/>
        <pt x="1252" y="870" on="0"/>
        <pt x="1277" y="813" on="0"/>
        <pt x="1281" y="744" on="0"/>
        <pt x="1281" y="704" on="1"/>
        <pt x="1473" y="704" on="1"/>
        <pt x="1473" y="812" on="0"/>
        <pt x="1417" y="969" on="0"/>
        <pt x="1273" y="1071" on="0"/>
        <pt x="1025" y="1120" on="0"/>
        <pt x="833" y="1120" on="1"/>
        <pt x="689" y="1120" on="0"/>
        <pt x="473" y="1097" on="0"/>
        <pt x="316" y="1044" on="0"/>
        <pt x="213" y="956" on="0"/>
        <pt x="152" y="828" on="0"/>
        <pt x="128" y="656" on="0"/>
        <pt x="128" y="432" on="0"/>
        <pt x="152" y="260" on="0"/>
        <pt x="213" y="132" on="0"/>
        <pt x="316" y="44" on="0"/>
        <pt x="473" y="-9" on="0"/>
        <pt x="581" y="-20" on="1"/>
        <pt x="637" y="-26" on="0"/>
        <pt x="704" y="-29" on="1"/>
        <pt x="704" y="-224" on="1"/>
        <pt x="776" y="-224" on="0"/>
        <pt x="854" y="-235" on="0"/>
        <pt x="890" y="-253" on="0"/>
        <pt x="896" y="-276" on="0"/>
        <pt x="896" y="-288" on="1"/>
        <pt x="896" y="-324" on="0"/>
        <pt x="872" y="-363" on="0"/>
        <pt x="824" y="-381" on="0"/>
        <pt x="752" y="-384" on="0"/>
        <pt x="704" y="-384" on="1"/>
      </contour>
    </TTGlyph>
    <TTGlyph name="ccircumflex" xMin="128" yMin="-22" xMax="1473" yMax="1820">
      <component glyphName="circumflex" x="289" y="-36" flags="0x1004"/>
      <component glyphName="c" x="32" y="0" flags="0x1004"/>
    </TTGlyph>
    <TTGlyph name="cdotaccent" xMin="128" yMin="-22" xMax="1473" yMax="1436">
      <component glyphName="dotaccent" x="609" y="-100" flags="0x1004"/>
      <component glyphName="c" x="32" y="0" flags="0x1004"/>
    </TTGlyph>
    <TTGlyph name="cedilla" xMin="128" yMin="-544" xMax="512" yMax="64">
      <contour>
        <pt x="128" y="-384" on="1"/>
        <pt x="176" y="-384" on="0"/>
        <pt x="248" y="-381" on="0"/>
        <pt x="296" y="-363" on="0"/>
        <pt x="320" y="-324" on="0"/>
        <pt x="320" y="-288" on="1"/>
        <pt x="320" y="-276" on="0"/>
        <pt x="314" y="-253" on="0"/>
        <pt x="278" y="-235" on="0"/>
        <pt x="200" y="-224" on="0"/>
        <pt x="128" y="-224" on="1"/>
        <pt x="128" y="64" on="1"/>
        <pt x="256" y="64" on="1"/>
        <pt x="256" y="-128" on="1"/>
        <pt x="304" y="-128" on="0"/>
        <pt x="396" y="-142" on="0"/>
        <pt x="468" y="-178" on="0"/>
        <pt x="512" y="-240" on="0"/>
        <pt x="512" y="-288" on="1"/>
        <pt x="512" y="-372" on="0"/>
        <pt x="446" y="-473" on="0"/>
        <pt x="338" y="-527" on="0"/>
        <pt x="200" y="-544" on="0"/>
        <pt x="128" y="-544" on="1"/>
      </contour>
    </TTGlyph>
    <TTGlyph name="cent" xMin="128" yMin="-32" xMax="1473" yMax="1120">
      <contour>
        <pt x="128" y="544" on="1"/>
        <pt x="128" y="432" on="0"/>
        <pt x="152" y="260" on="0"/>
        <pt x="213" y="132" on="0"/>
        <pt x="316" y="44" on="0"/>
        <pt x="473" y="-9" on="0"/>
        <pt x="689" y="-32" on="0"/>
        <pt x="833" y="-32" on="1"/>
        <pt x="1025" y="-32" on="0"/>
        <pt x="1273" y="17" on="0"/>
        <pt x="1417" y="119" on="0"/>
        <pt x="1473" y="276" on="0"/>
        <pt x="1473" y="384" on="1"/>
        <pt x="1281" y="384" on="1"/>
        <pt x="1281" y="344" on="0"/>
        <pt x="1277" y="275" on="0"/>
        <pt x="1252" y="218" on="0"/>
        <pt x="1198" y="174" on="0"/>
        <pt x="1098" y="144" on="0"/>
        <pt x="945" y="128" on="0"/>
        <pt x="833" y="128" on="1"/>
        <pt x="705" y="128" on="0"/>
        <pt x="530" y="145" on="0"/>
        <pt x="416" y="184" on="0"/>
        <pt x="354" y="248" on="0"/>
        <pt x="326" y="340" on="0"/>
        <pt x="321" y="464" on="0"/>
        <pt x="321" y="544" on="1"/>
        <pt x="321" y="624" on="0"/>
        <pt x="326" y="748" on="0"/>
        <pt x="354" y="840" on="0"/>
        <pt x="416" y="904" on="0"/>
        <pt x="530" y="943" on="0"/>
        <pt x="705" y="960" on="0"/>
        <pt x="833" y="960" on="1"/>
        <pt x="945" y="960" on="0"/>
        <pt x="1098" y="944" on="0"/>
        <pt x="1198" y="914" on="0"/>
        <pt x="1252" y="870" on="0"/>
        <pt x="1277" y="813" on="0"/>
        <pt x="1281" y="744" on="0"/>
        <pt x="1281" y="704" on="1"/>
        <pt x="1473" y="704" on="1"/>
        <pt x="1473" y="812" on="0"/>
        <pt x="1417" y="969" on="0"/>
        <pt x="1273" y="1071" on="0"/>
        <pt x="1025" y="1120" on="0"/>
        <pt x="833" y="1120" on="1"/>
        <pt x="689" y="1120" on="0"/>
        <pt x="473" y="1097" on="0"/>
        <pt x="316" y="1044" on="0"/>
        <pt x="213" y="956" on="0"/>
        <pt x="152" y="828" on="0"/>
        <pt x="128" y="656" on="0"/>
      </contour>
    </TTGlyph>
    <TTGlyph name="circumflex" xMin="128" yMin="1280" xMax="960" yMax="1856">
      <contour>
        <pt x="832" y="1280" on="1"/>
        <pt x="960" y="1376" on="1"/>
        <pt x="640" y="1856" on="1"/>
        <pt x="448" y="1856" on="1"/>
        <pt x="128" y="1376" on="1"/>
        <pt x="256" y="1280" on="1"/>
        <pt x="544" y="1728" on="1"/>
      </contour>
    </TTGlyph>
    <TTGlyph name="colon" xMin="128" yMin="192" xMax="320" yMax="960">
      <contour>
        <pt x="320" y="768" on="1"/>
        <pt x="128" y="768" on="1"/>
        <pt x="128" y="960" on="1"/>
        <pt x="320" y="960" on="1"/>
      </contour>
      <contour>
        <pt x="320" y="192" on="1"/>
        <pt x="128" y="192" on="1"/>
        <pt x="128" y="384" on="1"/>
        <pt x="320" y="384" on="1"/>
      </contour>
    </TTGlyph>
    <TTGlyph name="comma" xMin="64" yMin="-256" xMax="320" yMax="128">
      <contour>
        <pt x="128" y="128" on="1"/>
        <pt x="320" y="128" on="1"/>
        <pt x="192" y="-256" on="1"/>
        <pt x="64" y="-256" on="1"/>
      </contour>
    </TTGlyph>
    <TTGlyph name="copyright" xMin="128" yMin="64" xMax="1792" yMax="1664">
      <contour>
        <pt x="960" y="1664" on="1"/>
        <pt x="784" y="1664" on="0"/>
        <pt x="524" y="1621" on="0"/>
        <pt x="339" y="1534" on="0"/>
        <pt x="221" y="1402" on="0"/>
        <pt x="153" y="1224" on="0"/>
        <pt x="128" y="1000" on="0"/>
        <pt x="128" y="864" on="1"/>
        <pt x="128" y="728" on="0"/>
        <pt x="153" y="504" on="0"/>
        <pt x="221" y="326" on="0"/>
        <pt x="339" y="194" on="0"/>
        <pt x="524" y="107" on="0"/>
        <pt x="784" y="64" on="0"/>
        <pt x="960" y="64" on="1"/>
        <pt x="1136" y="64" on="0"/>
        <pt x="1396" y="107" on="0"/>
        <pt x="1581" y="194" on="0"/>
        <pt x="1699" y="326" on="0"/>
        <pt x="1767" y="504" on="0"/>
        <pt x="1792" y="728" on="0"/>
        <pt x="1792" y="864" on="1"/>
        <pt x="1792" y="1000" on="0"/>
        <pt x="1767" y="1224" on="0"/>
        <pt x="1699" y="1402" on="0"/>
        <pt x="1581" y="1534" on="0"/>
        <pt x="1396" y="1621" on="0"/>
        <pt x="1136" y="1664" on="0"/>
      </contour>
      <contour>
        <pt x="960" y="224" on="1"/>
        <pt x="832" y="224" on="0"/>
        <pt x="638" y="239" on="0"/>
        <pt x="495" y="285" on="0"/>
        <pt x="401" y="371" on="0"/>
        <pt x="344" y="513" on="0"/>
        <pt x="320" y="720" on="0"/>
        <pt x="320" y="864" on="1"/>
        <pt x="320" y="1008" on="0"/>
        <pt x="344" y="1215" on="0"/>
        <pt x="401" y="1357" on="0"/>
        <pt x="495" y="1443" on="0"/>
        <pt x="638" y="1489" on="0"/>
        <pt x="832" y="1504" on="0"/>
        <pt x="960" y="1504" on="1"/>
        <pt x="1088" y="1504" on="0"/>
        <pt x="1282" y="1489" on="0"/>
        <pt x="1425" y="1443" on="0"/>
        <pt x="1519" y="1357" on="0"/>
        <pt x="1576" y="1215" on="0"/>
        <pt x="1600" y="1008" on="0"/>
        <pt x="1600" y="864" on="1"/>
        <pt x="1600" y="720" on="0"/>
        <pt x="1576" y="513" on="0"/>
        <pt x="1519" y="371" on="0"/>
        <pt x="1425" y="285" on="0"/>
        <pt x="1282" y="239" on="0"/>
        <pt x="1088" y="224" on="0"/>
      </contour>
      <contour>
        <pt x="448" y="893" on="1"/>
        <pt x="448" y="752" on="0"/>
        <pt x="490" y="566" on="0"/>
        <pt x="603" y="455" on="0"/>
        <pt x="802" y="410" on="0"/>
        <pt x="959" y="410" on="1"/>
        <pt x="1111" y="410" on="0"/>
        <pt x="1309" y="451" on="0"/>
        <pt x="1426" y="536" on="0"/>
        <pt x="1472" y="668" on="0"/>
        <pt x="1472" y="759" on="1"/>
        <pt x="1312" y="759" on="1"/>
        <pt x="1312" y="725" on="0"/>
        <pt x="1308" y="668" on="0"/>
        <pt x="1287" y="620" on="0"/>
        <pt x="1244" y="583" on="0"/>
        <pt x="1165" y="557" on="0"/>
        <pt x="1045" y="544" on="0"/>
        <pt x="959" y="544" on="1"/>
        <pt x="872" y="544" on="0"/>
        <pt x="753" y="558" on="0"/>
        <pt x="675" y="591" on="0"/>
        <pt x="633" y="645" on="0"/>
        <pt x="613" y="722" on="0"/>
        <pt x="610" y="826" on="0"/>
        <pt x="610" y="893" on="1"/>
        <pt x="610" y="960" on="0"/>
        <pt x="613" y="1064" on="0"/>
        <pt x="633" y="1141" on="0"/>
        <pt x="675" y="1194" on="0"/>
        <pt x="753" y="1227" on="0"/>
        <pt x="872" y="1241" on="0"/>
        <pt x="959" y="1241" on="1"/>
        <pt x="1045" y="1241" on="0"/>
        <pt x="1165" y="1228" on="0"/>
        <pt x="1244" y="1203" on="0"/>
        <pt x="1287" y="1166" on="0"/>
        <pt x="1308" y="1118" on="0"/>
        <pt x="1312" y="1060" on="0"/>
        <pt x="1312" y="1027" on="1"/>
        <pt x="1472" y="1027" on="1"/>
        <pt x="1472" y="1117" on="0"/>
        <pt x="1426" y="1249" on="0"/>
        <pt x="1309" y="1334" on="0"/>
        <pt x="1111" y="1375" on="0"/>
        <pt x="959" y="1375" on="1"/>
        <pt x="802" y="1375" on="0"/>
        <pt x="603" y="1330" on="0"/>
        <pt x="490" y="1219" on="0"/>
        <pt x="448" y="1034" on="0"/>
      </contour>
    </TTGlyph>
    <TTGlyph name="currency" xMin="112" yMin="47" xMax="1168" yMax="977">
      <contour>
        <pt x="640" y="928" on="1"/>
        <pt x="553" y="928" on="0"/>
        <pt x="405" y="889" on="0"/>
        <pt x="346" y="848" on="1"/>
        <pt x="196" y="977" on="1"/>
        <pt x="112" y="880" on="1"/>
        <pt x="256" y="756" on="1"/>
        <pt x="225" y="708" on="0"/>
        <pt x="192" y="587" on="0"/>
        <pt x="192" y="512" on="1"/>
        <pt x="192" y="436" on="0"/>
        <pt x="225" y="316" on="0"/>
        <pt x="256" y="268" on="1"/>
        <pt x="112" y="144" on="1"/>
        <pt x="196" y="47" on="1"/>
        <pt x="346" y="176" on="1"/>
        <pt x="404" y="134" on="0"/>
        <pt x="553" y="96" on="0"/>
        <pt x="640" y="96" on="1"/>
        <pt x="726" y="96" on="0"/>
        <pt x="875" y="134" on="0"/>
        <pt x="933" y="175" on="1"/>
        <pt x="1084" y="47" on="1"/>
        <pt x="1168" y="144" on="1"/>
        <pt x="1023" y="268" on="1"/>
        <pt x="1054" y="316" on="0"/>
        <pt x="1088" y="436" on="0"/>
        <pt x="1088" y="512" on="1"/>
        <pt x="1088" y="587" on="0"/>
        <pt x="1055" y="708" on="0"/>
        <pt x="1023" y="756" on="1"/>
        <pt x="1168" y="880" on="1"/>
        <pt x="1084" y="977" on="1"/>
        <pt x="934" y="848" on="1"/>
        <pt x="875" y="889" on="0"/>
        <pt x="726" y="928" on="0"/>
      </contour>
      <contour>
        <pt x="640" y="256" on="1"/>
        <pt x="586" y="256" on="0"/>
        <pt x="492" y="282" on="0"/>
        <pt x="423" y="342" on="0"/>
        <pt x="384" y="440" on="0"/>
        <pt x="384" y="512" on="1"/>
        <pt x="384" y="584" on="0"/>
        <pt x="423" y="682" on="0"/>
        <pt x="492" y="742" on="0"/>
        <pt x="586" y="768" on="0"/>
        <pt x="640" y="768" on="1"/>
        <pt x="694" y="768" on="0"/>
        <pt x="787" y="742" on="0"/>
        <pt x="856" y="682" on="0"/>
        <pt x="896" y="584" on="0"/>
        <pt x="896" y="512" on="1"/>
        <pt x="896" y="440" on="0"/>
        <pt x="856" y="342" on="0"/>
        <pt x="787" y="282" on="0"/>
        <pt x="694" y="256" on="0"/>
      </contour>
    </TTGlyph>
    <TTGlyph name="d" xMin="96" yMin="-22" xMax="1504" yMax="1536">
      <contour>
        <pt x="800" y="-22" on="1"/>
        <pt x="608" y="-22" on="0"/>
        <pt x="340" y="34" on="0"/>
        <pt x="172" y="170" on="0"/>
        <pt x="96" y="400" on="0"/>
        <pt x="96" y="574" on="1"/>
        <pt x="96" y="754" on="0"/>
        <pt x="172" y="990" on="0"/>
        <pt x="340" y="1128" on="0"/>
        <pt x="608" y="1184" on="0"/>
        <pt x="800" y="1184" on="1"/>
        <pt x="936" y="1184" on="0"/>
        <pt x="1120" y="1156" on="0"/>
        <pt x="1237" y="1114" on="0"/>
        <pt x="1298" y="1065" on="0"/>
        <pt x="1312" y="1044" on="1"/>
        <pt x="1312" y="1536" on="1"/>
        <pt x="1504" y="1536" on="1"/>
        <pt x="1504" y="0" on="1"/>
        <pt x="1312" y="0" on="1"/>
        <pt x="1312" y="171" on="1"/>
        <pt x="1312" y="171" on="0"/>
        <pt x="1264" y="114" on="1"/>
        <pt x="1222" y="73" on="0"/>
        <pt x="1120" y="23" on="0"/>
        <pt x="936" y="-22" on="0"/>
      </contour>
      <contour>
        <pt x="800" y="128" on="1"/>
        <pt x="896" y="128" on="0"/>
        <pt x="1046" y="137" on="0"/>
        <pt x="1160" y="167" on="0"/>
        <pt x="1239" y="226" on="0"/>
        <pt x="1289" y="324" on="0"/>
        <pt x="1312" y="469" on="0"/>
        <pt x="1312" y="571" on="1"/>
        <pt x="1312" y="677" on="0"/>
        <pt x="1289" y="826" on="0"/>
        <pt x="1239" y="927" on="0"/>
        <pt x="1160" y="985" on="0"/>
        <pt x="1046" y="1016" on="0"/>
        <pt x="896" y="1024" on="0"/>
        <pt x="800" y="1024" on="1"/>
        <pt x="688" y="1024" on="0"/>
        <pt x="525" y="1010" on="0"/>
        <pt x="411" y="974" on="0"/>
        <pt x="340" y="910" on="0"/>
        <pt x="301" y="810" on="0"/>
        <pt x="288" y="669" on="0"/>
        <pt x="288" y="574" on="1"/>
        <pt x="288" y="480" on="0"/>
        <pt x="301" y="341" on="0"/>
        <pt x="340" y="242" on="0"/>
        <pt x="411" y="178" on="0"/>
        <pt x="525" y="142" on="0"/>
        <pt x="688" y="128" on="0"/>
      </contour>
    </TTGlyph>
    <TTGlyph name="dagger" xMin="128" yMin="-128" xMax="832" yMax="1600">
      <contour>
        <pt x="832" y="928" on="1"/>
        <pt x="832" y="1088" on="1"/>
        <pt x="576" y="1088" on="1"/>
        <pt x="576" y="1600" on="1"/>
        <pt x="384" y="1600" on="1"/>
        <pt x="384" y="1088" on="1"/>
        <pt x="128" y="1088" on="1"/>
        <pt x="128" y="928" on="1"/>
        <pt x="384" y="928" on="1"/>
        <pt x="384" y="-128" on="1"/>
        <pt x="576" y="-128" on="1"/>
        <pt x="576" y="928" on="1"/>
      </contour>
    </TTGlyph>
    <TTGlyph name="daggerdbl" xMin="128" yMin="-128" xMax="832" yMax="1600">
      <contour>
        <pt x="832" y="320" on="1"/>
        <pt x="832" y="480" on="1"/>
        <pt x="576" y="480" on="1"/>
        <pt x="576" y="928" on="1"/>
        <pt x="832" y="928" on="1"/>
        <pt x="832" y="1088" on="1"/>
        <pt x="576" y="1088" on="1"/>
        <pt x="576" y="1600" on="1"/>
        <pt x="384" y="1600" on="1"/>
        <pt x="384" y="1088" on="1"/>
        <pt x="128" y="1088" on="1"/>
        <pt x="128" y="928" on="1"/>
        <pt x="384" y="928" on="1"/>
        <pt x="384" y="480" on="1"/>
        <pt x="128" y="480" on="1"/>
        <pt x="128" y="320" on="1"/>
        <pt x="384" y="320" on="1"/>
        <pt x="384" y="-128" on="1"/>
        <pt x="576" y="-128" on="1"/>
        <pt x="576" y="320" on="1"/>
      </contour>
    </TTGlyph>
    <TTGlyph name="dcroat" xMin="128" yMin="-32" xMax="1664" yMax="1536">
      <contour>
        <pt x="896" y="1409" on="1"/>
        <pt x="1344" y="1409" on="1"/>
        <pt x="1344" y="1536" on="1"/>
        <pt x="1536" y="1536" on="1"/>
        <pt x="1536" y="1409" on="1"/>
        <pt x="1664" y="1409" on="1"/>
        <pt x="1664" y="1249" on="1"/>
        <pt x="1536" y="1249" on="1"/>
        <pt x="1536" y="0" on="1"/>
        <pt x="1344" y="0" on="1"/>
        <pt x="1344" y="127" on="1"/>
        <pt x="1319" y="82" on="0"/>
        <pt x="1256" y="47" on="1"/>
        <pt x="1229" y="32" on="0"/>
        <pt x="1153" y="4" on="0"/>
        <pt x="1049" y="-19" on="0"/>
        <pt x="916" y="-32" on="0"/>
        <pt x="832" y="-32" on="1"/>
        <pt x="640" y="-32" on="0"/>
        <pt x="372" y="22" on="0"/>
        <pt x="204" y="154" on="0"/>
        <pt x="128" y="376" on="0"/>
        <pt x="128" y="544" on="1"/>
        <pt x="128" y="712" on="0"/>
        <pt x="204" y="934" on="0"/>
        <pt x="372" y="1066" on="0"/>
        <pt x="640" y="1120" on="0"/>
        <pt x="832" y="1120" on="1"/>
        <pt x="916" y="1120" on="0"/>
        <pt x="1049" y="1106" on="0"/>
        <pt x="1153" y="1084" on="0"/>
        <pt x="1229" y="1055" on="0"/>
        <pt x="1256" y="1040" on="1"/>
        <pt x="1319" y="1005" on="0"/>
        <pt x="1344" y="960" on="1"/>
        <pt x="1344" y="1249" on="1"/>
        <pt x="896" y="1249" on="1"/>
      </contour>
      <contour>
        <pt x="832" y="128" on="1"/>
        <pt x="928" y="128" on="0"/>
        <pt x="1078" y="136" on="0"/>
        <pt x="1192" y="165" on="0"/>
        <pt x="1271" y="219" on="0"/>
        <pt x="1321" y="310" on="0"/>
        <pt x="1344" y="446" on="0"/>
        <pt x="1344" y="541" on="1"/>
        <pt x="1344" y="638" on="0"/>
        <pt x="1321" y="775" on="0"/>
        <pt x="1271" y="868" on="0"/>
        <pt x="1192" y="923" on="0"/>
        <pt x="1078" y="952" on="0"/>
        <pt x="928" y="960" on="0"/>
        <pt x="832" y="960" on="1"/>
        <pt x="720" y="960" on="0"/>
        <pt x="557" y="947" on="0"/>
        <pt x="443" y="913" on="0"/>
        <pt x="372" y="855" on="0"/>
        <pt x="333" y="762" on="0"/>
        <pt x="320" y="632" on="0"/>
        <pt x="320" y="544" on="1"/>
        <pt x="320" y="456" on="0"/>
        <pt x="333" y="326" on="0"/>
        <pt x="372" y="233" on="0"/>
        <pt x="443" y="175" on="0"/>
        <pt x="557" y="141" on="0"/>
        <pt x="720" y="128" on="0"/>
      </contour>
    </TTGlyph>
    <TTGlyph name="degree" xMin="192" yMin="96" xMax="1088" yMax="928">
      <contour>
        <pt x="640" y="928" on="1"/>
        <pt x="544" y="928" on="0"/>
        <pt x="380" y="879" on="0"/>
        <pt x="260" y="777" on="0"/>
        <pt x="192" y="620" on="0"/>
        <pt x="192" y="512" on="1"/>
        <pt x="192" y="404" on="0"/>
        <pt x="260" y="247" on="0"/>
        <pt x="380" y="145" on="0"/>
        <pt x="544" y="96" on="0"/>
        <pt x="640" y="96" on="1"/>
        <pt x="736" y="96" on="0"/>
        <pt x="900" y="145" on="0"/>
        <pt x="1020" y="247" on="0"/>
        <pt x="1088" y="404" on="0"/>
        <pt x="1088" y="512" on="1"/>
        <pt x="1088" y="620" on="0"/>
        <pt x="1020" y="777" on="0"/>
        <pt x="900" y="879" on="0"/>
        <pt x="736" y="928" on="0"/>
      </contour>
      <contour>
        <pt x="640" y="256" on="1"/>
        <pt x="586" y="256" on="0"/>
        <pt x="492" y="282" on="0"/>
        <pt x="423" y="342" on="0"/>
        <pt x="384" y="440" on="0"/>
        <pt x="384" y="512" on="1"/>
        <pt x="384" y="584" on="0"/>
        <pt x="423" y="682" on="0"/>
        <pt x="492" y="742" on="0"/>
        <pt x="586" y="768" on="0"/>
        <pt x="640" y="768" on="1"/>
        <pt x="694" y="768" on="0"/>
        <pt x="787" y="742" on="0"/>
        <pt x="856" y="682" on="0"/>
        <pt x="896" y="584" on="0"/>
        <pt x="896" y="512" on="1"/>
        <pt x="896" y="440" on="0"/>
        <pt x="856" y="342" on="0"/>
        <pt x="787" y="282" on="0"/>
        <pt x="694" y="256" on="0"/>
      </contour>
    </TTGlyph>
    <TTGlyph name="dieresis" xMin="64" yMin="1344" xMax="1024" yMax="1536">
      <contour>
        <pt x="256" y="1536" on="1"/>
        <pt x="64" y="1536" on="1"/>
        <pt x="64" y="1344" on="1"/>
        <pt x="256" y="1344" on="1"/>
      </contour>
      <contour>
        <pt x="1024" y="1536" on="1"/>
        <pt x="832" y="1536" on="1"/>
        <pt x="832" y="1344" on="1"/>
        <pt x="1024" y="1344" on="1"/>
      </contour>
    </TTGlyph>
    <TTGlyph name="divide" xMin="128" yMin="192" xMax="1152" yMax="960">
      <contour>
        <pt x="128" y="512" on="1"/>
        <pt x="1152" y="512" on="1"/>
        <pt x="1152" y="672" on="1"/>
        <pt x="128" y="672" on="1"/>
      </contour>
      <contour>
        <pt x="768" y="960" on="1"/>
        <pt x="576" y="960" on="1"/>
        <pt x="576" y="768" on="1"/>
        <pt x="768" y="768" on="1"/>
      </contour>
      <contour>
        <pt x="768" y="384" on="1"/>
        <pt x="576" y="384" on="1"/>
        <pt x="576" y="192" on="1"/>
        <pt x="768" y="192" on="1"/>
      </contour>
    </TTGlyph>
    <TTGlyph name="dollar" xMin="128" yMin="-128" xMax="1856" yMax="1664">
      <contour>
        <pt x="913" y="-36" on="1"/>
        <pt x="832" y="-36" on="1"/>
        <pt x="688" y="-36" on="0"/>
        <pt x="472" y="-14" on="0"/>
        <pt x="316" y="31" on="0"/>
        <pt x="214" y="100" on="0"/>
        <pt x="153" y="193" on="0"/>
        <pt x="129" y="312" on="0"/>
        <pt x="129" y="384" on="1"/>
        <pt x="321" y="384" on="1"/>
        <pt x="321" y="294" on="0"/>
        <pt x="373" y="192" on="0"/>
        <pt x="493" y="141" on="0"/>
        <pt x="688" y="128" on="0"/>
        <pt x="832" y="128" on="1"/>
        <pt x="913" y="128" on="1"/>
        <pt x="913" y="704" on="1"/>
        <pt x="896" y="704" on="1"/>
        <pt x="720" y="704" on="0"/>
        <pt x="469" y="730" on="0"/>
        <pt x="299" y="779" on="0"/>
        <pt x="197" y="852" on="0"/>
        <pt x="144" y="946" on="0"/>
        <pt x="128" y="1061" on="0"/>
        <pt x="128" y="1128" on="1"/>
        <pt x="128" y="1198" on="0"/>
        <pt x="153" y="1318" on="0"/>
        <pt x="221" y="1415" on="0"/>
        <pt x="339" y="1491" on="0"/>
        <pt x="524" y="1542" on="0"/>
        <pt x="654" y="1555" on="1"/>
        <pt x="766" y="1566" on="0"/>
        <pt x="913" y="1568" on="1"/>
        <pt x="913" y="1664" on="1"/>
        <pt x="1105" y="1664" on="1"/>
        <pt x="1105" y="1568" on="1"/>
        <pt x="1152" y="1568" on="1"/>
        <pt x="1296" y="1568" on="0"/>
        <pt x="1512" y="1547" on="0"/>
        <pt x="1668" y="1502" on="0"/>
        <pt x="1771" y="1435" on="0"/>
        <pt x="1832" y="1342" on="0"/>
        <pt x="1856" y="1224" on="0"/>
        <pt x="1856" y="1152" on="1"/>
        <pt x="1664" y="1152" on="1"/>
        <pt x="1664" y="1242" on="0"/>
        <pt x="1612" y="1344" on="0"/>
        <pt x="1492" y="1395" on="0"/>
        <pt x="1296" y="1408" on="0"/>
        <pt x="1152" y="1408" on="1"/>
        <pt x="1105" y="1408" on="1"/>
        <pt x="1105" y="864" on="1"/>
        <pt x="1160" y="864" on="1"/>
        <pt x="1318" y="864" on="0"/>
        <pt x="1544" y="838" on="0"/>
        <pt x="1699" y="787" on="0"/>
        <pt x="1791" y="711" on="0"/>
        <pt x="1841" y="614" on="0"/>
        <pt x="1856" y="494" on="0"/>
        <pt x="1856" y="424" on="1"/>
        <pt x="1856" y="354" on="0"/>
        <pt x="1831" y="231" on="0"/>
        <pt x="1767" y="129" on="0"/>
        <pt x="1657" y="49" on="0"/>
        <pt x="1487" y="-7" on="0"/>
        <pt x="1367" y="-21" on="1"/>
        <pt x="1254" y="-35" on="0"/>
        <pt x="1105" y="-36" on="1"/>
        <pt x="1105" y="-128" on="1"/>
        <pt x="913" y="-128" on="1"/>
      </contour>
      <contour>
        <pt x="913" y="864" on="1"/>
        <pt x="913" y="1408" on="1"/>
        <pt x="752" y="1406" on="0"/>
        <pt x="644" y="1394" on="1"/>
        <pt x="520" y="1381" on="0"/>
        <pt x="376" y="1317" on="0"/>
        <pt x="320" y="1209" on="0"/>
        <pt x="320" y="1128" on="1"/>
        <pt x="320" y="1078" on="0"/>
        <pt x="334" y="1000" on="0"/>
        <pt x="377" y="941" on="0"/>
        <pt x="455" y="901" on="0"/>
        <pt x="583" y="875" on="0"/>
        <pt x="768" y="864" on="0"/>
        <pt x="896" y="864" on="1"/>
      </contour>
      <contour>
        <pt x="1105" y="704" on="1"/>
        <pt x="1105" y="128" on="1"/>
        <pt x="1262" y="129" on="0"/>
        <pt x="1367" y="144" on="1"/>
        <pt x="1478" y="160" on="0"/>
        <pt x="1610" y="230" on="0"/>
        <pt x="1664" y="343" on="0"/>
        <pt x="1664" y="424" on="1"/>
        <pt x="1664" y="505" on="0"/>
        <pt x="1627" y="613" on="0"/>
        <pt x="1518" y="677" on="0"/>
        <pt x="1320" y="704" on="0"/>
        <pt x="1160" y="704" on="1"/>
      </contour>
    </TTGlyph>
    <TTGlyph name="dotaccent" xMin="128" yMin="1344" xMax="320" yMax="1536">
      <contour>
        <pt x="320" y="1536" on="1"/>
        <pt x="128" y="1536" on="1"/>
        <pt x="128" y="1344" on="1"/>
        <pt x="320" y="1344" on="1"/>
      </contour>
    </TTGlyph>
    <TTGlyph name="dotlessi" xMin="128" yMin="0" xMax="320" yMax="1088">
      <contour>
        <pt x="128" y="0" on="1"/>
        <pt x="320" y="0" on="1"/>
        <pt x="320" y="1088" on="1"/>
        <pt x="128" y="1088" on="1"/>
      </contour>
    </TTGlyph>
    <TTGlyph name="dotlessj" xMin="128" yMin="-384" xMax="480" yMax="1088">
      <contour>
        <pt x="480" y="1088" on="1"/>
        <pt x="288" y="1088" on="1"/>
        <pt x="288" y="-64" on="1"/>
        <pt x="288" y="-112" on="0"/>
        <pt x="274" y="-174" on="0"/>
        <pt x="238" y="-210" on="0"/>
        <pt x="176" y="-224" on="0"/>
        <pt x="128" y="-224" on="1"/>
        <pt x="128" y="-384" on="1"/>
        <pt x="248" y="-384" on="0"/>
        <pt x="388" y="-339" on="0"/>
        <pt x="460" y="-256" on="0"/>
        <pt x="480" y="-138" on="0"/>
        <pt x="480" y="-64" on="1"/>
      </contour>
    </TTGlyph>
    <TTGlyph name="doublegrave" xMin="128" yMin="1280" xMax="1385" yMax="1856">
      <contour>
        <pt x="1321" y="1280" on="1"/>
        <pt x="1385" y="1376" on="1"/>
        <pt x="809" y="1856" on="1"/>
        <pt x="681" y="1664" on="1"/>
      </contour>
      <contour>
        <pt x="768" y="1280" on="1"/>
        <pt x="832" y="1376" on="1"/>
        <pt x="256" y="1856" on="1"/>
        <pt x="128" y="1664" on="1"/>
      </contour>
    </TTGlyph>
    <TTGlyph name="e" xMin="96" yMin="-22" xMax="1440" yMax="1184">
      <contour>
        <pt x="800" y="-22" on="1"/>
        <pt x="608" y="-22" on="0"/>
        <pt x="340" y="31" on="0"/>
        <pt x="172" y="161" on="0"/>
        <pt x="96" y="379" on="0"/>
        <pt x="96" y="544" on="1"/>
        <pt x="96" y="733" on="0"/>
        <pt x="172" y="980" on="0"/>
        <pt x="340" y="1126" on="0"/>
        <pt x="608" y="1184" on="0"/>
        <pt x="800" y="1184" on="1"/>
        <pt x="937" y="1184" on="0"/>
        <pt x="1138" y="1144" on="0"/>
        <pt x="1281" y="1068" on="0"/>
        <pt x="1370" y="960" on="0"/>
        <pt x="1421" y="841" on="0"/>
        <pt x="1440" y="681" on="0"/>
        <pt x="1440" y="592" on="1"/>
        <pt x="1424" y="528" on="1"/>
        <pt x="288" y="528" on="1"/>
        <pt x="288" y="396" on="0"/>
        <pt x="340" y="227" on="0"/>
        <pt x="460" y="149" on="0"/>
        <pt x="656" y="128" on="0"/>
        <pt x="800" y="128" on="1"/>
        <pt x="932" y="128" on="0"/>
        <pt x="1105" y="143" on="0"/>
        <pt x="1207" y="185" on="0"/>
        <pt x="1248" y="260" on="0"/>
        <pt x="1248" y="320" on="1"/>
        <pt x="1440" y="320" on="1"/>
        <pt x="1440" y="227" on="0"/>
        <pt x="1375" y="96" on="0"/>
        <pt x="1225" y="15" on="0"/>
        <pt x="980" y="-22" on="0"/>
      </contour>
      <contour>
        <pt x="800" y="1024" on="1"/>
        <pt x="704" y="1024" on="0"/>
        <pt x="553" y="1016" on="0"/>
        <pt x="440" y="989" on="0"/>
        <pt x="360" y="938" on="0"/>
        <pt x="311" y="869" on="0"/>
        <pt x="288" y="744" on="0"/>
        <pt x="288" y="656" on="1"/>
        <pt x="1248" y="656" on="1"/>
        <pt x="1248" y="773" on="0"/>
        <pt x="1198" y="906" on="0"/>
        <pt x="1090" y="992" on="0"/>
        <pt x="920" y="1024" on="0"/>
      </contour>
    </TTGlyph>
    <TTGlyph name="eacute" xMin="128" yMin="-22" xMax="1472" yMax="1856">
      <component glyphName="e" x="32" y="0" flags="0x1004"/>
      <component glyphName="acute" x="320" y="0" flags="0x1004"/>
    </TTGlyph>
    <TTGlyph name="ecaron" xMin="128" yMin="-22" xMax="1472" yMax="1819">
      <component glyphName="caron" x="288" y="-37" flags="0x1004"/>
      <component glyphName="e" x="32" y="0" flags="0x1004"/>
    </TTGlyph>
    <TTGlyph name="ecircumflex" xMin="128" yMin="-22" xMax="1472" yMax="1856">
      <component glyphName="e" x="32" y="0" flags="0x1004"/>
      <component glyphName="circumflex" x="256" y="0" flags="0x1004"/>
    </TTGlyph>
    <TTGlyph name="edieresis" xMin="128" yMin="-22" xMax="1472" yMax="1536">
      <component glyphName="e" x="32" y="0" flags="0x1004"/>
      <component glyphName="dieresis" x="256" y="0" flags="0x1004"/>
    </TTGlyph>
    <TTGlyph name="edotaccent" xMin="128" yMin="-22" xMax="1472" yMax="1436">
      <component glyphName="dotaccent" x="608" y="-100" flags="0x1004"/>
      <component glyphName="e" x="32" y="0" flags="0x1004"/>
    </TTGlyph>
    <TTGlyph name="egrave" xMin="128" yMin="-22" xMax="1472" yMax="1856">
      <component glyphName="e" x="32" y="0" flags="0x1004"/>
      <component glyphName="grave" x="320" y="0" flags="0x1004"/>
    </TTGlyph>
    <TTGlyph name="eight" xMin="128" yMin="-32" xMax="1856" yMax="1568">
      <contour>
        <pt x="1121" y="1568" on="1"/>
        <pt x="1337" y="1568" on="0"/>
        <pt x="1611" y="1514" on="0"/>
        <pt x="1766" y="1409" on="0"/>
        <pt x="1824" y="1254" on="0"/>
        <pt x="1824" y="1152" on="1"/>
        <pt x="1824" y="1095" on="0"/>
        <pt x="1804" y="994" on="0"/>
        <pt x="1753" y="910" on="0"/>
        <pt x="1667" y="841" on="0"/>
        <pt x="1600" y="816" on="1"/>
        <pt x="1676" y="788" on="0"/>
        <pt x="1776" y="710" on="0"/>
        <pt x="1833" y="612" on="0"/>
        <pt x="1856" y="497" on="0"/>
        <pt x="1856" y="432" on="1"/>
        <pt x="1856" y="357" on="0"/>
        <pt x="1832" y="230" on="0"/>
        <pt x="1772" y="127" on="0"/>
        <pt x="1669" y="48" on="0"/>
        <pt x="1513" y="-5" on="0"/>
        <pt x="1296" y="-32" on="0"/>
        <pt x="1152" y="-32" on="1"/>
        <pt x="831" y="-32" on="1"/>
        <pt x="615" y="-32" on="0"/>
        <pt x="341" y="29" on="0"/>
        <pt x="186" y="147" on="0"/>
        <pt x="128" y="320" on="0"/>
        <pt x="128" y="432" on="1"/>
        <pt x="128" y="497" on="0"/>
        <pt x="150" y="612" on="0"/>
        <pt x="208" y="710" on="0"/>
        <pt x="307" y="788" on="0"/>
        <pt x="384" y="816" on="1"/>
        <pt x="317" y="841" on="0"/>
        <pt x="230" y="910" on="0"/>
        <pt x="180" y="994" on="0"/>
        <pt x="160" y="1095" on="0"/>
        <pt x="160" y="1152" on="1"/>
        <pt x="160" y="1254" on="0"/>
        <pt x="218" y="1409" on="0"/>
        <pt x="373" y="1514" on="0"/>
        <pt x="647" y="1568" on="0"/>
        <pt x="863" y="1568" on="1"/>
      </contour>
      <contour>
        <pt x="1152" y="128" on="1"/>
        <pt x="1264" y="128" on="0"/>
        <pt x="1427" y="141" on="0"/>
        <pt x="1540" y="170" on="0"/>
        <pt x="1611" y="216" on="0"/>
        <pt x="1650" y="284" on="0"/>
        <pt x="1664" y="374" on="0"/>
        <pt x="1664" y="432" on="1"/>
        <pt x="1664" y="488" on="0"/>
        <pt x="1651" y="577" on="0"/>
        <pt x="1612" y="644" on="0"/>
        <pt x="1541" y="692" on="0"/>
        <pt x="1427" y="722" on="0"/>
        <pt x="1264" y="736" on="0"/>
        <pt x="1152" y="736" on="1"/>
        <pt x="831" y="736" on="1"/>
        <pt x="719" y="736" on="0"/>
        <pt x="556" y="722" on="0"/>
        <pt x="443" y="692" on="0"/>
        <pt x="372" y="644" on="0"/>
        <pt x="333" y="577" on="0"/>
        <pt x="320" y="488" on="0"/>
        <pt x="320" y="432" on="1"/>
        <pt x="320" y="374" on="0"/>
        <pt x="334" y="284" on="0"/>
        <pt x="373" y="216" on="0"/>
        <pt x="443" y="170" on="0"/>
        <pt x="557" y="141" on="0"/>
        <pt x="719" y="128" on="0"/>
        <pt x="831" y="128" on="1"/>
      </contour>
      <contour>
        <pt x="1152" y="896" on="1"/>
        <pt x="1309" y="896" on="0"/>
        <pt x="1498" y="919" on="0"/>
        <pt x="1599" y="977" on="0"/>
        <pt x="1632" y="1076" on="0"/>
        <pt x="1632" y="1152" on="1"/>
        <pt x="1632" y="1202" on="0"/>
        <pt x="1619" y="1279" on="0"/>
        <pt x="1580" y="1336" on="0"/>
        <pt x="1509" y="1374" on="0"/>
        <pt x="1395" y="1398" on="0"/>
        <pt x="1232" y="1408" on="0"/>
        <pt x="1120" y="1408" on="1"/>
        <pt x="863" y="1408" on="1"/>
        <pt x="751" y="1408" on="0"/>
        <pt x="588" y="1398" on="0"/>
        <pt x="475" y="1374" on="0"/>
        <pt x="404" y="1336" on="0"/>
        <pt x="365" y="1279" on="0"/>
        <pt x="352" y="1202" on="0"/>
        <pt x="352" y="1152" on="1"/>
        <pt x="352" y="1100" on="0"/>
        <pt x="366" y="1022" on="0"/>
        <pt x="405" y="965" on="0"/>
        <pt x="475" y="927" on="0"/>
        <pt x="589" y="905" on="0"/>
        <pt x="751" y="896" on="0"/>
        <pt x="863" y="896" on="1"/>
      </contour>
    </TTGlyph>
    <TTGlyph name="ellipsis" xMin="128" yMin="0" xMax="1216" yMax="192">
      <component glyphName="period" x="896" y="0" flags="0x1004"/>
      <component glyphName="period" x="448" y="0" flags="0x1004"/>
      <component glyphName="period" x="0" y="0" flags="0x1004"/>
    </TTGlyph>
    <TTGlyph name="emacron" xMin="128" yMin="-22" xMax="1472" yMax="1404">
      <component glyphName="macron" x="320" y="-100" flags="0x1004"/>
      <component glyphName="e" x="32" y="0" flags="0x1004"/>
    </TTGlyph>
    <TTGlyph name="emdash" xMin="0" yMin="512" xMax="1088" yMax="672">
      <contour>
        <pt x="0" y="512" on="1"/>
        <pt x="1088" y="512" on="1"/>
        <pt x="1088" y="672" on="1"/>
        <pt x="0" y="672" on="1"/>
      </contour>
    </TTGlyph>
    <TTGlyph name="endash" xMin="128" yMin="512" xMax="960" yMax="672">
      <contour>
        <pt x="128" y="512" on="1"/>
        <pt x="960" y="512" on="1"/>
        <pt x="960" y="672" on="1"/>
        <pt x="128" y="672" on="1"/>
      </contour>
    </TTGlyph>
    <TTGlyph name="eogonek" xMin="128" yMin="-587" xMax="1472" yMax="1184">
      <component glyphName="ogonek" x="551" y="-75" flags="0x1004"/>
      <component glyphName="e" x="32" y="0" flags="0x1004"/>
    </TTGlyph>
    <TTGlyph name="equal" xMin="128" yMin="320" xMax="1344" yMax="1024">
      <contour>
        <pt x="128" y="1024" on="1"/>
        <pt x="1344" y="1024" on="1"/>
        <pt x="1344" y="864" on="1"/>
        <pt x="128" y="864" on="1"/>
      </contour>
      <contour>
        <pt x="128" y="480" on="1"/>
        <pt x="1344" y="480" on="1"/>
        <pt x="1344" y="320" on="1"/>
        <pt x="128" y="320" on="1"/>
      </contour>
    </TTGlyph>
    <TTGlyph name="eth" xMin="128" yMin="-32" xMax="2047" yMax="1568">
      <contour>
        <pt x="1324" y="1026" on="1"/>
        <pt x="1631" y="1136" on="1"/>
        <pt x="1664" y="1020" on="0"/>
        <pt x="1664" y="832" on="1"/>
        <pt x="1638" y="848" on="0"/>
        <pt x="1573" y="874" on="0"/>
        <pt x="1483" y="896" on="0"/>
        <pt x="1361" y="912" on="0"/>
        <pt x="1193" y="923" on="0"/>
        <pt x="973" y="928" on="0"/>
        <pt x="831" y="928" on="1"/>
        <pt x="615" y="928" on="0"/>
        <pt x="341" y="868" on="0"/>
        <pt x="186" y="748" on="0"/>
        <pt x="128" y="568" on="0"/>
        <pt x="128" y="448" on="1"/>
        <pt x="128" y="328" on="0"/>
        <pt x="186" y="148" on="0"/>
        <pt x="341" y="28" on="0"/>
        <pt x="615" y="-32" on="0"/>
        <pt x="831" y="-32" on="1"/>
        <pt x="1152" y="-32" on="1"/>
        <pt x="1328" y="-32" on="0"/>
        <pt x="1569" y="11" on="0"/>
        <pt x="1726" y="98" on="0"/>
        <pt x="1810" y="230" on="0"/>
        <pt x="1849" y="408" on="0"/>
        <pt x="1856" y="632" on="0"/>
        <pt x="1856" y="768" on="1"/>
        <pt x="1856" y="899" on="0"/>
        <pt x="1828" y="1111" on="0"/>
        <pt x="1796" y="1196" on="1"/>
        <pt x="2047" y="1286" on="1"/>
        <pt x="2004" y="1406" on="1"/>
        <pt x="1739" y="1311" on="1"/>
        <pt x="1694" y="1378" on="0"/>
        <pt x="1565" y="1476" on="0"/>
        <pt x="1390" y="1538" on="0"/>
        <pt x="1165" y="1568" on="0"/>
        <pt x="1024" y="1568" on="1"/>
        <pt x="848" y="1568" on="0"/>
        <pt x="588" y="1542" on="0"/>
        <pt x="403" y="1490" on="0"/>
        <pt x="285" y="1414" on="0"/>
        <pt x="218" y="1314" on="0"/>
        <pt x="193" y="1192" on="0"/>
        <pt x="193" y="1120" on="1"/>
        <pt x="352" y="1120" on="1"/>
        <pt x="352" y="1160" on="0"/>
        <pt x="363" y="1234" on="0"/>
        <pt x="405" y="1298" on="0"/>
        <pt x="491" y="1350" on="0"/>
        <pt x="640" y="1388" on="0"/>
        <pt x="864" y="1408" on="0"/>
        <pt x="1024" y="1408" on="1"/>
        <pt x="1129" y="1408" on="0"/>
        <pt x="1302" y="1399" on="0"/>
        <pt x="1440" y="1368" on="0"/>
        <pt x="1543" y="1306" on="0"/>
        <pt x="1579" y="1253" on="1"/>
        <pt x="1281" y="1146" on="1"/>
      </contour>
      <contour>
        <pt x="831" y="768" on="1"/>
        <pt x="1016" y="768" on="0"/>
        <pt x="1284" y="763" on="0"/>
        <pt x="1469" y="745" on="0"/>
        <pt x="1582" y="711" on="0"/>
        <pt x="1644" y="654" on="0"/>
        <pt x="1664" y="570" on="0"/>
        <pt x="1664" y="512" on="1"/>
        <pt x="1664" y="392" on="0"/>
        <pt x="1622" y="242" on="0"/>
        <pt x="1509" y="158" on="0"/>
        <pt x="1309" y="128" on="0"/>
        <pt x="1152" y="128" on="1"/>
        <pt x="831" y="128" on="1"/>
        <pt x="719" y="128" on="0"/>
        <pt x="556" y="140" on="0"/>
        <pt x="443" y="168" on="0"/>
        <pt x="372" y="216" on="0"/>
        <pt x="333" y="287" on="0"/>
        <pt x="320" y="384" on="0"/>
        <pt x="320" y="448" on="1"/>
        <pt x="320" y="512" on="0"/>
        <pt x="334" y="609" on="0"/>
        <pt x="373" y="680" on="0"/>
        <pt x="443" y="728" on="0"/>
        <pt x="557" y="756" on="0"/>
        <pt x="719" y="768" on="0"/>
      </contour>
    </TTGlyph>
    <TTGlyph name="exclam" xMin="128" yMin="0" xMax="320" yMax="1536">
      <contour>
        <pt x="128" y="1536" on="1"/>
        <pt x="320" y="1536" on="1"/>
        <pt x="272" y="448" on="1"/>
        <pt x="176" y="448" on="1"/>
      </contour>
      <contour>
        <pt x="320" y="0" on="1"/>
        <pt x="128" y="0" on="1"/>
        <pt x="128" y="192" on="1"/>
        <pt x="320" y="192" on="1"/>
      </contour>
    </TTGlyph>
    <TTGlyph name="exclamdown" xMin="128" yMin="-1" xMax="320" yMax="1536">
      <component glyphName="exclam" x="0" y="1536" scalex="1.0" scaley="-0.999938964844" flags="0x1004"/>
    </TTGlyph>
    <TTGlyph name="f" xMin="128" yMin="0" xMax="1056" yMax="1568">
      <contour>
        <pt x="512" y="1006" on="1"/>
        <pt x="512" y="0" on="1"/>
        <pt x="320" y="0" on="1"/>
        <pt x="320" y="1006" on="1"/>
        <pt x="128" y="1006" on="1"/>
        <pt x="128" y="1152" on="1"/>
        <pt x="320" y="1152" on="1"/>
        <pt x="320" y="1162" on="1"/>
        <pt x="320" y="1279" on="0"/>
        <pt x="372" y="1435" on="0"/>
        <pt x="492" y="1529" on="0"/>
        <pt x="689" y="1568" on="0"/>
        <pt x="833" y="1568" on="1"/>
        <pt x="1056" y="1568" on="1"/>
        <pt x="1056" y="1408" on="1"/>
        <pt x="832" y="1408" on="1"/>
        <pt x="741" y="1408" on="0"/>
        <pt x="619" y="1400" on="0"/>
        <pt x="544" y="1354" on="0"/>
        <pt x="512" y="1254" on="0"/>
        <pt x="512" y="1162" on="1"/>
        <pt x="512" y="1152" on="1"/>
        <pt x="1056" y="1152" on="1"/>
        <pt x="1056" y="1006" on="1"/>
      </contour>
    </TTGlyph>
    <TTGlyph name="fi" xMin="128" yMin="0" xMax="1504" yMax="1568">
      <component glyphName="f" x="0" y="0" flags="0x1004"/>
      <component glyphName="i" x="1120" y="0" flags="0x1004"/>
    </TTGlyph>
    <TTGlyph name="five" xMin="128" yMin="-32" xMax="1856" yMax="1536">
      <contour>
        <pt x="1280" y="1056" on="1"/>
        <pt x="1408" y="1056" on="0"/>
        <pt x="1593" y="1029" on="0"/>
        <pt x="1721" y="972" on="0"/>
        <pt x="1799" y="884" on="0"/>
        <pt x="1842" y="763" on="0"/>
        <pt x="1856" y="608" on="0"/>
        <pt x="1856" y="512" on="1"/>
        <pt x="1856" y="387" on="0"/>
        <pt x="1813" y="208" on="0"/>
        <pt x="1724" y="87" on="0"/>
        <pt x="1588" y="16" on="0"/>
        <pt x="1403" y="-21" on="0"/>
        <pt x="1168" y="-32" on="0"/>
        <pt x="1024" y="-32" on="1"/>
        <pt x="880" y="-32" on="0"/>
        <pt x="635" y="-28" on="0"/>
        <pt x="436" y="0" on="0"/>
        <pt x="284" y="61" on="0"/>
        <pt x="181" y="175" on="0"/>
        <pt x="128" y="351" on="0"/>
        <pt x="128" y="480" on="1"/>
        <pt x="320" y="480" on="1"/>
        <pt x="320" y="404" on="0"/>
        <pt x="327" y="293" on="0"/>
        <pt x="366" y="215" on="0"/>
        <pt x="450" y="166" on="0"/>
        <pt x="607" y="138" on="0"/>
        <pt x="848" y="128" on="0"/>
        <pt x="1024" y="128" on="1"/>
        <pt x="1152" y="128" on="0"/>
        <pt x="1346" y="132" on="0"/>
        <pt x="1489" y="154" on="0"/>
        <pt x="1583" y="201" on="0"/>
        <pt x="1640" y="287" on="0"/>
        <pt x="1664" y="418" on="0"/>
        <pt x="1664" y="513" on="1"/>
        <pt x="1664" y="641" on="0"/>
        <pt x="1634" y="793" on="0"/>
        <pt x="1550" y="872" on="0"/>
        <pt x="1400" y="896" on="0"/>
        <pt x="1280" y="896" on="1"/>
        <pt x="768" y="896" on="1"/>
        <pt x="636" y="896" on="0"/>
        <pt x="472" y="873" on="0"/>
        <pt x="376" y="831" on="0"/>
        <pt x="332" y="772" on="0"/>
        <pt x="320" y="736" on="1"/>
        <pt x="128" y="736" on="1"/>
        <pt x="128" y="1536" on="1"/>
        <pt x="1792" y="1536" on="1"/>
        <pt x="1792" y="1376" on="1"/>
        <pt x="320" y="1376" on="1"/>
        <pt x="320" y="896" on="1"/>
        <pt x="321" y="898" on="0"/>
        <pt x="336" y="923" on="0"/>
        <pt x="373" y="959" on="0"/>
        <pt x="436" y="999" on="0"/>
        <pt x="535" y="1033" on="0"/>
        <pt x="674" y="1056" on="0"/>
        <pt x="768" y="1056" on="1"/>
      </contour>
    </TTGlyph>
    <TTGlyph name="fl" xMin="128" yMin="0" xMax="1504" yMax="1568">
      <component glyphName="f" x="0" y="0" flags="0x1004"/>
      <component glyphName="l" x="1120" y="0" flags="0x1004"/>
    </TTGlyph>
    <TTGlyph name="florin" xMin="-1" yMin="-288" xMax="960" yMax="1568">
      <contour>
        <pt x="320" y="960" on="1"/>
        <pt x="128" y="960" on="1"/>
        <pt x="128" y="1088" on="1"/>
        <pt x="320" y="1088" on="1"/>
        <pt x="320" y="1152" on="1"/>
        <pt x="320" y="1272" on="0"/>
        <pt x="372" y="1432" on="0"/>
        <pt x="492" y="1528" on="0"/>
        <pt x="689" y="1568" on="0"/>
        <pt x="833" y="1568" on="1"/>
        <pt x="960" y="1568" on="1"/>
        <pt x="960" y="1408" on="1"/>
        <pt x="832" y="1408" on="1"/>
        <pt x="741" y="1408" on="0"/>
        <pt x="619" y="1400" on="0"/>
        <pt x="544" y="1352" on="0"/>
        <pt x="512" y="1248" on="0"/>
        <pt x="512" y="1152" on="1"/>
        <pt x="512" y="1088" on="1"/>
        <pt x="960" y="1088" on="1"/>
        <pt x="960" y="960" on="1"/>
        <pt x="512" y="960" on="1"/>
        <pt x="512" y="128" on="1"/>
        <pt x="512" y="8" on="0"/>
        <pt x="460" y="-152" on="0"/>
        <pt x="340" y="-248" on="0"/>
        <pt x="143" y="-288" on="0"/>
        <pt x="-1" y="-288" on="1"/>
        <pt x="0" y="-128" on="1"/>
        <pt x="91" y="-128" on="0"/>
        <pt x="213" y="-120" on="0"/>
        <pt x="288" y="-72" on="0"/>
        <pt x="320" y="32" on="0"/>
        <pt x="320" y="128" on="1"/>
      </contour>
    </TTGlyph>
    <TTGlyph name="four" xMin="128" yMin="0" xMax="1920" yMax="1536">
      <contour>
        <pt x="1664" y="320" on="1"/>
        <pt x="1664" y="0" on="1"/>
        <pt x="1472" y="0" on="1"/>
        <pt x="1472" y="320" on="1"/>
        <pt x="128" y="320" on="1"/>
        <pt x="128" y="512" on="1"/>
        <pt x="1408" y="1536" on="1"/>
        <pt x="1664" y="1536" on="1"/>
        <pt x="1664" y="480" on="1"/>
        <pt x="1920" y="480" on="1"/>
        <pt x="1920" y="320" on="1"/>
      </contour>
      <contour>
        <pt x="1472" y="480" on="1"/>
        <pt x="1472" y="1408" on="1"/>
        <pt x="320" y="480" on="1"/>
      </contour>
    </TTGlyph>
    <TTGlyph name="foursuperior" xMin="128" yMin="0" xMax="1344" yMax="1088">
      <contour>
        <pt x="1344" y="192" on="1"/>
        <pt x="1344" y="352" on="1"/>
        <pt x="1152" y="352" on="1"/>
        <pt x="1152" y="1088" on="1"/>
        <pt x="896" y="1088" on="1"/>
        <pt x="128" y="384" on="1"/>
        <pt x="128" y="192" on="1"/>
        <pt x="960" y="192" on="1"/>
        <pt x="960" y="0" on="1"/>
        <pt x="1152" y="0" on="1"/>
        <pt x="1152" y="192" on="1"/>
      </contour>
      <contour>
        <pt x="320" y="352" on="1"/>
        <pt x="960" y="960" on="1"/>
        <pt x="960" y="352" on="1"/>
      </contour>
    </TTGlyph>
    <TTGlyph name="fraction" xMin="64" yMin="0" xMax="960" yMax="1536">
      <contour>
        <pt x="64" y="0" on="1"/>
        <pt x="256" y="0" on="1"/>
        <pt x="960" y="1536" on="1"/>
        <pt x="768" y="1536" on="1"/>
      </contour>
    </TTGlyph>
    <TTGlyph name="g" xMin="96" yMin="-421" xMax="1504" yMax="1184">
      <contour>
        <pt x="800" y="1024" on="1"/>
        <pt x="688" y="1024" on="0"/>
        <pt x="525" y="1010" on="0"/>
        <pt x="411" y="974" on="0"/>
        <pt x="340" y="910" on="0"/>
        <pt x="301" y="810" on="0"/>
        <pt x="288" y="669" on="0"/>
        <pt x="288" y="574" on="1"/>
        <pt x="288" y="480" on="0"/>
        <pt x="301" y="341" on="0"/>
        <pt x="340" y="242" on="0"/>
        <pt x="411" y="178" on="0"/>
        <pt x="525" y="142" on="0"/>
        <pt x="688" y="128" on="0"/>
        <pt x="800" y="128" on="1"/>
        <pt x="896" y="128" on="0"/>
        <pt x="1046" y="137" on="0"/>
        <pt x="1160" y="168" on="0"/>
        <pt x="1239" y="227" on="0"/>
        <pt x="1289" y="326" on="0"/>
        <pt x="1312" y="473" on="0"/>
        <pt x="1312" y="577" on="1"/>
        <pt x="1312" y="681" on="0"/>
        <pt x="1289" y="829" on="0"/>
        <pt x="1239" y="928" on="0"/>
        <pt x="1160" y="986" on="0"/>
        <pt x="1046" y="1016" on="0"/>
        <pt x="896" y="1024" on="0"/>
      </contour>
      <contour>
        <pt x="1504" y="160" on="1"/>
        <pt x="1504" y="-8" on="0"/>
        <pt x="1428" y="-230" on="0"/>
        <pt x="1260" y="-367" on="0"/>
        <pt x="992" y="-421" on="0"/>
        <pt x="800" y="-421" on="1"/>
        <pt x="620" y="-421" on="0"/>
        <pt x="375" y="-389" on="0"/>
        <pt x="225" y="-320" on="0"/>
        <pt x="160" y="-211" on="0"/>
        <pt x="160" y="-133" on="1"/>
        <pt x="352" y="-133" on="1"/>
        <pt x="352" y="-172" on="0"/>
        <pt x="393" y="-222" on="0"/>
        <pt x="495" y="-250" on="0"/>
        <pt x="668" y="-261" on="0"/>
        <pt x="800" y="-261" on="1"/>
        <pt x="944" y="-261" on="0"/>
        <pt x="1140" y="-240" on="0"/>
        <pt x="1260" y="-162" on="0"/>
        <pt x="1312" y="-4" on="0"/>
        <pt x="1312" y="128" on="1"/>
        <pt x="1298" y="104" on="0"/>
        <pt x="1237" y="48" on="0"/>
        <pt x="1120" y="0" on="0"/>
        <pt x="936" y="-32" on="0"/>
        <pt x="800" y="-32" on="1"/>
        <pt x="608" y="-32" on="0"/>
        <pt x="340" y="25" on="0"/>
        <pt x="172" y="163" on="0"/>
        <pt x="96" y="397" on="0"/>
        <pt x="96" y="574" on="1"/>
        <pt x="96" y="754" on="0"/>
        <pt x="172" y="990" on="0"/>
        <pt x="340" y="1128" on="0"/>
        <pt x="608" y="1184" on="0"/>
        <pt x="800" y="1184" on="1"/>
        <pt x="936" y="1184" on="0"/>
        <pt x="1120" y="1156" on="0"/>
        <pt x="1237" y="1114" on="0"/>
        <pt x="1298" y="1065" on="0"/>
        <pt x="1312" y="1045" on="1"/>
        <pt x="1312" y="1152" on="1"/>
        <pt x="1504" y="1152" on="1"/>
      </contour>
    </TTGlyph>
    <TTGlyph name="gbreve" xMin="128" yMin="-421" xMax="1536" yMax="1564">
      <component glyphName="breve" x="192" y="-36" flags="0x1004"/>
      <component glyphName="g" x="32" y="0" flags="0x1004"/>
    </TTGlyph>
    <TTGlyph name="gcaron" xMin="128" yMin="-421" xMax="1536" yMax="1819">
      <component glyphName="caron" x="288" y="-37" flags="0x1004"/>
      <component glyphName="g" x="32" y="0" flags="0x1004"/>
    </TTGlyph>
    <TTGlyph name="gcircumflex" xMin="128" yMin="-421" xMax="1536" yMax="1820">
      <component glyphName="circumflex" x="288" y="-36" flags="0x1004"/>
      <component glyphName="g" x="32" y="0" flags="0x1004"/>
    </TTGlyph>
    <TTGlyph name="gdotaccent" xMin="128" yMin="-421" xMax="1536" yMax="1436">
      <component glyphName="dotaccent" x="608" y="-100" flags="0x1004"/>
      <component glyphName="g" x="32" y="0" flags="0x1004"/>
    </TTGlyph>
    <TTGlyph name="germandbls" xMin="128" yMin="-128" xMax="1920" yMax="1536">
      <contour>
        <pt x="769" y="1536" on="1"/>
        <pt x="625" y="1536" on="0"/>
        <pt x="418" y="1510" on="0"/>
        <pt x="275" y="1457" on="0"/>
        <pt x="189" y="1377" on="0"/>
        <pt x="143" y="1271" on="0"/>
        <pt x="128" y="1138" on="0"/>
        <pt x="128" y="1058" on="1"/>
        <pt x="128" y="-128" on="1"/>
        <pt x="320" y="-128" on="1"/>
        <pt x="320" y="1058" on="1"/>
        <pt x="320" y="1129" on="0"/>
        <pt x="334" y="1232" on="0"/>
        <pt x="373" y="1303" on="0"/>
        <pt x="443" y="1346" on="0"/>
        <pt x="557" y="1369" on="0"/>
        <pt x="721" y="1376" on="0"/>
        <pt x="833" y="1376" on="1"/>
        <pt x="1216" y="1376" on="1"/>
        <pt x="1312" y="1376" on="0"/>
        <pt x="1456" y="1361" on="0"/>
        <pt x="1552" y="1318" on="0"/>
        <pt x="1600" y="1238" on="0"/>
        <pt x="1600" y="1174" on="1"/>
        <pt x="1600" y="1085" on="0"/>
        <pt x="1572" y="976" on="0"/>
        <pt x="1489" y="916" on="0"/>
        <pt x="1338" y="896" on="0"/>
        <pt x="1215" y="896" on="1"/>
        <pt x="512" y="896" on="1"/>
        <pt x="512" y="736" on="1"/>
        <pt x="1215" y="736" on="1"/>
        <pt x="1327" y="736" on="0"/>
        <pt x="1491" y="729" on="0"/>
        <pt x="1605" y="709" on="0"/>
        <pt x="1675" y="674" on="0"/>
        <pt x="1714" y="617" on="0"/>
        <pt x="1728" y="534" on="0"/>
        <pt x="1728" y="478" on="1"/>
        <pt x="1728" y="406" on="0"/>
        <pt x="1714" y="304" on="0"/>
        <pt x="1675" y="233" on="0"/>
        <pt x="1605" y="190" on="0"/>
        <pt x="1491" y="167" on="0"/>
        <pt x="1327" y="160" on="0"/>
        <pt x="1215" y="160" on="1"/>
        <pt x="512" y="160" on="1"/>
        <pt x="512" y="0" on="1"/>
        <pt x="1279" y="0" on="1"/>
        <pt x="1423" y="0" on="0"/>
        <pt x="1630" y="26" on="0"/>
        <pt x="1773" y="79" on="0"/>
        <pt x="1859" y="159" on="0"/>
        <pt x="1905" y="265" on="0"/>
        <pt x="1920" y="398" on="0"/>
        <pt x="1920" y="478" on="1"/>
        <pt x="1920" y="544" on="0"/>
        <pt x="1892" y="645" on="0"/>
        <pt x="1847" y="720" on="0"/>
        <pt x="1790" y="771" on="0"/>
        <pt x="1760" y="788" on="1"/>
        <pt x="1690" y="827" on="0"/>
        <pt x="1600" y="832" on="1"/>
        <pt x="1654" y="837" on="0"/>
        <pt x="1696" y="875" on="1"/>
        <pt x="1714" y="891" on="0"/>
        <pt x="1748" y="940" on="0"/>
        <pt x="1775" y="1012" on="0"/>
        <pt x="1792" y="1110" on="0"/>
        <pt x="1792" y="1174" on="1"/>
        <pt x="1792" y="1262" on="0"/>
        <pt x="1740" y="1398" on="0"/>
        <pt x="1620" y="1489" on="0"/>
        <pt x="1424" y="1536" on="0"/>
        <pt x="1280" y="1536" on="1"/>
      </contour>
    </TTGlyph>
    <TTGlyph name="grave" xMin="128" yMin="1280" xMax="832" yMax="1856">
      <contour>
        <pt x="128" y="1664" on="1"/>
        <pt x="256" y="1856" on="1"/>
        <pt x="832" y="1376" on="1"/>
        <pt x="768" y="1280" on="1"/>
      </contour>
    </TTGlyph>
    <TTGlyph name="greater" xMin="128" yMin="192" xMax="1024" yMax="1472">
      <contour>
        <pt x="1024" y="928" on="1"/>
        <pt x="1024" y="736" on="1"/>
        <pt x="128" y="192" on="1"/>
        <pt x="128" y="448" on="1"/>
        <pt x="880" y="832" on="1"/>
        <pt x="128" y="1216" on="1"/>
        <pt x="128" y="1472" on="1"/>
      </contour>
    </TTGlyph>
    <TTGlyph name="greaterequal" xMin="128" yMin="-32" xMax="1024" yMax="1472">
      <contour>
        <pt x="1024" y="928" on="1"/>
        <pt x="1024" y="736" on="1"/>
        <pt x="128" y="192" on="1"/>
        <pt x="128" y="448" on="1"/>
        <pt x="880" y="832" on="1"/>
        <pt x="128" y="1216" on="1"/>
        <pt x="128" y="1472" on="1"/>
      </contour>
      <contour>
        <pt x="128" y="128" on="1"/>
        <pt x="1022" y="128" on="1"/>
        <pt x="1022" y="-32" on="1"/>
        <pt x="128" y="-32" on="1"/>
      </contour>
    </TTGlyph>
    <TTGlyph name="guillemotleft" xMin="128" yMin="128" xMax="1216" yMax="1088">
      <contour>
        <pt x="768" y="256" on="1"/>
        <pt x="672" y="128" on="1"/>
        <pt x="128" y="512" on="1"/>
        <pt x="128" y="704" on="1"/>
        <pt x="672" y="1088" on="1"/>
        <pt x="768" y="960" on="1"/>
        <pt x="256" y="608" on="1"/>
      </contour>
      <contour>
        <pt x="1216" y="256" on="1"/>
        <pt x="1120" y="128" on="1"/>
        <pt x="576" y="512" on="1"/>
        <pt x="576" y="704" on="1"/>
        <pt x="1120" y="1088" on="1"/>
        <pt x="1216" y="960" on="1"/>
        <pt x="704" y="608" on="1"/>
      </contour>
    </TTGlyph>
    <TTGlyph name="guillemotright" xMin="128" yMin="128" xMax="1216" yMax="1088">
      <contour>
        <pt x="640" y="608" on="1"/>
        <pt x="128" y="960" on="1"/>
        <pt x="224" y="1088" on="1"/>
        <pt x="768" y="704" on="1"/>
        <pt x="768" y="512" on="1"/>
        <pt x="224" y="128" on="1"/>
        <pt x="128" y="256" on="1"/>
      </contour>
      <contour>
        <pt x="1088" y="608" on="1"/>
        <pt x="576" y="960" on="1"/>
        <pt x="672" y="1088" on="1"/>
        <pt x="1216" y="704" on="1"/>
        <pt x="1216" y="512" on="1"/>
        <pt x="672" y="128" on="1"/>
        <pt x="576" y="256" on="1"/>
      </contour>
    </TTGlyph>
    <TTGlyph name="guilsinglleft" xMin="128" yMin="128" xMax="768" yMax="1088">
      <contour>
        <pt x="256" y="608" on="1"/>
        <pt x="768" y="960" on="1"/>
        <pt x="672" y="1088" on="1"/>
        <pt x="128" y="704" on="1"/>
        <pt x="128" y="512" on="1"/>
        <pt x="672" y="128" on="1"/>
        <pt x="768" y="256" on="1"/>
      </contour>
    </TTGlyph>
    <TTGlyph name="guilsinglright" xMin="128" yMin="128" xMax="768" yMax="1088">
      <contour>
        <pt x="128" y="256" on="1"/>
        <pt x="224" y="128" on="1"/>
        <pt x="768" y="512" on="1"/>
        <pt x="768" y="704" on="1"/>
        <pt x="224" y="1088" on="1"/>
        <pt x="128" y="960" on="1"/>
        <pt x="640" y="608" on="1"/>
      </contour>
    </TTGlyph>
    <TTGlyph name="h" xMin="128" yMin="0" xMax="1473" yMax="1536">
      <contour>
        <pt x="1280" y="0" on="1"/>
        <pt x="1280" y="650" on="1"/>
        <pt x="1280" y="754" on="0"/>
        <pt x="1248" y="897" on="0"/>
        <pt x="1152" y="985" on="0"/>
        <pt x="976" y="1024" on="0"/>
        <pt x="832" y="1024" on="1"/>
        <pt x="676" y="1024" on="0"/>
        <pt x="477" y="979" on="0"/>
        <pt x="363" y="898" on="0"/>
        <pt x="320" y="784" on="0"/>
        <pt x="320" y="714" on="1"/>
        <pt x="320" y="0" on="1"/>
        <pt x="128" y="0" on="1"/>
        <pt x="128" y="1536" on="1"/>
        <pt x="320" y="1536" on="1"/>
        <pt x="320" y="970" on="1"/>
        <pt x="340" y="1017" on="0"/>
        <pt x="414" y="1085" on="0"/>
        <pt x="511" y="1133" on="0"/>
        <pt x="623" y="1162" on="0"/>
        <pt x="738" y="1178" on="0"/>
        <pt x="849" y="1184" on="0"/>
        <pt x="896" y="1184" on="1"/>
        <pt x="1024" y="1184" on="0"/>
        <pt x="1209" y="1153" on="0"/>
        <pt x="1338" y="1092" on="0"/>
        <pt x="1416" y="1002" on="0"/>
        <pt x="1459" y="883" on="0"/>
        <pt x="1473" y="736" on="0"/>
        <pt x="1473" y="650" on="1"/>
        <pt x="1472" y="0" on="1"/>
      </contour>
    </TTGlyph>
    <TTGlyph name="hcircumflex" xMin="128" yMin="0" xMax="1473" yMax="2234">
      <component glyphName="circumflex" x="256" y="378" flags="0x1004"/>
      <component glyphName="h" x="0" y="0" flags="0x1004"/>
    </TTGlyph>
    <TTGlyph name="hungarumlaut" xMin="128" yMin="1280" xMax="1385" yMax="1856">
      <contour>
        <pt x="832" y="1664" on="1"/>
        <pt x="704" y="1856" on="1"/>
        <pt x="128" y="1376" on="1"/>
        <pt x="192" y="1280" on="1"/>
      </contour>
      <contour>
        <pt x="1385" y="1664" on="1"/>
        <pt x="1257" y="1856" on="1"/>
        <pt x="681" y="1376" on="1"/>
        <pt x="745" y="1280" on="1"/>
      </contour>
    </TTGlyph>
    <TTGlyph name="hyphen" xMin="128" yMin="512" xMax="896" yMax="672">
      <contour>
        <pt x="128" y="672" on="1"/>
        <pt x="896" y="672" on="1"/>
        <pt x="896" y="512" on="1"/>
        <pt x="128" y="512" on="1"/>
      </contour>
    </TTGlyph>
    <TTGlyph name="i" xMin="192" yMin="0" xMax="384" yMax="1536">
      <contour>
        <pt x="192" y="1152" on="1"/>
        <pt x="384" y="1152" on="1"/>
        <pt x="384" y="0" on="1"/>
        <pt x="192" y="0" on="1"/>
      </contour>
      <contour>
        <pt x="384" y="1344" on="1"/>
        <pt x="192" y="1344" on="1"/>
        <pt x="192" y="1536" on="1"/>
        <pt x="384" y="1536" on="1"/>
      </contour>
    </TTGlyph>
    <TTGlyph name="iacute" xMin="-125" yMin="0" xMax="579" yMax="1856">
      <component glyphName="dotlessi" x="0" y="0" flags="0x1204"/>
      <component glyphName="acute" x="-253" y="0" flags="0x1004"/>
    </TTGlyph>
    <TTGlyph name="ibreve" xMin="-159" yMin="0" xMax="609" yMax="1563">
      <component glyphName="breve" x="-415" y="-37" flags="0x1004"/>
      <component glyphName="dotlessi" x="0" y="0" flags="0x1004"/>
    </TTGlyph>
    <TTGlyph name="icircumflex" xMin="-189" yMin="0" xMax="643" yMax="1856">
      <component glyphName="dotlessi" x="0" y="0" flags="0x1204"/>
      <component glyphName="circumflex" x="-317" y="0" flags="0x1004"/>
    </TTGlyph>
    <TTGlyph name="idieresis" xMin="-253" yMin="0" xMax="707" yMax="1536">
      <component glyphName="dotlessi" x="0" y="0" flags="0x1204"/>
      <component glyphName="dieresis" x="-317" y="0" flags="0x1004"/>
    </TTGlyph>
    <TTGlyph name="igrave" xMin="-125" yMin="0" xMax="579" yMax="1856">
      <component glyphName="dotlessi" x="0" y="0" flags="0x1204"/>
      <component glyphName="grave" x="-253" y="0" flags="0x1004"/>
    </TTGlyph>
    <TTGlyph name="ij" xMin="129" yMin="-384" xMax="928" yMax="1536">
      <component glyphName="j" x="448" y="0" flags="0x1004"/>
      <component glyphName="i" x="-63" y="0" flags="0x1004"/>
    </TTGlyph>
    <TTGlyph name="imacron" xMin="-158" yMin="0" xMax="610" yMax="1404">
      <component glyphName="macron" x="-286" y="-100" flags="0x1004"/>
      <component glyphName="dotlessi" x="0" y="0" flags="0x1004"/>
    </TTGlyph>
    <TTGlyph name="infinity" xMin="128" yMin="-32" xMax="2368" yMax="1120">
      <contour>
        <pt x="1854" y="-32" on="1"/>
        <pt x="1757" y="-32" on="0"/>
        <pt x="1582" y="47" on="0"/>
        <pt x="1429" y="171" on="0"/>
        <pt x="1301" y="322" on="0"/>
        <pt x="1251" y="393" on="1"/>
        <pt x="1200" y="321" on="0"/>
        <pt x="1070" y="171" on="0"/>
        <pt x="916" y="47" on="0"/>
        <pt x="739" y="-32" on="0"/>
        <pt x="642" y="-32" on="1"/>
        <pt x="536" y="-32" on="0"/>
        <pt x="349" y="22" on="0"/>
        <pt x="209" y="154" on="0"/>
        <pt x="128" y="376" on="0"/>
        <pt x="128" y="544" on="1"/>
        <pt x="128" y="712" on="0"/>
        <pt x="209" y="934" on="0"/>
        <pt x="349" y="1066" on="0"/>
        <pt x="536" y="1120" on="0"/>
        <pt x="642" y="1120" on="1"/>
        <pt x="747" y="1120" on="0"/>
        <pt x="924" y="1044" on="0"/>
        <pt x="1075" y="921" on="0"/>
        <pt x="1203" y="766" on="0"/>
        <pt x="1259" y="687" on="1"/>
        <pt x="1292" y="735" on="0"/>
        <pt x="1371" y="837" on="0"/>
        <pt x="1460" y="933" on="0"/>
        <pt x="1561" y="1019" on="0"/>
        <pt x="1671" y="1083" on="0"/>
        <pt x="1790" y="1120" on="0"/>
        <pt x="1854" y="1120" on="1"/>
        <pt x="1960" y="1120" on="0"/>
        <pt x="2147" y="1066" on="0"/>
        <pt x="2287" y="934" on="0"/>
        <pt x="2368" y="712" on="0"/>
        <pt x="2368" y="544" on="1"/>
        <pt x="2368" y="376" on="0"/>
        <pt x="2287" y="154" on="0"/>
        <pt x="2147" y="22" on="0"/>
        <pt x="1960" y="-32" on="0"/>
      </contour>
      <contour>
        <pt x="642" y="128" on="1"/>
        <pt x="709" y="128" on="0"/>
        <pt x="847" y="201" on="0"/>
        <pt x="981" y="317" on="0"/>
        <pt x="1104" y="463" on="0"/>
        <pt x="1156" y="535" on="1"/>
        <pt x="1106" y="610" on="0"/>
        <pt x="991" y="762" on="0"/>
        <pt x="862" y="884" on="0"/>
        <pt x="720" y="960" on="0"/>
        <pt x="642" y="960" on="1"/>
        <pt x="602" y="960" on="0"/>
        <pt x="523" y="952" on="0"/>
        <pt x="452" y="923" on="0"/>
        <pt x="390" y="869" on="0"/>
        <pt x="345" y="776" on="0"/>
        <pt x="320" y="640" on="0"/>
        <pt x="320" y="544" on="1"/>
        <pt x="320" y="412" on="0"/>
        <pt x="376" y="249" on="0"/>
        <pt x="466" y="159" on="0"/>
        <pt x="582" y="128" on="0"/>
      </contour>
      <contour>
        <pt x="1854" y="960" on="1"/>
        <pt x="1789" y="960" on="0"/>
        <pt x="1655" y="886" on="0"/>
        <pt x="1525" y="768" on="0"/>
        <pt x="1405" y="621" on="0"/>
        <pt x="1355" y="548" on="1"/>
        <pt x="1406" y="475" on="0"/>
        <pt x="1526" y="326" on="0"/>
        <pt x="1655" y="205" on="0"/>
        <pt x="1789" y="128" on="0"/>
        <pt x="1854" y="128" on="1"/>
        <pt x="1914" y="128" on="0"/>
        <pt x="2030" y="159" on="0"/>
        <pt x="2120" y="249" on="0"/>
        <pt x="2176" y="412" on="0"/>
        <pt x="2176" y="544" on="1"/>
        <pt x="2176" y="640" on="0"/>
        <pt x="2151" y="776" on="0"/>
        <pt x="2106" y="869" on="0"/>
        <pt x="2044" y="923" on="0"/>
        <pt x="1973" y="952" on="0"/>
        <pt x="1894" y="960" on="0"/>
      </contour>
    </TTGlyph>
    <TTGlyph name="integral" xMin="128" yMin="-288" xMax="961" yMax="1568">
      <contour>
        <pt x="449" y="1152" on="1"/>
        <pt x="449" y="1272" on="0"/>
        <pt x="501" y="1432" on="0"/>
        <pt x="621" y="1528" on="0"/>
        <pt x="817" y="1568" on="0"/>
        <pt x="961" y="1568" on="1"/>
        <pt x="961" y="1408" on="1"/>
        <pt x="870" y="1408" on="0"/>
        <pt x="748" y="1400" on="0"/>
        <pt x="673" y="1352" on="0"/>
        <pt x="641" y="1248" on="0"/>
        <pt x="641" y="1152" on="1"/>
        <pt x="641" y="128" on="1"/>
        <pt x="641" y="8" on="0"/>
        <pt x="589" y="-152" on="0"/>
        <pt x="469" y="-248" on="0"/>
        <pt x="272" y="-288" on="0"/>
        <pt x="128" y="-288" on="1"/>
        <pt x="129" y="-128" on="1"/>
        <pt x="220" y="-128" on="0"/>
        <pt x="342" y="-120" on="0"/>
        <pt x="417" y="-72" on="0"/>
        <pt x="449" y="32" on="0"/>
        <pt x="449" y="128" on="1"/>
      </contour>
    </TTGlyph>
    <TTGlyph name="iogonek" xMin="-94" yMin="-555" xMax="321" yMax="1536">
      <component glyphName="ogonek" x="-222" y="-43" flags="0x1004"/>
      <component glyphName="i" x="-63" y="0" flags="0x1004"/>
    </TTGlyph>
    <TTGlyph name="itilde" xMin="-222" yMin="0" xMax="674" yMax="1501">
      <component glyphName="tilde" x="-350" y="-100" flags="0x1004"/>
      <component glyphName="dotlessi" x="0" y="0" flags="0x1004"/>
    </TTGlyph>
    <TTGlyph name="j" xMin="128" yMin="-384" xMax="480" yMax="1536">
      <contour>
        <pt x="480" y="-64" on="1"/>
        <pt x="480" y="-138" on="0"/>
        <pt x="460" y="-256" on="0"/>
        <pt x="388" y="-339" on="0"/>
        <pt x="248" y="-384" on="0"/>
        <pt x="128" y="-384" on="1"/>
        <pt x="128" y="-224" on="1"/>
        <pt x="176" y="-224" on="0"/>
        <pt x="238" y="-210" on="0"/>
        <pt x="274" y="-174" on="0"/>
        <pt x="288" y="-112" on="0"/>
        <pt x="288" y="-64" on="1"/>
        <pt x="288" y="1152" on="1"/>
        <pt x="480" y="1152" on="1"/>
      </contour>
      <contour>
        <pt x="480" y="1344" on="1"/>
        <pt x="288" y="1344" on="1"/>
        <pt x="288" y="1536" on="1"/>
        <pt x="480" y="1536" on="1"/>
      </contour>
    </TTGlyph>
    <TTGlyph name="jcircumflex" xMin="-30" yMin="-384" xMax="802" yMax="1820">
      <component glyphName="circumflex" x="-158" y="-36" flags="0x1004"/>
      <component glyphName="dotlessj" x="0" y="0" flags="0x1004"/>
    </TTGlyph>
    <TTGlyph name="k" xMin="128" yMin="0" xMax="1408" yMax="1536">
      <contour>
        <pt x="128" y="1536" on="1"/>
        <pt x="320" y="1536" on="1"/>
        <pt x="320" y="696" on="1"/>
        <pt x="384" y="696" on="1"/>
        <pt x="1088" y="1152" on="1"/>
        <pt x="1376" y="1152" on="1"/>
        <pt x="560" y="616" on="1"/>
        <pt x="1408" y="0" on="1"/>
        <pt x="1120" y="0" on="1"/>
        <pt x="384" y="552" on="1"/>
        <pt x="320" y="552" on="1"/>
        <pt x="320" y="0" on="1"/>
        <pt x="128" y="0" on="1"/>
      </contour>
    </TTGlyph>
    <TTGlyph name="kcommaaccent" xMin="128" yMin="-504" xMax="1408" yMax="1536">
      <component glyphName="comma" x="576" y="-248" flags="0x1004"/>
      <component glyphName="k" x="0" y="0" flags="0x1004"/>
    </TTGlyph>
    <TTGlyph name="kgreenlandic" xMin="128" yMin="0" xMax="1408" yMax="1536">
      <contour>
        <pt x="128" y="0" on="1"/>
        <pt x="320" y="0" on="1"/>
        <pt x="320" y="512" on="1"/>
        <pt x="384" y="512" on="1"/>
        <pt x="1120" y="0" on="1"/>
        <pt x="1408" y="0" on="1"/>
        <pt x="560" y="576" on="1"/>
        <pt x="1376" y="1088" on="1"/>
        <pt x="1088" y="1088" on="1"/>
        <pt x="384" y="656" on="1"/>
        <pt x="320" y="656" on="1"/>
        <pt x="320" y="1536" on="1"/>
        <pt x="128" y="1536" on="1"/>
      </contour>
    </TTGlyph>
    <TTGlyph name="l" xMin="192" yMin="0" xMax="384" yMax="1536">
      <contour>
        <pt x="192" y="1536" on="1"/>
        <pt x="384" y="1536" on="1"/>
        <pt x="384" y="0" on="1"/>
        <pt x="192" y="0" on="1"/>
      </contour>
    </TTGlyph>
    <TTGlyph name="lacute" xMin="129" yMin="0" xMax="864" yMax="2234">
      <component glyphName="acute" x="32" y="378" flags="0x1004"/>
      <component glyphName="l" x="-63" y="0" flags="0x1004"/>
    </TTGlyph>
    <TTGlyph name="lcaron" xMin="129" yMin="0" xMax="759" yMax="1536">
      <component glyphName="comma" x="439" y="1408" flags="0x1204"/>
      <component glyphName="l" x="-63" y="0" flags="0x1004"/>
    </TTGlyph>
    <TTGlyph name="lcommaaccent" xMin="96" yMin="-504" xMax="352" yMax="1536">
      <component glyphName="comma" x="32" y="-248" flags="0x1204"/>
      <component glyphName="l" x="-63" y="0" flags="0x1004"/>
    </TTGlyph>
    <TTGlyph name="ldot" xMin="129" yMin="0" xMax="768" yMax="1536">
      <component glyphName="periodcentered" x="448" y="0" flags="0x1004"/>
      <component glyphName="l" x="-63" y="0" flags="0x1004"/>
    </TTGlyph>
    <TTGlyph name="less" xMin="128" yMin="192" xMax="1024" yMax="1472">
      <contour>
        <pt x="1024" y="1472" on="1"/>
        <pt x="1024" y="1216" on="1"/>
        <pt x="272" y="832" on="1"/>
        <pt x="1024" y="448" on="1"/>
        <pt x="1024" y="192" on="1"/>
        <pt x="128" y="736" on="1"/>
        <pt x="128" y="928" on="1"/>
      </contour>
    </TTGlyph>
    <TTGlyph name="lessequal" xMin="128" yMin="-32" xMax="1024" yMax="1472">
      <contour>
        <pt x="1024" y="1472" on="1"/>
        <pt x="1024" y="1216" on="1"/>
        <pt x="272" y="832" on="1"/>
        <pt x="1024" y="448" on="1"/>
        <pt x="1024" y="192" on="1"/>
        <pt x="128" y="736" on="1"/>
        <pt x="128" y="928" on="1"/>
      </contour>
      <contour>
        <pt x="128" y="128" on="1"/>
        <pt x="1022" y="128" on="1"/>
        <pt x="1022" y="-32" on="1"/>
        <pt x="128" y="-32" on="1"/>
      </contour>
    </TTGlyph>
    <TTGlyph name="logicalnot" xMin="128" yMin="640" xMax="1088" yMax="1088">
      <contour>
        <pt x="1088" y="640" on="1"/>
        <pt x="896" y="640" on="1"/>
        <pt x="896" y="928" on="1"/>
        <pt x="128" y="928" on="1"/>
        <pt x="128" y="1088" on="1"/>
        <pt x="1088" y="1088" on="1"/>
      </contour>
    </TTGlyph>
    <TTGlyph name="lozenge" xMin="128" yMin="0" xMax="1152" yMax="1536">
      <contour>
        <pt x="1152" y="768" on="1"/>
        <pt x="704" y="1536" on="1"/>
        <pt x="576" y="1536" on="1"/>
        <pt x="128" y="768" on="1"/>
        <pt x="576" y="0" on="1"/>
        <pt x="704" y="0" on="1"/>
      </contour>
      <contour>
        <pt x="352" y="768" on="1"/>
        <pt x="640" y="1280" on="1"/>
        <pt x="928" y="768" on="1"/>
        <pt x="640" y="256" on="1"/>
      </contour>
    </TTGlyph>
    <TTGlyph name="lslash" xMin="0" yMin="0" xMax="576" yMax="1536">
      <contour>
        <pt x="0" y="768" on="1"/>
        <pt x="576" y="928" on="1"/>
        <pt x="576" y="1088" on="1"/>
        <pt x="0" y="928" on="1"/>
      </contour>
      <contour>
        <pt x="128" y="0" on="1"/>
        <pt x="320" y="0" on="1"/>
        <pt x="320" y="1536" on="1"/>
        <pt x="128" y="1536" on="1"/>
      </contour>
    </TTGlyph>
    <TTGlyph name="m" xMin="128" yMin="0" xMax="2368" yMax="1184">
      <contour>
        <pt x="1344" y="0" on="1"/>
        <pt x="1152" y="0" on="1"/>
        <pt x="1152" y="650" on="1"/>
        <pt x="1152" y="754" on="0"/>
        <pt x="1125" y="897" on="0"/>
        <pt x="1042" y="985" on="0"/>
        <pt x="891" y="1024" on="0"/>
        <pt x="768" y="1024" on="1"/>
        <pt x="633" y="1024" on="0"/>
        <pt x="459" y="979" on="0"/>
        <pt x="359" y="898" on="0"/>
        <pt x="320" y="784" on="0"/>
        <pt x="320" y="714" on="1"/>
        <pt x="320" y="0" on="1"/>
        <pt x="128" y="0" on="1"/>
        <pt x="128" y="1152" on="1"/>
        <pt x="320" y="1152" on="1"/>
        <pt x="320" y="970" on="1"/>
        <pt x="321" y="973" on="0"/>
        <pt x="337" y="1007" on="0"/>
        <pt x="378" y="1054" on="0"/>
        <pt x="449" y="1108" on="0"/>
        <pt x="562" y="1154" on="0"/>
        <pt x="722" y="1184" on="0"/>
        <pt x="832" y="1184" on="1"/>
        <pt x="940" y="1184" on="0"/>
        <pt x="1099" y="1157" on="0"/>
        <pt x="1212" y="1104" on="0"/>
        <pt x="1283" y="1025" on="0"/>
        <pt x="1304" y="974" on="1"/>
        <pt x="1321" y="1001" on="0"/>
        <pt x="1393" y="1073" on="0"/>
        <pt x="1522" y="1139" on="0"/>
        <pt x="1716" y="1184" on="0"/>
        <pt x="1856" y="1184" on="1"/>
        <pt x="1971" y="1184" on="0"/>
        <pt x="2136" y="1153" on="0"/>
        <pt x="2250" y="1092" on="0"/>
        <pt x="2319" y="1002" on="0"/>
        <pt x="2356" y="883" on="0"/>
        <pt x="2368" y="736" on="0"/>
        <pt x="2368" y="650" on="1"/>
        <pt x="2368" y="0" on="1"/>
        <pt x="2176" y="0" on="1"/>
        <pt x="2176" y="650" on="1"/>
        <pt x="2176" y="754" on="0"/>
        <pt x="2149" y="897" on="0"/>
        <pt x="2066" y="985" on="0"/>
        <pt x="1915" y="1024" on="0"/>
        <pt x="1792" y="1024" on="1"/>
        <pt x="1657" y="1024" on="0"/>
        <pt x="1483" y="979" on="0"/>
        <pt x="1383" y="898" on="0"/>
        <pt x="1344" y="784" on="0"/>
        <pt x="1344" y="714" on="1"/>
      </contour>
    </TTGlyph>
    <TTGlyph name="macron" xMin="128" yMin="1344" xMax="896" yMax="1504">
      <contour>
        <pt x="128" y="1344" on="1"/>
        <pt x="896" y="1344" on="1"/>
        <pt x="896" y="1504" on="1"/>
        <pt x="128" y="1504" on="1"/>
      </contour>
    </TTGlyph>
    <TTGlyph name="minus" xMin="128" yMin="512" xMax="1344" yMax="672">
      <contour>
        <pt x="128" y="512" on="1"/>
        <pt x="1344" y="512" on="1"/>
        <pt x="1344" y="672" on="1"/>
        <pt x="128" y="672" on="1"/>
      </contour>
    </TTGlyph>
    <TTGlyph name="mu" xMin="128" yMin="-384" xMax="1473" yMax="1088">
      <contour>
        <pt x="129" y="-384" on="1"/>
        <pt x="129" y="-226" on="0"/>
        <pt x="129" y="19" on="0"/>
        <pt x="128" y="215" on="0"/>
        <pt x="128" y="372" on="0"/>
        <pt x="128" y="513" on="0"/>
        <pt x="128" y="647" on="0"/>
        <pt x="129" y="798" on="0"/>
        <pt x="129" y="975" on="0"/>
        <pt x="129" y="1088" on="1"/>
        <pt x="321" y="1088" on="1"/>
        <pt x="321" y="512" on="1"/>
        <pt x="321" y="405" on="0"/>
        <pt x="353" y="258" on="0"/>
        <pt x="449" y="168" on="0"/>
        <pt x="625" y="128" on="0"/>
        <pt x="769" y="128" on="1"/>
        <pt x="925" y="128" on="0"/>
        <pt x="1124" y="174" on="0"/>
        <pt x="1238" y="258" on="0"/>
        <pt x="1281" y="376" on="0"/>
        <pt x="1281" y="448" on="1"/>
        <pt x="1281" y="1088" on="1"/>
        <pt x="1473" y="1088" on="1"/>
        <pt x="1473" y="0" on="1"/>
        <pt x="1281" y="0" on="1"/>
        <pt x="1281" y="191" on="1"/>
        <pt x="1280" y="189" on="0"/>
        <pt x="1263" y="154" on="0"/>
        <pt x="1218" y="104" on="0"/>
        <pt x="1139" y="48" on="0"/>
        <pt x="1012" y="0" on="0"/>
        <pt x="830" y="-32" on="0"/>
        <pt x="705" y="-32" on="1"/>
        <pt x="573" y="-32" on="0"/>
        <pt x="386" y="1" on="0"/>
        <pt x="321" y="33" on="1"/>
        <pt x="321" y="-384" on="1"/>
      </contour>
    </TTGlyph>
    <TTGlyph name="multiply" xMin="219" yMin="411" xMax="1125" yMax="1317">
      <contour>
        <pt x="1125" y="1181" on="1"/>
        <pt x="989" y="1317" on="1"/>
        <pt x="672" y="1000" on="1"/>
        <pt x="355" y="1317" on="1"/>
        <pt x="219" y="1181" on="1"/>
        <pt x="536" y="864" on="1"/>
        <pt x="219" y="547" on="1"/>
        <pt x="355" y="411" on="1"/>
        <pt x="672" y="728" on="1"/>
        <pt x="989" y="411" on="1"/>
        <pt x="1125" y="547" on="1"/>
        <pt x="808" y="864" on="1"/>
      </contour>
    </TTGlyph>
    <TTGlyph name="n" xMin="128" yMin="0" xMax="1473" yMax="1184">
      <contour>
        <pt x="1280" y="0" on="1"/>
        <pt x="1280" y="640" on="1"/>
        <pt x="1280" y="747" on="0"/>
        <pt x="1248" y="894" on="0"/>
        <pt x="1152" y="984" on="0"/>
        <pt x="976" y="1024" on="0"/>
        <pt x="832" y="1024" on="1"/>
        <pt x="676" y="1024" on="0"/>
        <pt x="477" y="978" on="0"/>
        <pt x="363" y="894" on="0"/>
        <pt x="320" y="776" on="0"/>
        <pt x="320" y="704" on="1"/>
        <pt x="320" y="0" on="1"/>
        <pt x="128" y="0" on="1"/>
        <pt x="128" y="1152" on="1"/>
        <pt x="320" y="1152" on="1"/>
        <pt x="320" y="960" on="1"/>
        <pt x="341" y="1009" on="0"/>
        <pt x="419" y="1080" on="0"/>
        <pt x="517" y="1130" on="0"/>
        <pt x="631" y="1161" on="0"/>
        <pt x="745" y="1178" on="0"/>
        <pt x="852" y="1184" on="0"/>
        <pt x="896" y="1184" on="1"/>
        <pt x="1024" y="1184" on="0"/>
        <pt x="1209" y="1152" on="0"/>
        <pt x="1338" y="1090" on="0"/>
        <pt x="1416" y="998" on="0"/>
        <pt x="1459" y="877" on="0"/>
        <pt x="1473" y="728" on="0"/>
        <pt x="1473" y="640" on="1"/>
        <pt x="1472" y="0" on="1"/>
      </contour>
    </TTGlyph>
    <TTGlyph name="nacute" xMin="192" yMin="0" xMax="1537" yMax="1819">
      <component glyphName="acute" x="672" y="-37" flags="0x1004"/>
      <component glyphName="n" x="64" y="0" flags="0x1004"/>
    </TTGlyph>
    <TTGlyph name="ncaron" xMin="192" yMin="0" xMax="1537" yMax="1819">
      <component glyphName="caron" x="320" y="-37" flags="0x1004"/>
      <component glyphName="n" x="64" y="0" flags="0x1004"/>
    </TTGlyph>
    <TTGlyph name="ncommaaccent" xMin="192" yMin="-505" xMax="1537" yMax="1184">
      <component glyphName="comma" x="672" y="-249" flags="0x1004"/>
      <component glyphName="n" x="64" y="0" flags="0x1004"/>
    </TTGlyph>
    <TTGlyph name="nine" xMin="128" yMin="-32" xMax="1856" yMax="1568">
      <contour>
        <pt x="1024" y="128" on="1"/>
        <pt x="1179" y="128" on="0"/>
        <pt x="1394" y="138" on="0"/>
        <pt x="1536" y="175" on="0"/>
        <pt x="1616" y="249" on="0"/>
        <pt x="1655" y="377" on="0"/>
        <pt x="1664" y="568" on="0"/>
        <pt x="1664" y="704" on="1"/>
        <pt x="1586" y="657" on="0"/>
        <pt x="1338" y="608" on="0"/>
        <pt x="1152" y="608" on="1"/>
        <pt x="831" y="608" on="1"/>
        <pt x="615" y="608" on="0"/>
        <pt x="341" y="668" on="0"/>
        <pt x="186" y="788" on="0"/>
        <pt x="128" y="968" on="0"/>
        <pt x="128" y="1088" on="1"/>
        <pt x="128" y="1208" on="0"/>
        <pt x="186" y="1388" on="0"/>
        <pt x="341" y="1508" on="0"/>
        <pt x="615" y="1568" on="0"/>
        <pt x="831" y="1568" on="1"/>
        <pt x="1152" y="1568" on="1"/>
        <pt x="1328" y="1568" on="0"/>
        <pt x="1569" y="1525" on="0"/>
        <pt x="1726" y="1438" on="0"/>
        <pt x="1810" y="1306" on="0"/>
        <pt x="1849" y="1128" on="0"/>
        <pt x="1856" y="904" on="0"/>
        <pt x="1856" y="768" on="1"/>
        <pt x="1856" y="624" on="0"/>
        <pt x="1848" y="393" on="0"/>
        <pt x="1802" y="216" on="0"/>
        <pt x="1702" y="88" on="0"/>
        <pt x="1517" y="7" on="0"/>
        <pt x="1232" y="-32" on="0"/>
        <pt x="1024" y="-32" on="1"/>
        <pt x="848" y="-32" on="0"/>
        <pt x="588" y="-6" on="0"/>
        <pt x="403" y="46" on="0"/>
        <pt x="285" y="122" on="0"/>
        <pt x="218" y="222" on="0"/>
        <pt x="193" y="344" on="0"/>
        <pt x="193" y="416" on="1"/>
        <pt x="352" y="416" on="1"/>
        <pt x="352" y="376" on="0"/>
        <pt x="364" y="302" on="0"/>
        <pt x="405" y="238" on="0"/>
        <pt x="491" y="186" on="0"/>
        <pt x="640" y="148" on="0"/>
        <pt x="864" y="128" on="0"/>
      </contour>
      <contour>
        <pt x="1152" y="768" on="1"/>
        <pt x="1309" y="768" on="0"/>
        <pt x="1509" y="782" on="0"/>
        <pt x="1622" y="834" on="0"/>
        <pt x="1664" y="936" on="0"/>
        <pt x="1664" y="1024" on="1"/>
        <pt x="1664" y="1144" on="0"/>
        <pt x="1622" y="1294" on="0"/>
        <pt x="1509" y="1378" on="0"/>
        <pt x="1309" y="1408" on="0"/>
        <pt x="1152" y="1408" on="1"/>
        <pt x="831" y="1408" on="1"/>
        <pt x="719" y="1408" on="0"/>
        <pt x="556" y="1396" on="0"/>
        <pt x="443" y="1368" on="0"/>
        <pt x="372" y="1320" on="0"/>
        <pt x="333" y="1249" on="0"/>
        <pt x="320" y="1152" on="0"/>
        <pt x="320" y="1088" on="1"/>
        <pt x="320" y="1024" on="0"/>
        <pt x="334" y="927" on="0"/>
        <pt x="373" y="856" on="0"/>
        <pt x="443" y="808" on="0"/>
        <pt x="557" y="780" on="0"/>
        <pt x="719" y="768" on="0"/>
        <pt x="831" y="768" on="1"/>
      </contour>
    </TTGlyph>
    <TTGlyph name="notequal" xMin="128" yMin="-128" xMax="1344" yMax="1472">
      <contour>
        <pt x="384" y="-64" on="1"/>
        <pt x="544" y="-128" on="1"/>
        <pt x="1152" y="1408" on="1"/>
        <pt x="992" y="1472" on="1"/>
      </contour>
      <contour>
        <pt x="128" y="864" on="1"/>
        <pt x="1344" y="864" on="1"/>
        <pt x="1344" y="1024" on="1"/>
        <pt x="128" y="1024" on="1"/>
      </contour>
      <contour>
        <pt x="128" y="320" on="1"/>
        <pt x="1344" y="320" on="1"/>
        <pt x="1344" y="480" on="1"/>
        <pt x="128" y="480" on="1"/>
      </contour>
    </TTGlyph>
    <TTGlyph name="ntilde" xMin="128" yMin="0" xMax="1473" yMax="1601">
      <component glyphName="n" x="0" y="0" flags="0x1004"/>
      <component glyphName="tilde" x="225" y="0" flags="0x1004"/>
    </TTGlyph>
    <TTGlyph name="numbersign" xMin="128" yMin="-128" xMax="1408" yMax="1472">
      <contour>
        <pt x="835" y="320" on="1"/>
        <pt x="526" y="320" on="1"/>
        <pt x="415" y="-128" on="1"/>
        <pt x="255" y="-80" on="1"/>
        <pt x="354" y="320" on="1"/>
        <pt x="128" y="320" on="1"/>
        <pt x="128" y="480" on="1"/>
        <pt x="393" y="480" on="1"/>
        <pt x="489" y="864" on="1"/>
        <pt x="192" y="864" on="1"/>
        <pt x="192" y="1024" on="1"/>
        <pt x="528" y="1024" on="1"/>
        <pt x="640" y="1472" on="1"/>
        <pt x="800" y="1424" on="1"/>
        <pt x="700" y="1024" on="1"/>
        <pt x="1009" y="1024" on="1"/>
        <pt x="1121" y="1472" on="1"/>
        <pt x="1281" y="1424" on="1"/>
        <pt x="1181" y="1024" on="1"/>
        <pt x="1408" y="1024" on="1"/>
        <pt x="1408" y="864" on="1"/>
        <pt x="1142" y="864" on="1"/>
        <pt x="1046" y="480" on="1"/>
        <pt x="1344" y="480" on="1"/>
        <pt x="1344" y="320" on="1"/>
        <pt x="1007" y="320" on="1"/>
        <pt x="896" y="-128" on="1"/>
        <pt x="736" y="-80" on="1"/>
      </contour>
      <contour>
        <pt x="565" y="480" on="1"/>
        <pt x="874" y="480" on="1"/>
        <pt x="970" y="864" on="1"/>
        <pt x="661" y="864" on="1"/>
      </contour>
    </TTGlyph>
    <TTGlyph name="o" xMin="96" yMin="-22" xMax="1504" yMax="1184">
      <contour>
        <pt x="96" y="584" on="1"/>
        <pt x="96" y="761" on="0"/>
        <pt x="172" y="993" on="0"/>
        <pt x="340" y="1129" on="0"/>
        <pt x="608" y="1184" on="0"/>
        <pt x="800" y="1184" on="1"/>
        <pt x="992" y="1184" on="0"/>
        <pt x="1260" y="1129" on="0"/>
        <pt x="1428" y="993" on="0"/>
        <pt x="1504" y="761" on="0"/>
        <pt x="1504" y="584" on="1"/>
        <pt x="1504" y="407" on="0"/>
        <pt x="1428" y="173" on="0"/>
        <pt x="1260" y="35" on="0"/>
        <pt x="992" y="-22" on="0"/>
        <pt x="800" y="-22" on="1"/>
        <pt x="608" y="-22" on="0"/>
        <pt x="340" y="35" on="0"/>
        <pt x="172" y="173" on="0"/>
        <pt x="96" y="407" on="0"/>
      </contour>
      <contour>
        <pt x="288" y="584" on="1"/>
        <pt x="288" y="488" on="0"/>
        <pt x="302" y="346" on="0"/>
        <pt x="341" y="244" on="0"/>
        <pt x="411" y="180" on="0"/>
        <pt x="525" y="142" on="0"/>
        <pt x="688" y="128" on="0"/>
        <pt x="800" y="128" on="1"/>
        <pt x="896" y="128" on="0"/>
        <pt x="1047" y="137" on="0"/>
        <pt x="1160" y="169" on="0"/>
        <pt x="1240" y="228" on="0"/>
        <pt x="1289" y="330" on="0"/>
        <pt x="1312" y="479" on="0"/>
        <pt x="1312" y="584" on="1"/>
        <pt x="1312" y="687" on="0"/>
        <pt x="1289" y="832" on="0"/>
        <pt x="1240" y="930" on="0"/>
        <pt x="1160" y="987" on="0"/>
        <pt x="1047" y="1016" on="0"/>
        <pt x="896" y="1024" on="0"/>
        <pt x="800" y="1024" on="1"/>
        <pt x="704" y="1024" on="0"/>
        <pt x="553" y="1016" on="0"/>
        <pt x="440" y="987" on="0"/>
        <pt x="360" y="930" on="0"/>
        <pt x="311" y="832" on="0"/>
        <pt x="288" y="687" on="0"/>
      </contour>
    </TTGlyph>
    <TTGlyph name="oacute" xMin="128" yMin="-22" xMax="1536" yMax="1856">
      <component glyphName="o" x="32" y="0" flags="0x1004"/>
      <component glyphName="acute" x="352" y="0" flags="0x1004"/>
    </TTGlyph>
    <TTGlyph name="obreve" xMin="128" yMin="-22" xMax="1536" yMax="1563">
      <component glyphName="breve" x="192" y="-37" flags="0x1004"/>
      <component glyphName="o" x="32" y="0" flags="0x1004"/>
    </TTGlyph>
    <TTGlyph name="ocircumflex" xMin="128" yMin="-22" xMax="1536" yMax="1856">
      <component glyphName="o" x="32" y="0" flags="0x1004"/>
      <component glyphName="circumflex" x="288" y="0" flags="0x1004"/>
    </TTGlyph>
    <TTGlyph name="odieresis" xMin="128" yMin="-22" xMax="1536" yMax="1536">
      <component glyphName="o" x="32" y="0" flags="0x1004"/>
      <component glyphName="dieresis" x="288" y="0" flags="0x1004"/>
    </TTGlyph>
    <TTGlyph name="oe" xMin="128" yMin="-32" xMax="2688" yMax="1120">
      <contour>
        <pt x="128" y="544" on="1"/>
        <pt x="128" y="376" on="0"/>
        <pt x="204" y="154" on="0"/>
        <pt x="372" y="22" on="0"/>
        <pt x="640" y="-32" on="0"/>
        <pt x="832" y="-32" on="1"/>
        <pt x="949" y="-32" on="0"/>
        <pt x="1150" y="2" on="0"/>
        <pt x="1307" y="62" on="0"/>
        <pt x="1416" y="144" on="0"/>
        <pt x="1440" y="192" on="1"/>
        <pt x="1464" y="144" on="0"/>
        <pt x="1572" y="62" on="0"/>
        <pt x="1730" y="2" on="0"/>
        <pt x="1931" y="-32" on="0"/>
        <pt x="2048" y="-32" on="1"/>
        <pt x="2228" y="-32" on="0"/>
        <pt x="2473" y="6" on="0"/>
        <pt x="2623" y="90" on="0"/>
        <pt x="2688" y="224" on="0"/>
        <pt x="2688" y="320" on="1"/>
        <pt x="2496" y="320" on="1"/>
        <pt x="2496" y="260" on="0"/>
        <pt x="2455" y="185" on="0"/>
        <pt x="2353" y="143" on="0"/>
        <pt x="2180" y="128" on="0"/>
        <pt x="2048" y="128" on="1"/>
        <pt x="1904" y="128" on="0"/>
        <pt x="1708" y="149" on="0"/>
        <pt x="1588" y="227" on="0"/>
        <pt x="1536" y="380" on="0"/>
        <pt x="1536" y="512" on="1"/>
        <pt x="2672" y="512" on="1"/>
        <pt x="2688" y="576" on="1"/>
        <pt x="2688" y="655" on="0"/>
        <pt x="2669" y="797" on="0"/>
        <pt x="2618" y="917" on="0"/>
        <pt x="2529" y="1015" on="0"/>
        <pt x="2386" y="1083" on="0"/>
        <pt x="2185" y="1120" on="0"/>
        <pt x="2048" y="1120" on="1"/>
        <pt x="1931" y="1120" on="0"/>
        <pt x="1721" y="1086" on="0"/>
        <pt x="1557" y="1026" on="0"/>
        <pt x="1452" y="944" on="0"/>
        <pt x="1440" y="896" on="1"/>
        <pt x="1428" y="942" on="0"/>
        <pt x="1322" y="1023" on="0"/>
        <pt x="1159" y="1084" on="0"/>
        <pt x="949" y="1120" on="0"/>
        <pt x="832" y="1120" on="1"/>
        <pt x="640" y="1120" on="0"/>
        <pt x="372" y="1066" on="0"/>
        <pt x="204" y="934" on="0"/>
        <pt x="128" y="712" on="0"/>
      </contour>
      <contour>
        <pt x="320" y="544" on="1"/>
        <pt x="320" y="688" on="0"/>
        <pt x="372" y="854" on="0"/>
        <pt x="492" y="938" on="0"/>
        <pt x="688" y="960" on="0"/>
        <pt x="832" y="960" on="1"/>
        <pt x="976" y="960" on="0"/>
        <pt x="1172" y="938" on="0"/>
        <pt x="1292" y="854" on="0"/>
        <pt x="1344" y="688" on="0"/>
        <pt x="1344" y="544" on="1"/>
        <pt x="1344" y="400" on="0"/>
        <pt x="1292" y="234" on="0"/>
        <pt x="1172" y="150" on="0"/>
        <pt x="976" y="128" on="0"/>
        <pt x="832" y="128" on="1"/>
        <pt x="720" y="128" on="0"/>
        <pt x="557" y="141" on="0"/>
        <pt x="443" y="175" on="0"/>
        <pt x="373" y="233" on="0"/>
        <pt x="334" y="326" on="0"/>
        <pt x="320" y="456" on="0"/>
      </contour>
      <contour>
        <pt x="2048" y="960" on="1"/>
        <pt x="2168" y="960" on="0"/>
        <pt x="2338" y="932" on="0"/>
        <pt x="2446" y="860" on="0"/>
        <pt x="2496" y="736" on="0"/>
        <pt x="2496" y="640" on="1"/>
        <pt x="1536" y="640" on="1"/>
        <pt x="1536" y="748" on="0"/>
        <pt x="1588" y="875" on="0"/>
        <pt x="1708" y="941" on="0"/>
        <pt x="1904" y="960" on="0"/>
      </contour>
    </TTGlyph>
    <TTGlyph name="ogonek" xMin="128" yMin="-512" xMax="512" yMax="64">
      <contour>
        <pt x="512" y="-512" on="1"/>
        <pt x="440" y="-512" on="0"/>
        <pt x="302" y="-486" on="0"/>
        <pt x="194" y="-426" on="0"/>
        <pt x="128" y="-328" on="0"/>
        <pt x="128" y="-256" on="1"/>
        <pt x="128" y="-220" on="0"/>
        <pt x="150" y="-154" on="0"/>
        <pt x="186" y="-96" on="0"/>
        <pt x="232" y="-45" on="0"/>
        <pt x="256" y="-24" on="1"/>
        <pt x="312" y="25" on="0"/>
        <pt x="384" y="64" on="1"/>
        <pt x="512" y="64" on="1"/>
        <pt x="440" y="16" on="0"/>
        <pt x="362" y="-77" on="0"/>
        <pt x="326" y="-155" on="0"/>
        <pt x="320" y="-212" on="0"/>
        <pt x="320" y="-224" on="1"/>
        <pt x="320" y="-296" on="0"/>
        <pt x="415" y="-352" on="0"/>
        <pt x="512" y="-352" on="1"/>
      </contour>
    </TTGlyph>
    <TTGlyph name="ograve" xMin="128" yMin="-22" xMax="1536" yMax="1856">
      <component glyphName="o" x="32" y="0" flags="0x1004"/>
      <component glyphName="grave" x="352" y="0" flags="0x1004"/>
    </TTGlyph>
    <TTGlyph name="ohungarumlaut" xMin="128" yMin="-22" xMax="1749" yMax="1819">
      <component glyphName="hungarumlaut" x="364" y="-37" flags="0x1004"/>
      <component glyphName="o" x="32" y="0" flags="0x1004"/>
    </TTGlyph>
</ttFont>
